<svg xmlns="http://www.w3.org/2000/svg" width="119.89" height="58.701" viewBox="0 0 119.89 58.701">
  <g id="OBJECTS" transform="translate(-9)">
    <g id="Group_193" data-name="Group 193" transform="translate(9 0)">
      <g id="Group_185" data-name="Group 185" transform="translate(1.513)">
        <path id="Path_322" data-name="Path 322" d="M96.018,149.393h-5.53l-.778-5.265H96.8Z" transform="translate(-88.613 -133.532)" fill="#609cfc"/>
        <g id="Group_181" data-name="Group 181" transform="translate(1.194 11.258)">
          <path id="Path_323" data-name="Path 323" d="M97.131,147.72H90.24l.1.623h6.706Z" transform="translate(-90.24 -147.72)" fill="#609cfc"/>
          <path id="Path_324" data-name="Path 324" d="M91.22,154.341H97.6l.1-.623H91.127Z" transform="translate(-90.963 -152.611)" fill="#fff"/>
          <path id="Path_325" data-name="Path 325" d="M92.106,160.338h6.053l.1-.623H92.014Z" transform="translate(-91.685 -157.504)" fill="#609cfc"/>
          <path id="Path_326" data-name="Path 326" d="M93,166.335h5.721l.1-.623H92.9Z" transform="translate(-92.409 -162.395)" fill="#609cfc"/>
        </g>
        <rect id="Rectangle_4" data-name="Rectangle 4" width="4.614" height="2.202" transform="translate(2.333 8.393)" fill="#609cfc"/>
        <rect id="Rectangle_5" data-name="Rectangle 5" width="4.614" height="0.883" transform="translate(2.333 6.711)" fill="#609cfc"/>
        <rect id="Rectangle_6" data-name="Rectangle 6" width="3.755" height="0.8" transform="translate(2.762 7.594)" fill="#609cfc"/>
        <path id="Path_327" data-name="Path 327" d="M108.244,86.652h-.137l-.1,6.711h.34Z" transform="translate(-103.537 -86.652)" fill="#609cfc"/>
        <rect id="Rectangle_7" data-name="Rectangle 7" width="3.956" height="0.447" transform="translate(2.661 15.861)" fill="#609cfc"/>
        <rect id="Rectangle_8" data-name="Rectangle 8" width="1.358" height="40.18" transform="translate(3.961 16.084)" fill="#609cfc"/>
        <rect id="Rectangle_9" data-name="Rectangle 9" width="4.084" height="0.359" transform="translate(2.598 36.175)" fill="#609cfc"/>
        <path id="Path_328" data-name="Path 328" d="M105.458,380.977h-2.029v-3.5l.334-.519h1.353l.334.519Z" transform="translate(-99.805 -323.446)" fill="#609cfc"/>
        <g id="Group_182" data-name="Group 182" transform="translate(0 25.2)">
          <rect id="Rectangle_10" data-name="Rectangle 10" width="32.567" height="0.138" transform="translate(0 32.323) rotate(-82.989)" fill="#609cfc"/>
          <rect id="Rectangle_11" data-name="Rectangle 11" width="0.138" height="32.567" transform="translate(5.139 0.017) rotate(-7.027)" fill="#609cfc"/>
        </g>
        <g id="Group_183" data-name="Group 183" transform="translate(1.389 25.203)">
          <rect id="Rectangle_12" data-name="Rectangle 12" width="32.44" height="0.138" transform="matrix(0.086, -0.996, 0.996, 0.086, 0, 32.322)" fill="#609cfc"/>
          <rect id="Rectangle_13" data-name="Rectangle 13" width="0.138" height="32.44" transform="translate(3.574 0.012) rotate(-4.889)" fill="#609cfc"/>
        </g>
        <g id="Group_184" data-name="Group 184" transform="translate(2.801 25.205)">
          <rect id="Rectangle_14" data-name="Rectangle 14" width="32.36" height="0.138" transform="matrix(0.047, -0.999, 0.999, 0.047, 0, 32.325)" fill="#609cfc"/>
          <rect id="Rectangle_15" data-name="Rectangle 15" width="0.138" height="32.36" transform="translate(1.988 0.008) rotate(-2.751)" fill="#609cfc"/>
        </g>
      </g>
      <g id="Group_189" data-name="Group 189" transform="translate(31.129 34.211)">
        <path id="Path_329" data-name="Path 329" d="M278.588,290.631a.07.07,0,0,1-.065-.045l-2.6-7.141.13-.047,2.466,6.773v-7.977a.069.069,0,0,1,.055-.068.07.07,0,0,1,.077.041l2.545,5.855v-7.126a.07.07,0,0,1,.132-.029l2.52,5.383v-6.585a.069.069,0,0,1,.052-.067.07.07,0,0,1,.078.035l2.547,4.8V278.5a.07.07,0,0,1,.129-.035l2.523,4.331v-5.15a.07.07,0,0,1,.127-.039l2.551,3.748v-4.711a.069.069,0,0,1,.126-.041l2.4,3.354v-4.233a.07.07,0,0,1,.123-.044l2.574,3.173v-3.86a.069.069,0,0,1,.123-.044l2.416,3V274.3a.07.07,0,0,1,.122-.045l2.589,2.972v-3.448a.069.069,0,0,1,.122-.045l2.491,2.877v-3.354a.069.069,0,0,1,.044-.064.07.07,0,0,1,.076.017l2.706,2.9.277-3.134a.07.07,0,0,1,.125-.035l2.25,3.01.676-3.213a.07.07,0,0,1,.127-.021l1.9,3.162,1.768-3.16a.071.071,0,0,1,.07-.035.07.07,0,0,1,.058.052l.81,3.219,2.179-3.013a.07.07,0,0,1,.125.033l.35,3.139,2.706-2.907a.07.07,0,0,1,.076-.017.068.068,0,0,1,.044.064v3.354l2.491-2.877a.069.069,0,0,1,.076-.019.069.069,0,0,1,.045.065v3.448l2.589-2.972a.07.07,0,0,1,.076-.019.069.069,0,0,1,.045.065v3.651l2.416-3a.069.069,0,0,1,.123.044v3.86l2.574-3.173a.07.07,0,0,1,.123.043v4.233l2.4-3.354a.069.069,0,0,1,.126.04v4.711l2.552-3.748a.071.071,0,0,1,.077-.027.069.069,0,0,1,.048.066v5.15l2.523-4.331a.07.07,0,0,1,.078-.032.069.069,0,0,1,.051.067v5.935l2.547-4.8a.071.071,0,0,1,.078-.035.07.07,0,0,1,.052.067v6.585l2.52-5.383a.07.07,0,0,1,.131.029v7.125l2.546-5.855a.07.07,0,0,1,.077-.041.069.069,0,0,1,.055.068v7.977l2.466-6.773.129.047-2.6,7.141a.069.069,0,0,1-.134-.023v-8.036l-2.546,5.854a.07.07,0,0,1-.132-.027V281.2l-2.52,5.383a.071.071,0,0,1-.077.038.07.07,0,0,1-.054-.068v-6.618l-2.547,4.8a.069.069,0,0,1-.13-.033v-5.957l-2.523,4.331a.07.07,0,0,1-.13-.035v-5.182l-2.551,3.748a.069.069,0,0,1-.127-.039v-4.713l-2.4,3.354a.069.069,0,0,1-.126-.041v-4.252l-2.574,3.173a.07.07,0,0,1-.123-.043v-3.859l-2.416,3a.068.068,0,0,1-.076.022.069.069,0,0,1-.046-.066v-3.663l-2.589,2.972a.07.07,0,0,1-.122-.045v-3.447l-2.491,2.877a.069.069,0,0,1-.122-.045v-3.363l-2.689,2.889a.069.069,0,0,1-.072.018.07.07,0,0,1-.047-.058l-.347-3.111-2.161,2.988a.069.069,0,0,1-.123-.023l-.8-3.194-1.74,3.112a.07.07,0,0,1-.059.036.071.071,0,0,1-.061-.034l-1.872-3.113-.676,3.189a.07.07,0,0,1-.123.027l-2.232-2.988-.275,3.109a.069.069,0,0,1-.119.041l-2.689-2.889V276.8a.069.069,0,0,1-.122.045l-2.491-2.877v3.447a.069.069,0,0,1-.122.045l-2.589-2.972v3.663a.07.07,0,0,1-.046.066.068.068,0,0,1-.076-.022l-2.416-3v3.859a.07.07,0,0,1-.123.043l-2.575-3.173v4.252a.069.069,0,0,1-.126.041l-2.4-3.353v4.72a.07.07,0,0,1-.127.039l-2.551-3.748v5.182a.069.069,0,0,1-.129.035l-2.523-4.331v5.957a.069.069,0,0,1-.13.033l-2.547-4.8v6.618a.07.07,0,0,1-.131.029l-2.52-5.383v7.151a.068.068,0,0,1-.055.068.071.071,0,0,1-.077-.041l-2.545-5.854v8.036a.07.07,0,0,1-.057.068Z" transform="translate(-270.113 -272.604)" fill="#609cfc"/>
        <path id="Path_330" data-name="Path 330" d="M347.956,283.535C334.433,276.212,321.7,272.5,310.123,272.5s-24.31,3.713-37.833,11.035l-.131-.243c13.564-7.345,26.337-11.068,37.965-11.068s24.4,3.724,37.965,11.068Z" transform="translate(-267.042 -272.224)" fill="#609cfc"/>
        <path id="Path_331" data-name="Path 331" d="M347.834,308.8c-14.345-11.937-24.947-16.69-37.814-16.952a44,44,0,0,0-19.106,4.372c-5.63,2.65-11.572,6.648-18.7,12.58l-.177-.213c7.151-5.948,13.109-9.954,18.761-12.617a44.267,44.267,0,0,1,19.227-4.4c14.921.3,25.977,7.022,37.987,17.016Z" transform="translate(-266.943 -288.004)" fill="#609cfc"/>
        <rect id="Rectangle_16" data-name="Rectangle 16" width="74.411" height="0.553" transform="translate(5.875 11.991)" fill="#609cfc"/>
        <rect id="Rectangle_17" data-name="Rectangle 17" width="75.679" height="0.422" transform="translate(4.732 12.535)" fill="#609cfc"/>
        <g id="Group_188" data-name="Group 188" transform="translate(0 5.778)">
          <g id="Group_186" data-name="Group 186" transform="translate(0 0)">
            <path id="Path_332" data-name="Path 332" d="M252.7,325.408h-4.969l.326-11.266h4.318Z" transform="translate(-247.119 -312.19)" fill="#609cfc"/>
            <path id="Path_333" data-name="Path 333" d="M255.123,311.634h-3.554l.233-8.059h3.092Z" transform="translate(-250.249 -303.575)" fill="#609cfc"/>
            <path id="Path_334" data-name="Path 334" d="M252.7,325.408h-4.969l.326-11.266h4.318Z" transform="translate(-247.119 -312.19)" fill="#609cfc"/>
            <path id="Path_335" data-name="Path 335" d="M250.6,336.637h-6.194l.4-14.044H250.2Z" transform="translate(-244.409 -319.086)" fill="#609cfc"/>
            <path id="Path_336" data-name="Path 336" d="M258.121,341.914V339.74a.9.9,0,1,0-1.8,0v2.173Z" transform="translate(-254.122 -332.285)" fill="#609cfc"/>
            <rect id="Rectangle_18" data-name="Rectangle 18" width="2.485" height="0.683" transform="translate(1.855 9.328)" fill="#609cfc"/>
            <rect id="Rectangle_19" data-name="Rectangle 19" width="1.389" height="0.462" transform="translate(2.402 3.045)" fill="#609cfc"/>
            <rect id="Rectangle_20" data-name="Rectangle 20" width="0.867" height="0.389" transform="translate(2.663 1.559)" fill="#609cfc"/>
          </g>
          <g id="Group_187" data-name="Group 187" transform="translate(79.966 0)">
            <path id="Path_337" data-name="Path 337" d="M686.481,325.408h-4.969l.326-11.266h4.318Z" transform="translate(-680.9 -312.19)" fill="#609cfc"/>
            <path id="Path_338" data-name="Path 338" d="M688.9,311.634H685.35l.233-8.059h3.093Z" transform="translate(-684.03 -303.575)" fill="#609cfc"/>
            <path id="Path_339" data-name="Path 339" d="M686.481,325.408h-4.969l.326-11.266h4.318Z" transform="translate(-680.9 -312.19)" fill="#609cfc"/>
            <path id="Path_340" data-name="Path 340" d="M684.384,336.637H678.19l.4-14.044h5.383Z" transform="translate(-678.19 -319.086)" fill="#609cfc"/>
            <path id="Path_341" data-name="Path 341" d="M691.9,341.914V339.74a.9.9,0,1,0-1.8,0v2.173Z" transform="translate(-687.903 -332.285)" fill="#609cfc"/>
            <rect id="Rectangle_21" data-name="Rectangle 21" width="2.485" height="0.683" transform="translate(1.855 9.328)" fill="#609cfc"/>
            <rect id="Rectangle_22" data-name="Rectangle 22" width="1.389" height="0.462" transform="translate(2.402 3.045)" fill="#609cfc"/>
            <rect id="Rectangle_23" data-name="Rectangle 23" width="0.867" height="0.389" transform="translate(2.663 1.559)" fill="#609cfc"/>
          </g>
        </g>
      </g>
      <g id="Group_192" data-name="Group 192" transform="translate(12.375 21.281)">
        <path id="Path_342" data-name="Path 342" d="M428.475,354.671l-.134-1.793,5.474-.483,3.616,2.271Z" transform="translate(-375.682 -324.69)" fill="#609cfc"/>
        <path id="Path_343" data-name="Path 343" d="M292.01,345.164l1.092-2.549,5.578.993,1.484,3.082h-.936l-4.51-1.526Z" transform="translate(-264.482 -316.709)" fill="#609cfc"/>
        <path id="Path_344" data-name="Path 344" d="M155.3,271.092l11.261,12.729h.472l4.9-10.568a34.827,34.827,0,0,0-16.631-2.161Z" transform="translate(-152.974 -258.215)" fill="#609cfc"/>
        <path id="Path_345" data-name="Path 345" d="M218.943,294.252l4.9-10.568,6.543,13.414-8.311-2.846Z" transform="translate(-204.885 -268.642)" fill="#609cfc" stroke="#fff" stroke-width="1"/>
        <path id="Path_346" data-name="Path 346" d="M236.2,264.589l-10.126-20.76a32.121,32.121,0,0,1,14.74,4.378L237.6,264.589Z" transform="translate(-210.704 -236.134)" fill="#609cfc"/>
        <path id="Path_347" data-name="Path 347" d="M288.562,283.959h.636l1.092-2.549,5.579.993,1.484,3.082h.936l-6.506-17.909Z" transform="translate(-261.67 -255.504)" fill="#609cfc" stroke="#fff" stroke-width="1"/>
        <path id="Path_348" data-name="Path 348" d="M293.132,232.07,282.24,202.089c10.25,2.636,18.555,8.265,23.657,18.835l-9.786,11.147Z" transform="translate(-256.513 -202.089)" fill="#609cfc"/>
        <path id="Path_349" data-name="Path 349" d="M367.266,304.259l-9.786,11.147h.5l4.241-3.735,7.028,2.014.193,1.721h.915Z" transform="translate(-317.882 -285.425)" fill="#609cfc" stroke="#fff" stroke-width="1"/>
        <path id="Path_350" data-name="Path 350" d="M429.853,283.188l-4.708,14.4H423.57l-13-11.147Q418.847,280.653,429.853,283.188Z" transform="translate(-361.181 -267.609)" fill="#609cfc"/>
        <path id="Path_351" data-name="Path 351" d="M512.435,329.494l-6.2-7.962a29.716,29.716,0,0,1,8.934,2.021l-1.3,5.941Z" transform="translate(-439.212 -299.513)" fill="#609cfc"/>
        <path id="Path_352" data-name="Path 352" d="M561.851,330.238l8.826-10.574c-6.24-.417-11.553.359-15.977,2.276l5.58,7.7Z" transform="translate(-478.744 -297.9)" fill="#609cfc"/>
        <path id="Path_353" data-name="Path 353" d="M226.473,351.658V348l-3.8-1.45h-.907l-3.092-1.171H177.43l-4.51-1.526h-4.735l-8.311-2.846h-3.6l-3.489,1.571H146.2v2.014h-1.676v2.638h-1.842v4.425h83.787" transform="translate(-142.683 -315.399)" fill="#609cfc" stroke="#fff" stroke-width="1"/>
        <g id="Group_191" data-name="Group 191" transform="translate(20.983 31.252)">
          <g id="Group_190" data-name="Group 190" transform="translate(20.147 3.127)">
            <rect id="Rectangle_24" data-name="Rectangle 24" width="2.868" height="1.88" fill="#609cfc"/>
            <rect id="Rectangle_25" data-name="Rectangle 25" width="2.868" height="1.88" transform="translate(3.468)" fill="#609cfc"/>
            <rect id="Rectangle_26" data-name="Rectangle 26" width="2.868" height="1.88" transform="translate(6.936)" fill="#609cfc"/>
            <rect id="Rectangle_27" data-name="Rectangle 27" width="2.868" height="1.88" transform="translate(10.404)" fill="#609cfc"/>
            <rect id="Rectangle_28" data-name="Rectangle 28" width="2.868" height="1.88" transform="translate(13.873)" fill="#609cfc"/>
            <rect id="Rectangle_29" data-name="Rectangle 29" width="2.868" height="1.88" transform="translate(17.341)" fill="#609cfc"/>
            <rect id="Rectangle_30" data-name="Rectangle 30" width="2.868" height="1.88" transform="translate(20.81)" fill="#609cfc"/>
            <rect id="Rectangle_31" data-name="Rectangle 31" width="2.868" height="1.88" transform="translate(24.277)" fill="#609cfc"/>
          </g>
          <rect id="Rectangle_32" data-name="Rectangle 32" width="4.446" height="0.738" fill="#609cfc"/>
          <rect id="Rectangle_33" data-name="Rectangle 33" width="17.41" height="0.738" transform="translate(14.402)" fill="#609cfc"/>
          <rect id="Rectangle_34" data-name="Rectangle 34" width="12.699" height="0.738" transform="translate(43.824)" fill="#609cfc"/>
          <rect id="Rectangle_35" data-name="Rectangle 35" width="7.732" height="0.738" transform="translate(5.616)" fill="#609cfc"/>
          <rect id="Rectangle_36" data-name="Rectangle 36" width="2.397" height="2.737" transform="translate(49.844 2.269)" fill="#609cfc"/>
          <rect id="Rectangle_37" data-name="Rectangle 37" width="2.915" height="1.276" transform="translate(10.531 3.73)" fill="#609cfc"/>
        </g>
        <path id="Path_354" data-name="Path 354" d="M157.5,333.373l-.966-1.276,9.192-2.378,1.842,2.082-3.489,1.571Z" transform="translate(-153.978 -306.188)" fill="#609cfc" stroke="#fff" stroke-width="1"/>
        <path id="Path_355" data-name="Path 355" d="M168.582,306.734l.225-2.475,4.145,4.693-7.558,1.965Z" transform="translate(-161.208 -285.425)" fill="#609cfc" stroke="#fff" stroke-width="1"/>
        <path id="Path_356" data-name="Path 356" d="M222.462,332.433l.879-1.933,6.088,1.339,1.856,2.769-6.339-2.171Z" transform="translate(-207.755 -306.828)" fill="#609cfc"/>
        <path id="Path_357" data-name="Path 357" d="M360.173,348.193l4.241-3.735,7.028,2.014.193,1.721Z" transform="translate(-320.079 -318.212)" fill="#609cfc"/>
        <path id="Path_358" data-name="Path 358" d="M413.975,315.405l-.134-1.793,5.474-.483,3.616,2.272h.638l-13-11.147,3.085,11.147Z" transform="translate(-361.181 -285.424)" fill="#609cfc" stroke="#fff" stroke-width="1"/>
        <path id="Path_359" data-name="Path 359" d="M554.537,360.746l-2.212-3.056h-4.382l-.283,1.3h1.334l3.093,1.171h.907Z" transform="translate(-473.002 -329.005)" fill="#609cfc" stroke="#fff" stroke-width="1"/>
        <path id="Path_360" data-name="Path 360" d="M508.512,344.164l-3.47,2.493h.219v1.3h6.2Z" transform="translate(-438.241 -317.973)" fill="#609cfc"/>
        <path id="Path_361" data-name="Path 361" d="M511.436,357.7l-5.205-.012v1.3h6.205Z" transform="translate(-439.212 -329.005)" fill="#609cfc" stroke="#fff" stroke-width="1"/>
        <path id="Path_362" data-name="Path 362" d="M153.324,374.769l3.195,1.48h.744l4.252,1.957v.986H142.683v-4.425Z" transform="translate(-142.683 -342.936)" fill="#609cfc"/>
        <path id="Path_363" data-name="Path 363" d="M152.673,360.46h3.065l4.751,2.638h-7.816Z" transform="translate(-150.832 -331.265)" fill="#609cfc"/>
        <rect id="Rectangle_38" data-name="Rectangle 38" width="1.39" height="0.922" transform="translate(3.517 28.273)" fill="#609cfc"/>
        <rect id="Rectangle_39" data-name="Rectangle 39" width="1.676" height="1.319" transform="translate(1.842 30.514)" fill="#609cfc"/>
        <rect id="Rectangle_40" data-name="Rectangle 40" width="2.099" height="2.567" transform="translate(0 33.691)" fill="#609cfc"/>
        <rect id="Rectangle_41" data-name="Rectangle 41" width="1.517" height="1.957" transform="translate(8.339 34.301)" fill="#609cfc"/>
        <path id="Path_364" data-name="Path 364" d="M549.2,337.139l1.015-4.645,3.368,4.645Z" transform="translate(-474.255 -308.455)" fill="#609cfc" stroke="#fff" stroke-width="1"/>
      </g>
      <rect id="Rectangle_42" data-name="Rectangle 42" width="119.89" height="1.161" transform="translate(0 57.54)" fill="#609cfc"/>
    </g>
  </g>
</svg>
