<svg xmlns="http://www.w3.org/2000/svg" width="94.576" height="58.256" viewBox="0 0 94.576 58.256">
  <g id="Asset_1" data-name="Asset 1" transform="translate(0)">
    <g id="Layer_2" data-name="Layer 2" transform="translate(0 0)">
      <g id="Capa_1" data-name="Capa 1" transform="translate(0 0)">
        <g id="Group_3559" data-name="Group 3559">
          <path id="Path_50976" data-name="Path 50976" d="M1303.841,149.044h2.245v-.735h-.551s.147-1.827-1.147-2.231h0a.912.912,0,0,0-.266-.589h0s.056-1.191-.281-1.53c-.339.338-.281,1.53-.281,1.53h0a.913.913,0,0,0-.266.588h0c-1.289.4-1.145,2.231-1.145,2.231h-.551v.735Zm-.157-3.035h.157c-.048,0-.105,0-.154,0Zm.567.038h0Zm-.162-.028ZM1304.061,145.446Zm-.061-.027h0Zm-.068-.019ZM1303.618,145.445Zm.147-.049Zm-.074.018h0Zm-.1.6Zm-.162.028h0Z" transform="translate(-1247.505 -131.008)" fill="#5f9cfc"/>
          <path id="Path_50977" data-name="Path 50977" d="M1308.764,180.731v-.66h-3.383v.5a.959.959,0,0,1,.35.759v2.353h-.35v.441h3.383v-.441h-.194v-2.353a.954.954,0,0,1,.194-.6Zm-1.754,2.956h-1v-2.353a.934.934,0,0,1,.5-.859.962.962,0,0,1,.5.859Zm1.28,0h-1v-2.353a.934.934,0,0,1,.5-.859.962.962,0,0,1,.5.859Z" transform="translate(-1250.732 -161.808)" fill="#5f9cfc"/>
          <path id="Path_50978" data-name="Path 50978" d="M1176.716,195.778h-.237v.735h.237l.019,5.222v1.2h20.956v-1.2a.572.572,0,0,0,0-.091h0v-5.137h.235v-.735h-.235s.278-1.731,1.281-1.731c0,0,.07-.474-1.03-.724h-3.382c-1.106.25-1.029.724-1.029.724,1,0,1.281,1.731,1.281,1.731h-.237v.735h.21v4.632h0a.608.608,0,0,0-.179-.027.6.6,0,0,0-.27.063h0a6.666,6.666,0,0,0-3.562-2.647s-3.122-2.117-3.425-3.383v-.535h.117s.167,0,.167-.147a.155.155,0,0,0-.162-.147h-.125v-1.177h.044s.119,0,.119-.11a.11.11,0,0,0-.114-.108h-.05l-.147-2.335-.147,2.335H1187a.109.109,0,0,0-.111.108c0,.108.119.11.119.11h.045v1.182h-.126a.147.147,0,0,0-.157.147c0,.147.167.147.167.147h.116v.535c-.243,1.435-3.425,3.383-3.425,3.383a6.7,6.7,0,0,0-3.561,2.647h0a.609.609,0,0,0-.269-.062.63.63,0,0,0-.205.036h0v-4.648h.236v-.735h-.236s.279-1.731,1.28-1.731c0,0,.072-.474-1.03-.724h-3.383c-1.106.25-1.029.724-1.029.724C1176.441,194.044,1176.716,195.778,1176.716,195.778ZM1197.478,201.268Zm-.295-.147h0Zm.106.029h0Zm.1.047h0Zm-2.168.441v-.018c0-.006,0,.016,0,.022Zm-.024-.1a.042.042,0,0,1,0-.013.057.057,0,0,0,0,.013ZM1195.159,201.445Zm-.049-.081-.009-.013a.035.035,0,0,0,.006.018ZM1195.042,201.283Zm-.147-.108h0ZM1194.976,201.225ZM1194.209,201.265Zm-.11.126a.012.012,0,0,1,0,.009.013.013,0,0,0-.01,0Zm-.038.069v.013l-.013-.009Zm-.034.087a.03.03,0,0,1,0,.01.026.026,0,0,0-.01-.006Zm-.016.076a.08.08,0,0,0,0,.02.129.129,0,0,1-.01-.016Zm-13.576.02a.112.112,0,0,0,0-.02.117.117,0,0,1-.01.025Zm-.018-.087v-.011c0-.011-.012.012-.011.015Zm-.029-.081v0Zm-.041-.075v0ZM1180.236,201.267Zm-1.021.371a.1.1,0,0,1,0-.019.089.089,0,0,0-.011.023Zm.022-.1v0Zm.034-.081a.03.03,0,0,0,0-.011.039.039,0,0,1-.011.015Zm.05-.081v0ZM1179.453,201.241Z" transform="translate(-1139.9 -170.779)" fill="#5f9cfc"/>
          <path id="Path_50979" data-name="Path 50979" d="M1180.971,149.044h2.245v-.735h-.553s.147-1.828-1.145-2.231h0a.922.922,0,0,0-.268-.588h0s.057-1.191-.281-1.53c-.338.338-.281,1.53-.281,1.53h0a.913.913,0,0,0-.266.588h0c-1.288.4-1.145,2.231-1.145,2.231h-.551v.735Zm-.157-3.035h.157c-.054,0-.109,0-.162,0Zm.567.038h0Zm-.162-.028ZM1181.19,145.449Zm-.06-.027h0Zm-.068-.019h0ZM1180.745,145.449Zm.147-.049h0Zm-.074.018h0Zm-.1.6Zm-.162.028h0Z" transform="translate(-1142.699 -131.008)" fill="#5f9cfc"/>
          <path id="Path_50980" data-name="Path 50980" d="M1185.863,180.731v-.66h-3.383v.5a.96.96,0,0,1,.351.759v2.353h-.351v.441h3.383v-.441h-.193v-2.353a.963.963,0,0,1,.193-.6Zm-1.753,2.956h-1v-2.353a.933.933,0,0,1,.5-.859.962.962,0,0,1,.5.859Zm1.28,0h-1v-2.353a.934.934,0,0,1,.5-.859.962.962,0,0,1,.5.859Z" transform="translate(-1145.905 -161.808)" fill="#5f9cfc"/>
          <path id="Path_50981" data-name="Path 50981" d="M945.265,71.406h2.895s.278-.4,1.28-.4c0,0,.072-.474-1.03-.722v-.441h-.194v-2.35a.954.954,0,0,1,.194-.6v-.661h.551v-.735H948.4a2.984,2.984,0,0,0-1.133-2.734h0s.012-.58-.281-.809h0a4.485,4.485,0,0,0-.1-1.185l-.175-4.857-.176,4.857a4.485,4.485,0,0,0-.109,1.183h0c-.294.231-.283.809-.283.809h0a2.982,2.982,0,0,0-1.133,2.734h-.551v.735h.562v.5a.96.96,0,0,1,.351.759v2.353h-.351v.441c-1.106.248-1.03.722-1.03.722C944.986,71,945.265,71.406,945.265,71.406Zm1.619-8.866c-.053-.025-.108-.049-.162-.072l-.166.072c.053-.025.109-.049.166-.072Zm-.257-.673a.628.628,0,0,1,.093-.009.589.589,0,0,1,.091.009.6.6,0,0,0-.091-.009.622.622,0,0,0-.1.009Zm1.311,5.622v2.353h-1V67.49a.931.931,0,0,1,.5-.859.961.961,0,0,1,.5.859Zm-2.279,0a.931.931,0,0,1,.5-.859.962.962,0,0,1,.5.859v2.353h-1Zm1.471-4.817a.17.17,0,0,1,.028.016.173.173,0,0,0-.028-.015Zm-.171-.092.068.034Zm-.036-.671a.137.137,0,0,1,.025.015.134.134,0,0,0-.025-.014Zm-.081-.034.044.015ZM946.856,60.661ZM946.818,60.569ZM946.772,60.489ZM946.574,60.659ZM946.664,60.483ZM946.615,60.564Zm-.027,1.309-.044.015.044-.011Zm-.085.034-.025.015Zm-.036.671-.066.034Zm-.171.092-.027.016Z" transform="translate(-942.491 -55.907)" fill="#5f9cfc"/>
          <path id="Path_50982" data-name="Path 50982" d="M1075.628,331h-6.119a.277.277,0,0,0,0,.553h12.328a.277.277,0,0,0,0-.553Z" transform="translate(-1049.314 -290.54)" fill="#5f9cfc"/>
          <path id="Path_50983" data-name="Path 50983" d="M1069.443,259.532a4.7,4.7,0,0,1,2.6-6.6c.038.023.087.054.147.088-4.078,2.131-2.131,6.515-2.131,6.515h.839s-1.55-4.209,1.569-6.386h0c.109.045.238.092.387.138-2.249,2.206-1.083,6.247-1.083,6.247h1.148s-.711-3.853.589-6.09a7.351,7.351,0,0,0,.8.1,25.243,25.243,0,0,0-.229,5.995h1.734a25.292,25.292,0,0,0-.229-5.99,7.424,7.424,0,0,0,.8-.094c1.3,2.24.589,6.084.589,6.084h1.15s1.163-4.029-1.077-6.24a3.558,3.558,0,0,0,.388-.14h0c3.109,2.178,1.562,6.38,1.562,6.38h.837s1.943-4.38-2.125-6.512c.038-.02.07-.041.1-.059a4.741,4.741,0,0,1,2.671,6.565h.475s2.461-4.614-3.033-6.637l.021-.016a10.939,10.939,0,0,1-1.965-1.523c-.635-.659-.735-.994-.918-1.064v-.459h.1s.147,0,.147-.13a.131.131,0,0,0-.135-.13h-.106v-.992h.036s.1,0,.1-.091a.093.093,0,0,0-.1-.091h-.043v-1.052a.122.122,0,1,0-.243,0v1.052h-.043a.092.092,0,0,0-.094.091c0,.091.1.091.1.091h.038v.987h-.108a.13.13,0,0,0-.131.129c0,.128.147.13.147.13h.1v.454c-.181.069-.282.4-.918,1.064a10.937,10.937,0,0,1-1.964,1.523c-5.485,2.066-2.985,6.666-2.985,6.666Z" transform="translate(-1048.598 -219.072)" fill="#5f9cfc"/>
          <rect id="Rectangle_4251" data-name="Rectangle 4251" width="3.994" height="1.646" transform="translate(8.614 46.097)" fill="#5f9cfc"/>
          <rect id="Rectangle_4252" data-name="Rectangle 4252" width="3.994" height="1.646" transform="translate(14.349 46.097)" fill="#5f9cfc"/>
          <rect id="Rectangle_4253" data-name="Rectangle 4253" width="3.994" height="1.646" transform="translate(20.085 46.097)" fill="#5f9cfc"/>
          <rect id="Rectangle_4254" data-name="Rectangle 4254" width="3.994" height="1.646" transform="translate(25.821 46.097)" fill="#5f9cfc"/>
          <rect id="Rectangle_4255" data-name="Rectangle 4255" width="3.994" height="1.646" transform="translate(31.557 46.097)" fill="#5f9cfc"/>
          <path id="Path_50984" data-name="Path 50984" d="M1236.874,372.685h-.2a.759.759,0,0,0,.133-.285c.312-1.2-1.1-1.9-2.138-2.4a4.249,4.249,0,0,1-.934-.538.34.34,0,0,0-.674,0,4.238,4.238,0,0,1-.932.538c-1.03.5-2.45,1.2-2.138,2.4a.754.754,0,0,0,.134.285h-.2a.34.34,0,0,0-.34.34v8.323h7.625v-8.323a.34.34,0,0,0-.339-.339ZM1236.138,372.579ZM1236.15,372.579ZM1236.168,372.579ZM1236.2,372.579ZM1236.23,372.579Zm.034,0h0ZM1236.31,372.564Zm.036-.022.01-.007ZM1236.386,372.51Zm.038-.049.009-.013Zm.031-.056a.054.054,0,0,1,0-.018.074.074,0,0,0,0,.016Zm-6.106-.018Zm.029.061.009.013ZM1230.419,372.5Zm.035.031.01.007ZM1230.493,372.56Zm.043.016h0ZM1230.572,372.576ZM1230.608,372.576ZM1230.641,372.576ZM1230.654,372.576ZM1230.668,372.576Z" transform="translate(-1186.086 -323.092)" fill="#5f9cfc"/>
          <path id="Path_50985" data-name="Path 50985" d="M1531.011,71.406h2.895s.278-.4,1.28-.4c0,0,.072-.474-1.03-.722v-.441h-.35v-2.35a.959.959,0,0,1,.35-.759v-.5h.553v-.735h-.553a2.982,2.982,0,0,0-1.133-2.734h0s.011-.58-.281-.809h0a4.445,4.445,0,0,0-.106-1.185l-.175-4.857-.177,4.857a4.48,4.48,0,0,0-.1,1.185h0c-.295.231-.282.809-.282.809h0a2.982,2.982,0,0,0-1.133,2.734h-.543v.735h.551v.66a.962.962,0,0,1,.193.6V69.84h-.193v.441c-1.106.248-1.03.722-1.03.722C1530.736,71,1531.011,71.406,1531.011,71.406Zm1.619-8.866c-.052-.025-.108-.049-.162-.072l-.166.072c.052-.025.109-.049.166-.072C1532.518,62.492,1532.577,62.515,1532.63,62.54Zm-.257-.673a.618.618,0,0,1,.092-.009.593.593,0,0,1,.092.009.593.593,0,0,0-.092-.009.62.62,0,0,0-.1.009Zm1.153,5.622v2.353h-1V67.49a.961.961,0,0,1,.5-.859.931.931,0,0,1,.495.859Zm-1.78-.859a.931.931,0,0,1,.5.859v2.353h-1V67.49a.962.962,0,0,1,.493-.859Zm1.133-3.957a.187.187,0,0,1,.028.016.186.186,0,0,0-.034-.016Zm-.171-.092.068.034Zm-.036-.671a.128.128,0,0,1,.025.015.153.153,0,0,0-.031-.015Zm-.081-.034.044.015ZM1532.605,60.662ZM1532.568,60.57ZM1532.519,60.489ZM1532.323,60.66ZM1532.413,60.483Zm-.049.081Zm-.027,1.309-.045.015Zm-.085.034-.025.015Zm-.036.671-.067.034Zm-.171.092-.027.016Z" transform="translate(-1442.097 -55.907)" fill="#5f9cfc"/>
          <path id="Path_50986" data-name="Path 50986" d="M1028.382,186.387s-.294-.988-1.875-1.019l-.463-12.472s.278-.4,1.28-.4c0,0-.213-.474-1.323-.722l-.294-7.885h.167a.283.283,0,0,0,0-.567h-.189l-.075-2.041h-.371l.056,2.041h-.441l-.036-2.041h-.459l.011,2.041h-.441l.012-2.041h-.459l-.036,2.041h-.432l.056-2.041h-.372l-.075,2.041h-.189a.283.283,0,1,0,0,.567h.167l-.294,7.885c-1.105.249-1.323.722-1.323.722.971,0,1.263.378,1.279.4l-.461,12.472h-.019c-1.653,0-1.952,1.019-1.952,1.019a.975.975,0,0,1,1.28.1v1.282a.616.616,0,1,0-1.233,0h0a1.376,1.376,0,0,1-1.849-.616,1.376,1.376,0,0,0-1.85.616,1.378,1.378,0,0,1-1.849-.616.616.616,0,0,1-1.232,0,.609.609,0,1,1-1.219,0,.632.632,0,0,1-1.261-.016.61.61,0,1,1-1.219.015.616.616,0,1,1-1.233,0,.61.61,0,1,1-1.219-.015.632.632,0,0,1-1.262,0,.61.61,0,1,1-1.219.015.616.616,0,0,1-1.233,0,.616.616,0,0,1-1.233,0,.61.61,0,1,1-1.219,0,.632.632,0,0,1-1.261-.018.61.61,0,1,1-1.219.015.616.616,0,1,1-1.233,0,.61.61,0,1,1-1.219-.015.632.632,0,0,1-1.261.015.609.609,0,1,1-1.219,0,.616.616,0,0,0-.616.616.616.616,0,0,1-.616-.616.617.617,0,0,0-.567.38v-9.607H970.641v9.843a1.376,1.376,0,0,1-1.85-.616,1.376,1.376,0,0,0-1.849.616,1.356,1.356,0,0,1-1.835-.615.632.632,0,0,1-1.261-.016.61.61,0,1,1-1.219.015.616.616,0,0,1-1.233,0,.61.61,0,1,1-1.219-.015.632.632,0,0,1-1.262,0,.61.61,0,1,1-1.219.015.616.616,0,0,1-1.233,0,.616.616,0,1,1-1.233,0,.61.61,0,1,1-1.219,0,.632.632,0,0,1-1.261-.016.61.61,0,1,1-1.219.015.616.616,0,0,1-1.232,0,.616.616,0,1,1-1.233,0,.61.61,0,1,1-1.219-.015.632.632,0,0,1-1.261.016.61.61,0,1,1-1.219,0,.616.616,0,1,1-1.233,0,.616.616,0,0,0-.616.616.616.616,0,0,1-.616-.616.616.616,0,0,0-.618.616h0a.616.616,0,0,0-1.233,0v-1.282a.978.978,0,0,1,1.281-.1s-.294-1.019-1.952-1.019h-.02L939.9,172.9c.018-.023.31-.4,1.281-.4,0,0-.216-.474-1.323-.722l-.288-7.887h.166a.283.283,0,1,0,0-.567h-.187l-.076-2.041H939.1l.056,2.041h-.441l-.029-2.04h-.461l.012,2.041H937.8l.01-2.041h-.452l-.036,2.041h-.441l.058-2.041h-.371l-.076,2.041h-.185a.283.283,0,0,0,0,.567h.171l-.294,7.885c-1.106.249-1.323.722-1.323.722,1,0,1.28.4,1.28.4l-.462,12.472c-1.587.031-1.875,1.019-1.875,1.019a.978.978,0,0,1,1.281.1v13.824a.441.441,0,0,0-.434.432v.18h.337v3.1h38.973V189.56h1.012v-1.473l-.284.074a.351.351,0,0,1-.243-.036.557.557,0,0,1-.222-.362.585.585,0,0,1-.014-.066c-.4-1.831,2.569-3.141,4.737-4.1.261-.115.51-.225.735-.329a3.983,3.983,0,0,0,1.416-1,2.5,2.5,0,0,0,.92.743c.295.14.631.294.987.441,2.147.95,5.392,2.387,5,4.234a.368.368,0,0,1-.016.076.562.562,0,0,1-.222.362.357.357,0,0,1-.238.036l-.294-.087v1.478h1.012v14.485h38.929v-3.1h.337v-.18a.432.432,0,0,0-.432-.432V186.5A1,1,0,0,1,1028.382,186.387ZM1026.488,185.368Zm-.589,0h-.665l-.211-12.472h.534Zm-1.323,14.954h-.821V186.5h.821ZM1023.9,172.9h.531l.065,12.472h-.653Zm1.424-9.01.207,7.885h-.522l-.13-7.885Zm-.936,0,.041,7.885h-.522l.043-7.885Zm-.928,0-.135,7.885h-.51l.211-7.885Zm-.687,9.01h.533l-.211,12.472h-.666Zm.068,13.6v13.824h-.824V186.491Zm-1.608,13.824a.413.413,0,0,0-.1.012v-.012Zm-1.485-3.307a3.965,3.965,0,0,0-1.912-1.836.162.162,0,0,0-.131,0,4.15,4.15,0,0,0-1.888,1.832.166.166,0,0,0-.018.075h-.169v-2.4h4.286v2.409h-.157a.163.163,0,0,0-.009-.074Zm-5.2-3.055h-5.01v-2.509h5.01Zm-4.647.719h4.286v2.409h-.157a.164.164,0,0,0-.016-.074,3.966,3.966,0,0,0-1.912-1.836.162.162,0,0,0-.131,0,4.15,4.15,0,0,0-1.888,1.833.165.165,0,0,0-.018.075h-.169Zm-1.089-.719h-5.01v-2.509h5.01Zm-4.648.719h4.286v2.409h-.157a.159.159,0,0,0-.016-.074,3.967,3.967,0,0,0-1.912-1.836.166.166,0,0,0-.132,0,4.157,4.157,0,0,0-1.886,1.833.168.168,0,0,0-.018.075h-.169Zm-1.088-.719h-5.01v-2.509h5.01Zm-4.648.719h4.286v2.409h-.157a.159.159,0,0,0-.016-.074,3.961,3.961,0,0,0-1.912-1.836.162.162,0,0,0-.131,0,4.15,4.15,0,0,0-1.888,1.833.161.161,0,0,0-.016.075h-.171Zm-1.087-.719h-5.01v-2.509h5.01Zm-4.649.719h4.286v2.409h-.157a.159.159,0,0,0-.016-.074,3.972,3.972,0,0,0-1.912-1.836.167.167,0,0,0-.133,0,4.15,4.15,0,0,0-1.888,1.832.164.164,0,0,0-.016.075h-.171Zm.169,3.892a3.212,3.212,0,0,1,.04-.508h.213a.372.372,0,0,0,.353-.393.39.39,0,0,0-.147-.753h0a3.955,3.955,0,0,1,1.519-1.394,3.722,3.722,0,0,1,1.532,1.394h-.022a.389.389,0,0,0-.147.753.358.358,0,0,0,0,.04.352.352,0,0,0,.351.353h.216a3.241,3.241,0,0,1,.038.508v3.743h-3.948Zm5.735,0a3.27,3.27,0,0,1,.04-.507h.213a.351.351,0,0,0,.353-.353.307.307,0,0,0,0-.04.39.39,0,0,0-.147-.753h0a3.957,3.957,0,0,1,1.519-1.394,3.734,3.734,0,0,1,1.532,1.394h-.022a.389.389,0,0,0-.147.753.33.33,0,0,0,0,.04.353.353,0,0,0,.353.353h.218a3.621,3.621,0,0,1,.036.508v3.743h-3.948Zm5.736,0a3.27,3.27,0,0,1,.04-.507h.214a.351.351,0,0,0,.353-.353.358.358,0,0,0,0-.04.39.39,0,0,0-.147-.753h0a3.96,3.96,0,0,1,1.519-1.394,3.745,3.745,0,0,1,1.532,1.394h-.02a.389.389,0,0,0-.147.753.358.358,0,0,0,0,.04.353.353,0,0,0,.353.353h.218a3.639,3.639,0,0,1,.036.508v3.743h-3.948Zm5.736,0a3.257,3.257,0,0,1,.04-.508h.214a.351.351,0,0,0,.351-.353.253.253,0,0,0,0-.04.389.389,0,0,0-.147-.753h0a3.96,3.96,0,0,1,1.519-1.394,3.746,3.746,0,0,1,1.532,1.394h-.022a.389.389,0,0,0-.147.753.358.358,0,0,0,0,.04.351.351,0,0,0,.351.353h.218a3.639,3.639,0,0,1,.036.508v3.743h-3.947Zm5.735,0a3.257,3.257,0,0,1,.04-.508h.214a.351.351,0,0,0,.353-.353.358.358,0,0,0,0-.04.39.39,0,0,0-.147-.753h0a3.957,3.957,0,0,1,1.519-1.394,3.732,3.732,0,0,1,1.532,1.394h-.022a.389.389,0,0,0-.147.753.358.358,0,0,0,0,.04.351.351,0,0,0,.351.353h.218a3.677,3.677,0,0,1,.036.508v3.743H1015.8Zm4.479-4.614h-5.01v-2.509h5.01Zm-27.5-5.585h28.36v.589H991.6v-.589Zm-28.653,5.585h-5.006v-2.509h5.018Zm-4.649.719h4.29v2.409H963.6a.175.175,0,0,0-.031-.1,4.174,4.174,0,0,0-1.876-1.809.166.166,0,0,0-.132,0,3.97,3.97,0,0,0-1.912,1.836.18.18,0,0,0-.015.074h-.162Zm9.389,2.238a.389.389,0,0,0-.147.753.358.358,0,0,0,0,.04.353.353,0,0,0,.353.353h.214a3.256,3.256,0,0,1,.04.508v3.743h-3.948v-3.737a3.445,3.445,0,0,1,.036-.508h.216a.353.353,0,0,0,.353-.353.307.307,0,0,0,0-.04.389.389,0,0,0-.147-.753h-.022a3.767,3.767,0,0,1,1.532-1.394,3.933,3.933,0,0,1,1.521,1.394Zm-26.425,1.659a3.463,3.463,0,0,1,.038-.508h.216a.353.353,0,0,0,.353-.353.358.358,0,0,0,0-.04.389.389,0,0,0-.147-.753h-.022a3.757,3.757,0,0,1,1.532-1.394,3.935,3.935,0,0,1,1.521,1.395h0a.389.389,0,0,0-.147.753.358.358,0,0,0,0,.04.353.353,0,0,0,.353.353h.214a3.24,3.24,0,0,1,.038.508v3.743h-3.95Zm5.736,0a3.446,3.446,0,0,1,.037-.508h.216a.353.353,0,0,0,.353-.353.18.18,0,0,0,0-.04.389.389,0,0,0-.147-.753h-.021a3.756,3.756,0,0,1,1.532-1.394,3.935,3.935,0,0,1,1.521,1.394h0a.389.389,0,0,0-.147.753.306.306,0,0,0,0,.04.353.353,0,0,0,.353.353h.215a3.461,3.461,0,0,1,.038.508v3.743h-3.946Zm5.736,0a3.43,3.43,0,0,1,.038-.508h.216a.353.353,0,0,0,.353-.353.205.205,0,0,0,0-.04.39.39,0,0,0-.147-.753h-.02a3.744,3.744,0,0,1,1.531-1.394,3.961,3.961,0,0,1,1.521,1.394h0a.389.389,0,0,0-.147.753.306.306,0,0,0,0,.04.353.353,0,0,0,.353.353h.215a3.444,3.444,0,0,1,.038.508v3.743h-3.948Zm5.736,0a3.462,3.462,0,0,1,.036-.508h.216a.353.353,0,0,0,.353-.353.307.307,0,0,0,0-.04.389.389,0,0,0-.147-.753h-.022a3.756,3.756,0,0,1,1.532-1.394,3.935,3.935,0,0,1,1.521,1.394h0a.389.389,0,0,0-.147.753.306.306,0,0,0,0,.04.353.353,0,0,0,.353.353h.214a3.479,3.479,0,0,1,.04.508v3.743h-3.948Zm-1.251-4.614h-5.019v-2.518H958.4Zm-4.648.719h4.29v2.409h-.167a.173.173,0,0,0-.031-.1,4.164,4.164,0,0,0-1.876-1.809.166.166,0,0,0-.132,0,3.97,3.97,0,0,0-1.912,1.836.184.184,0,0,0-.015.074h-.162Zm-1.087-.719h-5.018v-2.518h5.018Zm-4.648.719h4.29v2.409h-.167a.174.174,0,0,0-.031-.1,4.165,4.165,0,0,0-1.876-1.809.166.166,0,0,0-.132,0,3.97,3.97,0,0,0-1.912,1.836.182.182,0,0,0-.015.074h-.162Zm-1.619,2.409a.174.174,0,0,0-.031-.1,4.165,4.165,0,0,0-1.876-1.8.166.166,0,0,0-.132,0,3.97,3.97,0,0,0-1.912,1.836.182.182,0,0,0-.015.074h-.162v-2.41h4.29v2.409Zm.529-3.128h-5.01v-2.518h5.018Zm22.413,3.128a.174.174,0,0,0-.031-.1,4.164,4.164,0,0,0-1.876-1.809.166.166,0,0,0-.133,0,3.971,3.971,0,0,0-1.912,1.836.188.188,0,0,0-.015.074h-.162v-2.41h4.29v2.409Zm.529-3.128h-5.014v-2.518h5.018Zm-28.811,6.374a.4.4,0,0,0-.1-.012h.1ZM970.64,197.523Zm-28.353-9.151h28.355v8.711h0V188.97H941.057v-.588Zm-2.11,11.945h-.823V186.5h.823Zm-2.562-13.824h.821v13.824h-.821Zm.147-13.6h.532l.065,12.472H937.7Zm1.339,12.472-.212-12.472h.534l.342,12.472Zm.072-21.488.212,7.885h-.518l-.129-7.878Zm-.927,0,.041,7.885h-.521l.038-7.885Zm-1.376,0h.441l-.128,7.885h-.522Zm.294,9.01-.212,12.472h-.666l.344-12.472ZM935.708,185.359Zm.168,1.124h.823v13.824h-.823Zm5.18,14.442h0v1.55h0Zm29.587,1.55h0v-4.589h0v4.59Zm50.494,0h0v-1.542h0Zm5.18-2.162h-.824V186.5h.824Z" transform="translate(-933.806 -145.78)" fill="#5f9cfc"/>
          <path id="Path_50987" data-name="Path 50987" d="M1360.386,331h-6.209a.277.277,0,0,0,0,.553H1366.5a.277.277,0,0,0,0-.553Z" transform="translate(-1292.118 -290.54)" fill="#5f9cfc"/>
          <path id="Path_50988" data-name="Path 50988" d="M1354.143,259.6a4.743,4.743,0,0,1,2.671-6.565c.028.018.06.038.1.059-4.069,2.133-2.124,6.512-2.124,6.512h.837s-1.548-4.2,1.561-6.38h0a3.65,3.65,0,0,0,.389.14c-2.239,2.206-1.075,6.24-1.075,6.24h1.15s-.711-3.844.589-6.084a7.372,7.372,0,0,0,.8.094,25.318,25.318,0,0,0-.229,5.99h1.735a25.294,25.294,0,0,0-.231-5.995,7.426,7.426,0,0,0,.8-.1c1.3,2.237.589,6.09.589,6.09h1.148s1.167-4.037-1.083-6.247c.147-.045.277-.092.388-.138h0c3.12,2.175,1.57,6.386,1.57,6.386h.855s1.948-4.384-2.131-6.515a1.217,1.217,0,0,0,.147-.088,4.7,4.7,0,0,1,2.6,6.6h.475s2.5-4.6-2.985-6.666a11,11,0,0,1-1.964-1.523c-.634-.659-.736-.994-.916-1.064V249.9h.1s.147,0,.147-.13a.129.129,0,0,0-.133-.129h-.106v-.987h.036s.1,0,.1-.091a.093.093,0,0,0-.028-.066.092.092,0,0,0-.066-.026h-.043v-1.052a.122.122,0,0,0-.242,0v1.052h-.043a.091.091,0,0,0-.094.091c0,.091.1.091.1.091h.037v.992h-.106a.131.131,0,0,0-.094.037.133.133,0,0,0-.04.093c0,.128.148.129.148.129h.1v.448c-.181.069-.282.4-.918,1.064a10.96,10.96,0,0,1-1.964,1.523l.021.016c-5.493,2.024-3.032,6.637-3.032,6.637Z" transform="translate(-1291.462 -219.153)" fill="#5f9cfc"/>
          <rect id="Rectangle_4256" data-name="Rectangle 4256" width="3.994" height="1.646" transform="translate(81.976 46.097)" fill="#5f9cfc"/>
          <rect id="Rectangle_4257" data-name="Rectangle 4257" width="3.994" height="1.646" transform="translate(76.24 46.097)" fill="#5f9cfc"/>
          <rect id="Rectangle_4258" data-name="Rectangle 4258" width="3.994" height="1.646" transform="translate(70.505 46.097)" fill="#5f9cfc"/>
          <rect id="Rectangle_4259" data-name="Rectangle 4259" width="3.994" height="1.646" transform="translate(64.769 46.097)" fill="#5f9cfc"/>
          <rect id="Rectangle_4260" data-name="Rectangle 4260" width="3.994" height="1.646" transform="translate(59.034 46.097)" fill="#5f9cfc"/>
        </g>
      </g>
    </g>
  </g>
</svg>
