<svg id="Group_1474" data-name="Group 1474" xmlns="http://www.w3.org/2000/svg" width="97.957" height="58.404" viewBox="0 0 97.957 58.404">
  <path id="Path_41991" data-name="Path 41991" d="M400.549,198.647c-7.446-1.878-25.769-2.227-25.769-2.227v31.247s15.4-.09,22.44-.337a144.561,144.561,0,0,0,16.6-1.327V203.878A57.914,57.914,0,0,0,400.549,198.647Zm-11.6,2.531-1.507-.079v-2.328l1.507.079Zm4.825,6.805h-1.5V205.5a1.952,1.952,0,0,1,.157-.776,1.727,1.727,0,0,1,1.327,1.732v1.53Zm5.028-5.748-.776-.09V199.9l.776.09Z" transform="translate(-315.865 -169.289)" fill="#568ce3"/>
  <path id="Path_41992" data-name="Path 41992" d="M392.133,202.89a1.7,1.7,0,0,0-1.653,1.024,1.727,1.727,0,0,1,1.327,1.732v1.519h2.1v-2.486A1.742,1.742,0,0,0,392.133,202.89Z" transform="translate(-313.905 -168.482)" fill="#dcdad7"/>
  <path id="Path_41993" data-name="Path 41993" d="M386.04,198.15v.394l1.507.09v2.328l.551.034v-2.733Z" transform="translate(-314.46 -169.073)" fill="#dcdad7"/>
  <path id="Path_41994" data-name="Path 41994" d="M412.731,206.789v2.7l-.731-.36v-2.79c-.169-.09-.337-.191-.529-.281v2.812l-1.069-.349v-2.981c-.259-.112-.529-.225-.81-.349v3.858l-1.215-.225v-4.083q-.472-.169-.979-.337V207.4l-1.98-.225v-3.341c-.472-.124-.979-.247-1.5-.36v3.352l-2.126-.247v-3.543q-.776-.135-1.586-.27v3.386l-2.812-.056v-3.734c-.506-.067-1-.124-1.507-.191v4.612l-3.386-.056v-4.915c-.675-.067-1.339-.124-2-.18v4.308l-3.6-.056v-4.511c-.709-.045-1.406-.079-2.081-.124v4.972l-4.151-.067v-5.084c-3.543-.124-5.894-.124-5.894-.124v26.141s15.4-.09,22.44-.337a144.561,144.561,0,0,0,16.6-1.327V207.565A12.464,12.464,0,0,0,412.731,206.789Z" transform="translate(-315.865 -168.725)" fill="#609cfc"/>
  <path id="Path_41995" data-name="Path 41995" d="M403.272,203.272l-.922-.225V200.73l.922.214Z" transform="translate(-312.424 -168.751)" fill="#dcdad7"/>
  <path id="Path_41996" data-name="Path 41996" d="M407.225,204.788l-.675-.247V202.46l.675.236Z" transform="translate(-311.9 -168.535)" fill="#dcdad7"/>
  <path id="Path_41997" data-name="Path 41997" d="M395.45,199.08v.484l.776.09v2.25l.776.09V199.26Z" transform="translate(-313.285 -168.957)" fill="#dcdad7"/>
  <path id="Path_41998" data-name="Path 41998" d="M406.13,214.8v-4.274c0-.877-.4-1.6-.821-1.6s-.8.72-.8,1.6v4.128C405.095,214.7,405.635,214.757,406.13,214.8Z" transform="translate(-312.154 -167.728)" fill="#fff"/>
  <path id="Path_41999" data-name="Path 41999" d="M408.664,215.007v-3.734c0-.81-.214-1.462-.427-1.462s-.416.652-.416,1.462v3.644C408.135,214.95,408.416,214.973,408.664,215.007Z" transform="translate(-311.741 -167.618)" fill="#fff"/>
  <path id="Path_42000" data-name="Path 42000" d="M404.077,214.71v-4.927c0-1.012-.517-1.833-1.035-1.833s-1.012.821-1.012,1.833v4.758C402.75,214.6,403.436,214.654,404.077,214.71Z" transform="translate(-312.464 -167.85)" fill="#fff"/>
  <path id="Path_42001" data-name="Path 42001" d="M407.69,214.958v-4.2c0-.855-.315-1.552-.641-1.552s-.619.7-.619,1.552v4.061C406.891,214.868,407.307,214.913,407.69,214.958Z" transform="translate(-311.915 -167.693)" fill="#fff"/>
  <path id="Path_42002" data-name="Path 42002" d="M387.266,214.056h2.1V208.41a2.016,2.016,0,0,0-1.912-1.98,1.978,1.978,0,0,0-1.867,1.98v5.624C386.152,214.034,386.7,214.045,387.266,214.056Z" transform="translate(-314.516 -168.04)" fill="#fff"/>
  <path id="Path_42003" data-name="Path 42003" d="M393.906,214.134V208.96a1.847,1.847,0,0,0-1.665-1.89,1.821,1.821,0,0,0-1.631,1.89v5.1C391.746,214.078,392.86,214.1,393.906,214.134Z" transform="translate(-313.889 -167.96)" fill="#fff"/>
  <path id="Path_42004" data-name="Path 42004" d="M398.013,214.315v-5.287a1.872,1.872,0,0,0-1.564-1.968,1.831,1.831,0,0,0-1.53,1.968v5.152C396.067,214.225,397.125,214.27,398.013,214.315Z" transform="translate(-313.351 -167.961)" fill="#fff"/>
  <path id="Path_42005" data-name="Path 42005" d="M401.355,214.5v-5.073c0-1.024-.652-1.856-1.294-1.856s-1.271.832-1.271,1.856v4.9Q400.106,214.415,401.355,214.5Z" transform="translate(-312.868 -167.898)" fill="#fff"/>
  <path id="Path_42006" data-name="Path 42006" d="M404.077,219.083c0-1.012-.517-1.833-1.035-1.833s-1.012.821-1.012,1.833v5.2c.731-.056,1.406-.113,2.036-.169v-5.028Z" transform="translate(-312.464 -166.689)" fill="#fff"/>
  <path id="Path_42007" data-name="Path 42007" d="M401.355,219.036c0-1.024-.652-1.856-1.294-1.856s-1.271.832-1.271,1.856v5.5c.9-.045,1.755-.1,2.565-.157Z" transform="translate(-312.868 -166.698)" fill="#fff"/>
  <path id="Path_42008" data-name="Path 42008" d="M408.236,217.95c-.214,0-.416.652-.416,1.462v4.162c.326-.045.6-.079.844-.112v-4.049C408.664,218.6,408.45,217.95,408.236,217.95Z" transform="translate(-311.741 -166.601)" fill="#fff"/>
  <path id="Path_42009" data-name="Path 42009" d="M398.013,218.638a1.872,1.872,0,0,0-1.564-1.968,1.831,1.831,0,0,0-1.53,1.968V224.8c1.08-.045,2.115-.09,3.093-.135Z" transform="translate(-313.351 -166.762)" fill="#fff"/>
  <path id="Path_42010" data-name="Path 42010" d="M406.13,219.247c0-.877-.4-1.6-.821-1.6s-.8.72-.8,1.6v4.758c.585-.056,1.125-.112,1.62-.157Z" transform="translate(-312.154 -166.639)" fill="#fff"/>
  <path id="Path_42011" data-name="Path 42011" d="M393.906,218.57a1.847,1.847,0,0,0-1.665-1.89,1.821,1.821,0,0,0-1.631,1.89v6.366c1.17-.022,2.283-.056,3.284-.079V218.57Z" transform="translate(-313.889 -166.76)" fill="#fff"/>
  <path id="Path_42012" data-name="Path 42012" d="M407.69,219.262c0-.855-.315-1.552-.641-1.552s-.619.7-.619,1.552v4.522c.461-.045.889-.1,1.26-.146Z" transform="translate(-311.915 -166.632)" fill="#fff"/>
  <path id="Path_42013" data-name="Path 42013" d="M392.2,220.845l-.349-8-5.017-.045-3.014-8.144V199.08H365.68v28.255H375.9l18.661-.236ZM371.911,211.6H367.75v-1.069c0-1.586.877-2.88,1.968-2.88h.225c1.091,0,1.968,1.294,1.968,2.88Zm7.784,0h-4.96V208.09a2.985,2.985,0,0,1,1.575-.439h.349a3.051,3.051,0,0,1,3.048,3.048v.9Z" transform="translate(-317.001 -168.957)" fill="#609cfc"/>
  <path id="Path_42014" data-name="Path 42014" d="M377.117,204.31h-.349a3.051,3.051,0,0,0-3.048,3.048v.079a2.985,2.985,0,0,1,1.575-.439h.349a3.051,3.051,0,0,1,3.048,3.048v.911h1.473V207.37A3.046,3.046,0,0,0,377.117,204.31Z" transform="translate(-315.997 -168.304)" fill="#dcdad7"/>
  <path id="Path_42015" data-name="Path 42015" d="M369.506,204.62h-.281a2.7,2.7,0,0,0-2.475,2.88v3.4h.866v-1.069c0-1.586.877-2.88,1.968-2.88h.225c1.091,0,1.968,1.294,1.968,2.88V210.9h.214v-3.4A2.708,2.708,0,0,0,369.506,204.62Z" transform="translate(-316.867 -168.266)" fill="#dcdad7"/>
  <path id="Path_42016" data-name="Path 42016" d="M387.355,218.856a2.391,2.391,0,0,0-2.4-2.4h-.484a2.391,2.391,0,0,0-2.4,2.4v6.209l5.275-.056Z" transform="translate(-314.954 -166.788)" fill="#fff"/>
  <path id="Path_42017" data-name="Path 42017" d="M380.127,225.11v-6.254a2.552,2.552,0,0,0-2.688-2.4h-.54a2.552,2.552,0,0,0-2.688,2.4v6.31h.63Z" transform="translate(-315.936 -166.788)" fill="#fff"/>
  <path id="Path_42018" data-name="Path 42018" d="M381.189,221.772v-7.4l-6.693.112-3.228-8.29v-6.456l-6.681.281-3.4-7.8v-7.131l-2.452.169s-4.454-7.626-7.435-12.71a62.623,62.623,0,0,0-9.876,3.026,44.934,44.934,0,0,0-18,13.217v40.19s8.267,1.552,24.566,1.665c10.449.079,37.524-.045,37.524-.045Zm-38.57-19.133c-.574.124-1.159.259-1.732.394v-3.1c0-1.451.574-2.666,1.35-2.981a4.747,4.747,0,0,1,.382,1.912Zm7.188-1.282c-.3.034-.607.079-.911.112-.709.09-1.429.2-2.137.337v-3.228c0-1.7,1-3.071,2.238-3.071h.3a3.759,3.759,0,0,1,.495,1.923v3.926Zm8.324-.866c-1.417.124-2.835.259-4.241.4v-3.7a2.9,2.9,0,0,1,2.677-3.071h.382a2.4,2.4,0,0,1,.754.124,3.39,3.39,0,0,1,.427,1.665v4.578Z" transform="translate(-322.274 -172.269)" fill="#609cfc"/>
  <path id="Path_42019" data-name="Path 42019" d="M361.286,188.768c-2.6.315-4.859.664-7.435,1.091-3.014.506-6.006,1.069-8.987,1.743a78.87,78.87,0,0,0-9.055,2.531,35.591,35.591,0,0,0-7.682,3.712,16.877,16.877,0,0,0-3.341,2.778,6.689,6.689,0,0,0-1.26,1.89v2.5a2.367,2.367,0,0,1-.832-1.541,4.083,4.083,0,0,1,.315-2.16,9.609,9.609,0,0,1,2.711-3.442,28.158,28.158,0,0,1,3.633-2.666,33.864,33.864,0,0,1,3.487-1.923,61.976,61.976,0,0,1,8.729-3.217c2.958-.877,5.961-1.608,8.987-2.25,2.846-.607,5.7-1.125,8.582-1.53.72-.1,1.44-.2,2.16-.292C361.286,187.059,361.286,187.655,361.286,188.768Z" transform="translate(-322.371 -170.591)" fill="#568ce3"/>
  <path id="Path_42020" data-name="Path 42020" d="M352.4,174.381a75.792,75.792,0,0,0-7.817,2.193,55.383,55.383,0,0,0-8.819,3.993,38,38,0,0,0-6.963,4.769,46.48,46.48,0,0,0-3.734,3.959c-.517.6-1.372,1.676-1.586,1.968-.461,0-.529-1.732-.382-2.092a13.131,13.131,0,0,1,2.7-3.374,45.1,45.1,0,0,1,3.588-3.3,45.631,45.631,0,0,1,3.993-2.913,48.324,48.324,0,0,1,7.919-4.128,80.44,80.44,0,0,1,9.921-3.161C351.443,172.761,351.848,173.492,352.4,174.381Z" transform="translate(-322.324 -172.3)" fill="#568ce3"/>
  <path id="Path_42021" data-name="Path 42021" d="M345.386,175.31a57.729,57.729,0,0,0-9.347,4.263,40.734,40.734,0,0,0-7.39,5.1,49.2,49.2,0,0,0-3.959,4.229c-.461.54-1.181,1.451-1.53,1.9.068.191.169.326.292.326.225-.281,1.069-1.372,1.586-1.968a46.5,46.5,0,0,1,3.734-3.959,38.789,38.789,0,0,1,6.963-4.769,55.841,55.841,0,0,1,8.818-3.993,80.478,80.478,0,0,1,7.817-2.193c-.18-.292-.349-.574-.495-.821C349.829,173.926,347.838,174.455,345.386,175.31Z" transform="translate(-322.308 -172.16)" fill="#4978c4"/>
  <path id="Path_42022" data-name="Path 42022" d="M371.4,201.4c-2.261.112-4.016.18-6.276.3-3.048.158-6.108.326-9.156.54-1.552.113-3.1.236-4.668.371s-3.093.326-4.634.517c-3.093.394-6.164.877-9.223,1.474a64.577,64.577,0,0,0-8.819,2.261,18.976,18.976,0,0,0-3.633,1.676,5.035,5.035,0,0,0-1.451,1.237v1.428a1.656,1.656,0,0,1-1.1-1.327,2.935,2.935,0,0,1,.517-2.036,8.889,8.889,0,0,1,3.206-2.666,42.042,42.042,0,0,1,8.414-3.419c2.947-.911,5.95-1.665,8.965-2.317,1.811-.394,3.633-.754,5.467-1,3.082-.4,6.164-.709,9.257-.979,2.958-.259,5.939-.461,8.886-.585,1.507-.067,2.722-.1,4.229-.169C371.4,198.184,371.4,200.219,371.4,201.4Z" transform="translate(-322.402 -169.253)" fill="#568ce3"/>
  <path id="Path_42023" data-name="Path 42023" d="M381.3,214.854l-3.026.034c-2.655.034-5.32.056-7.975.09l-8.965.1c-3.149.045-6.31.09-9.46.157-3.093.067-6.186.2-9.28.337-3.06.135-6.108.281-9.156.506-1.519.113-3.048.225-4.567.36-1.462.124-2.9.349-4.364.506-.18.022-.36.034-.551.056-.169.022-.247.034-.416.068v.45a.888.888,0,0,1-.765-.169.728.728,0,0,1-.09-.9,3.49,3.49,0,0,1,1.507-1.282,10.2,10.2,0,0,1,2.013-.776c.731-.214,1.462-.4,2.193-.585a85.328,85.328,0,0,1,8.4-1.5c3.093-.427,6.2-.821,9.313-1.114,2.643-.247,5.3-.36,7.952-.461q4.724-.186,9.448-.315,4.522-.118,9.043-.225c2.733-.056,5.455-.1,8.189-.146.259,0,.315-.011.574-.011C381.3,211.739,381.3,213.932,381.3,214.854Z" transform="translate(-322.381 -167.589)" fill="#568ce3"/>
  <path id="Path_42024" data-name="Path 42024" d="M340.057,185.4l-2.137.63v-3.284l2.137-.641Z" transform="translate(-320.465 -171.077)" fill="#fff"/>
  <path id="Path_42025" data-name="Path 42025" d="M330.824,189.382l-1.114.54V187.11l1.114-.54Z" transform="translate(-321.49 -170.519)" fill="#fff"/>
  <path id="Path_42026" data-name="Path 42026" d="M326.021,193.291l-.731.551V191.03l.731-.54Z" transform="translate(-322.042 -170.029)" fill="#fff"/>
  <path id="Path_42027" data-name="Path 42027" d="M331.381,220.213c0-1.654-.529-3-1.181-3h-.169c-.652,0-1.181,1.339-1.181,3v3.971c.776.079,1.62.157,2.531.225v-4.2Z" transform="translate(-321.597 -166.694)" fill="#fff"/>
  <path id="Path_42028" data-name="Path 42028" d="M328.122,224.063v-3.746c0-1.631-.36-2.947-.81-2.947H327.2c-.45,0-.81,1.316-.81,2.947v3.543C326.9,223.928,327.481,224,328.122,224.063Z" transform="translate(-321.905 -166.674)" fill="#fff"/>
  <path id="Path_42029" data-name="Path 42029" d="M325.966,223.735v-2.958c0-1.631-.236-2.947-.529-2.947h-.079c-.292,0-.529,1.316-.529,2.947v2.8C325.167,223.623,325.539,223.679,325.966,223.735Z" transform="translate(-322.099 -166.617)" fill="#fff"/>
  <path id="Path_42030" data-name="Path 42030" d="M335.653,220.081c0-1.7-.742-3.071-1.653-3.071h-.236c-.911,0-1.653,1.372-1.653,3.071v4.443c1.091.079,2.272.157,3.554.236v-4.679Z" transform="translate(-321.191 -166.719)" fill="#fff"/>
  <path id="Path_42031" data-name="Path 42031" d="M347.413,225.194V219.4c0-1.7-1-3.071-2.238-3.071h-.326c-1.237,0-2.238,1.372-2.238,3.071v5.748c.967.022,1.957.034,2.992.034C346.153,225.194,346.761,225.194,347.413,225.194Z" transform="translate(-319.88 -166.804)" fill="#fff"/>
  <path id="Path_42032" data-name="Path 42032" d="M340.974,219.881c0-1.7-.911-3.071-2.036-3.071h-.292c-1.125,0-2.036,1.372-2.036,3.071v4.983c1.361.067,2.823.124,4.364.169Z" transform="translate(-320.629 -166.744)" fill="#fff"/>
  <path id="Path_42033" data-name="Path 42033" d="M363.486,218.991a3.041,3.041,0,0,0-3.014-3.071h-.427a3.042,3.042,0,0,0-3.015,3.071v6.254c2.137,0,4.319-.011,6.456-.011Z" transform="translate(-318.08 -166.855)" fill="#fff"/>
  <path id="Path_42034" data-name="Path 42034" d="M372.391,218.926a3.116,3.116,0,0,0-3.116-3.116h-.45a3.116,3.116,0,0,0-3.116,3.116v6.333c2.4-.011,4.668,0,6.67,0v-6.333Z" transform="translate(-316.997 -166.869)" fill="#fff"/>
  <path id="Path_42035" data-name="Path 42035" d="M354.917,225.227v-6.007a2.9,2.9,0,0,0-2.677-3.071h-.383a2.888,2.888,0,0,0-2.677,3.071v6.007Z" transform="translate(-319.06 -166.826)" fill="#fff"/>
  <path id="Path_42036" data-name="Path 42036" d="M340.642,212.236v-4.2c0-1.7-.855-3.071-1.9-3.071h-.27c-1.046,0-1.9,1.372-1.9,3.071v4.713C337.931,212.574,339.281,212.394,340.642,212.236Z" transform="translate(-320.634 -168.222)" fill="#fff"/>
  <path id="Path_42037" data-name="Path 42037" d="M343.632,211.96c1.147-.113,2.283-.191,3.431-.259v-4.6c0-1.7-1-3.071-2.238-3.071H344.5c-1.237,0-2.238,1.372-2.238,3.071V212.1Z" transform="translate(-319.924 -168.339)" fill="#fff"/>
  <path id="Path_42038" data-name="Path 42038" d="M350.75,211.591c1.316-.056,2.621-.1,3.937-.146v-5.084a2.9,2.9,0,0,0-2.677-3.071h-.382a2.888,2.888,0,0,0-2.677,3.071v5.309C349.546,211.636,350.154,211.614,350.75,211.591Z" transform="translate(-319.089 -168.432)" fill="#fff"/>
  <path id="Path_42039" data-name="Path 42039" d="M335.442,212.868v-3.937c0-1.7-.7-3.071-1.564-3.071h-.225c-.866,0-1.564,1.372-1.564,3.071v4.443C333.215,213.194,334.328,213.025,335.442,212.868Z" transform="translate(-321.193 -168.111)" fill="#fff"/>
  <path id="Path_42040" data-name="Path 42040" d="M359.19,211.347c1.428-.045,2.868-.079,4.3-.112v-5.444a3.041,3.041,0,0,0-3.014-3.071h-.427a3.041,3.041,0,0,0-3.015,3.071v5.624Z" transform="translate(-318.08 -168.503)" fill="#fff"/>
  <path id="Path_42041" data-name="Path 42041" d="M325.816,214.644v-3.307c0-1.631-.236-2.947-.529-2.947h-.079c-.292,0-.529,1.316-.529,2.947v3.689C325.051,214.88,325.434,214.756,325.816,214.644Z" transform="translate(-322.118 -167.795)" fill="#fff"/>
  <path id="Path_42042" data-name="Path 42042" d="M331.261,213.466v-3.644c0-1.654-.529-2.992-1.181-2.992h-.169c-.652,0-1.181,1.339-1.181,2.992v4.151Q330,213.686,331.261,213.466Z" transform="translate(-321.612 -167.99)" fill="#fff"/>
  <path id="Path_42043" data-name="Path 42043" d="M327.909,214.141c.068-.022.146-.034.214-.056V210.5c0-1.631-.36-2.947-.81-2.947H327.2c-.45,0-.81,1.316-.81,2.947v4.027C326.885,214.389,327.391,214.265,327.909,214.141Z" transform="translate(-321.905 -167.9)" fill="#fff"/>
  <path id="Path_42044" data-name="Path 42044" d="M339.175,197.349c0-1.451.574-2.666,1.35-2.981-.326-.709-.821-1.159-1.372-1.159H338.9c-.967,0-1.755,1.372-1.755,3.071v4.679l2.036-.506v-3.1Z" transform="translate(-320.562 -169.69)" fill="#dcdad7"/>
  <path id="Path_42045" data-name="Path 42045" d="M350.676,194.933a2.9,2.9,0,0,1,2.677-3.071h.382a2.4,2.4,0,0,1,.754.124,2.61,2.61,0,0,0-2.25-1.406h-.382a2.888,2.888,0,0,0-2.677,3.071V198.8c.495-.056,1-.112,1.5-.157Z" transform="translate(-319.06 -170.018)" fill="#dcdad7"/>
  <path id="Path_42046" data-name="Path 42046" d="M333.325,202c.754-.236,1.518-.461,2.283-.675v-3.532c0-1.6-.652-2.891-1.462-2.891h-.214c-.81,0-1.462,1.294-1.462,2.891v4.466C332.763,202.166,333.044,202.076,333.325,202Z" transform="translate(-321.146 -169.479)" fill="#dcdad7"/>
  <path id="Path_42047" data-name="Path 42047" d="M344.366,196.158c0-1.7,1-3.071,2.238-3.071h.3a2.074,2.074,0,0,0-1.743-1.147h-.326c-1.237,0-2.238,1.372-2.238,3.071v4.713l1.755-.337v-3.228Z" transform="translate(-319.881 -169.848)" fill="#dcdad7"/>
  <path id="Path_42048" data-name="Path 42048" d="M328.11,203.793v-2.846c0-1.631-.337-2.947-.754-2.947h-.112c-.416,0-.754,1.316-.754,2.947v3.622Q327.283,204.164,328.11,203.793Z" transform="translate(-321.892 -169.092)" fill="#dcdad7"/>
  <path id="Path_42049" data-name="Path 42049" d="M325.846,204.859c.034-.022.068-.034.1-.056v-2.486c0-1.631-.2-2.947-.45-2.947h-.068c-.247,0-.45,1.316-.45,2.947v3.06C325.272,205.185,325.565,205.017,325.846,204.859Z" transform="translate(-322.08 -168.921)" fill="#dcdad7"/>
  <path id="Path_42050" data-name="Path 42050" d="M331.355,202.57v-3.116c0-1.609-.472-2.925-1.069-2.925h-.158c-.585,0-1.069,1.3-1.069,2.925v3.971C329.825,203.121,330.59,202.84,331.355,202.57Z" transform="translate(-321.571 -169.275)" fill="#dcdad7"/>
</svg>
