<?xml version="1.0" encoding="utf-8"?>
<!-- Generator: Adobe Illustrator 26.5.0, SVG Export Plug-In . SVG Version: 6.00 Build 0)  -->
<svg version="1.1" id="MS-symbol" width="150.94" height="60.94" xmlns="http://www.w3.org/2000/svg" xmlns:xlink="http://www.w3.org/1999/xlink" x="0px" y="0px"
	 viewBox="0 0 337.6 81.3" style="enable-background:new 0 0 337.6 81.3;" xml:space="preserve">
<style type="text/css">
	.st0{fill:#F25022;}
	.st1{fill:#7FBA00;}
	.st2{fill:#00A4EF;}
	.st3{fill:#FFB900;}
	.st4{fill:#737373;}
</style>
<g>
	<rect x="11.8" y="4.7" class="st0" width="34.2" height="34.2"/>
	<rect x="49.6" y="4.7" class="st1" width="34.2" height="34.2"/>
	<rect x="11.8" y="42.5" class="st2" width="34.2" height="34.2"/>
	<rect x="49.6" y="42.5" class="st3" width="34.2" height="34.2"/>
</g>
<path class="st4" d="M147.5,8.7v39.1h-6.8V17.1h-0.1l-12.1,30.6H124l-12.4-30.6h-0.1v30.6h-6.2v-39h9.8l11.2,28.9h0.2l11.8-28.9
	C138.3,8.7,147.5,8.7,147.5,8.7z M153.1,11.7c0-1.1,0.4-2,1.2-2.7s1.7-1.1,2.8-1.1c1.2,0,2.2,0.4,2.9,1.1s1.2,1.6,1.2,2.7
	s-0.4,2-1.2,2.7s-1.7,1.1-2.9,1.1s-2.1-0.4-2.8-1.1C153.6,13.6,153.1,12.6,153.1,11.7z M160.5,19.7v28h-6.6v-28H160.5z M180.4,42.9
	c1,0,2.1-0.2,3.3-0.7s2.3-1.1,3.3-1.8v6.1c-1.1,0.6-2.3,1.1-3.6,1.4c-1.4,0.3-2.8,0.5-4.4,0.5c-4.2,0-7.5-1.3-10-3.9
	c-2.6-2.6-3.9-6-3.9-9.9c0-4.5,1.4-8.2,4-11.1s6.3-4.3,11.2-4.3c1.3,0,2.5,0.2,3.7,0.5c1.3,0.3,2.3,0.7,3,1.1v6.3
	c-1-0.7-2.1-1.4-3.1-1.7c-1.1-0.4-2.2-0.6-3.3-0.6c-2.6,0-4.7,0.8-6.3,2.5s-2.4,4-2.4,6.9c0,2.8,0.8,5.1,2.4,6.6
	S177.8,42.9,180.4,42.9z M205.7,19.2c0.5,0,1,0,1.4,0.1c0.5,0.1,0.8,0.2,1.1,0.3v6.7c-0.4-0.3-0.8-0.5-1.5-0.7s-1.4-0.4-2.4-0.4
	c-1.6,0-3,0.7-4.1,2.1s-1.7,3.4-1.7,6.3v14.1h-6.6v-28h6.6v4.4h0.1c0.6-1.5,1.5-2.7,2.7-3.6C202.5,19.7,204,19.2,205.7,19.2z
	 M208.6,34.2c0-4.6,1.4-8.3,3.9-11c2.6-2.7,6.2-4.1,10.8-4.1c4.3,0,7.8,1.3,10.2,3.9s3.7,6.1,3.7,10.6s-1.4,8.1-3.9,10.8
	c-2.6,2.7-6.1,4.1-10.7,4.1c-4.3,0-7.8-1.3-10.3-3.8C209.8,42,208.6,38.5,208.6,34.2z M215.4,33.9c0,2.9,0.6,5.2,2,6.7
	s3.3,2.4,5.7,2.4s4.2-0.7,5.5-2.4c1.3-1.5,1.9-3.8,1.9-6.9c0-3-0.6-5.2-1.9-6.9c-1.3-1.5-3.2-2.4-5.4-2.4c-2.4,0-4.2,0.8-5.6,2.4
	C216.1,28.6,215.4,30.9,215.4,33.9z M247.1,27.1c0,0.9,0.3,1.7,0.9,2.3s1.9,1.2,4,2c2.6,1.1,4.5,2.3,5.5,3.5
	c1.1,1.4,1.6,2.9,1.6,4.8c0,2.6-1,4.7-3.1,6.3c-2,1.6-4.8,2.4-8.2,2.4c-1.2,0-2.4-0.2-3.9-0.5c-1.4-0.3-2.6-0.6-3.6-1.1v-6.5
	c1.2,0.8,2.5,1.5,3.9,2s2.6,0.7,3.8,0.7c1.4,0,2.6-0.2,3.3-0.6c0.7-0.5,1.1-1.1,1.1-2.1c0-0.9-0.4-1.6-1.1-2.4
	c-0.7-0.6-2.2-1.4-4.2-2.2c-2.4-1-4.2-2.2-5.2-3.4c-1-1.3-1.5-2.9-1.5-4.9c0-2.5,1-4.6,3-6.2c2-1.6,4.6-2.4,7.8-2.4
	c1,0,2.1,0.1,3.3,0.4s2.3,0.5,3.1,0.8v6.4c-0.9-0.5-1.9-1.1-3.1-1.5c-1.2-0.5-2.4-0.6-3.4-0.6c-1.3,0-2.3,0.3-2.9,0.7
	C247.4,25.6,247.1,26.2,247.1,27.1z M261.9,34.2c0-4.6,1.4-8.3,3.9-11c2.6-2.7,6.2-4.1,10.8-4.1c4.3,0,7.8,1.3,10.2,3.9
	s3.7,6.1,3.7,10.6s-1.4,8.1-3.9,10.8c-2.6,2.7-6.1,4.1-10.7,4.1c-4.3,0-7.8-1.3-10.3-3.8C263.2,42,261.9,38.5,261.9,34.2z
	 M268.8,33.9c0,2.9,0.6,5.2,2,6.7s3.3,2.4,5.7,2.4c2.4,0,4.2-0.7,5.5-2.4c1.3-1.5,1.9-3.8,1.9-6.9c0-3-0.6-5.2-1.9-6.9
	c-1.3-1.5-3.2-2.4-5.4-2.4c-2.4,0-4.2,0.8-5.6,2.4C269.5,28.6,268.8,30.9,268.8,33.9z M312.5,25.1h-9.9v22.6H296V25.1h-4.7v-5.4h4.7
	v-3.9c0-2.9,1-5.3,2.9-7.2s4.3-2.8,7.3-2.8c0.8,0,1.5,0.1,2.2,0.1c0.6,0,1.2,0.2,1.6,0.4V12c-0.2-0.1-0.6-0.3-1.2-0.5
	s-1.2-0.3-1.9-0.3c-1.4,0-2.4,0.5-3.2,1.3s-1.1,2.2-1.1,3.8v3.3h9.9v-6.3l6.6-2v8.3h6.7V25h-6.7v13.1c0,1.7,0.4,2.9,0.9,3.6
	c0.6,0.7,1.6,1.1,3,1.1c0.4,0,0.8-0.1,1.4-0.3c0.5-0.2,1-0.4,1.4-0.6v5.4c-0.5,0.3-1.1,0.5-2.1,0.6c-1,0.2-1.9,0.3-2.9,0.3
	c-2.8,0-4.9-0.7-6.2-2.2c-1.4-1.4-2.1-3.7-2.1-6.7L312.5,25.1L312.5,25.1z"/>
<g>
	<path class="st4" d="M105.3,75.3V57.9h7.2c1.5,0,2.9,0.2,4,0.7s2,1.2,2.6,2.1c0.6,0.9,0.9,2,0.9,3.3c0,1.3-0.3,2.4-0.9,3.3
		s-1.4,1.6-2.6,2.1c-1.1,0.5-2.4,0.7-4,0.7h-5.4l1.4-1.5v6.5h-3.2V75.3z M108.6,69.1l-1.4-1.6h5.2c1.4,0,2.5-0.3,3.2-0.9
		s1.1-1.5,1.1-2.6s-0.4-2-1.1-2.6s-1.8-0.9-3.2-0.9h-5.2l1.4-1.6V69.1z"/>
	<path class="st4" d="M126.8,75.5c-1,0-1.9-0.2-2.6-0.5s-1.3-0.8-1.7-1.4s-0.6-1.3-0.6-2.1c0-0.7,0.2-1.4,0.5-2
		c0.4-0.6,0.9-1.1,1.8-1.4c0.8-0.3,1.9-0.5,3.2-0.5h3.9v2.1h-3.6c-1.1,0-1.8,0.2-2.1,0.5c-0.4,0.3-0.5,0.8-0.5,1.3
		c0,0.6,0.2,1,0.7,1.3c0.4,0.3,1.1,0.5,1.9,0.5c0.8,0,1.4-0.2,2.1-0.5c0.6-0.3,1-0.9,1.3-1.5l0.5,1.9c-0.3,0.8-0.8,1.4-1.6,1.8
		C128.9,75.3,127.9,75.5,126.8,75.5z M130.9,75.3v-2.7l-0.2-0.6v-4.7c0-0.9-0.3-1.6-0.8-2.1s-1.4-0.8-2.5-0.8
		c-0.7,0-1.5,0.1-2.2,0.3c-0.7,0.2-1.3,0.6-1.8,1l-1.2-2.3c0.7-0.5,1.6-1,2.6-1.2c1-0.3,2-0.4,3.1-0.4c1.9,0,3.4,0.5,4.5,1.4
		s1.6,2.3,1.6,4.3v7.8L130.9,75.3L130.9,75.3z"/>
	<path class="st4" d="M137.9,75.3V62h3v3.7l-0.3-1.1c0.4-0.9,1-1.6,1.9-2c0.9-0.5,1.9-0.7,3.2-0.7v3c-0.1,0-0.3-0.1-0.4-0.1
		s-0.2,0-0.3,0c-1.2,0-2.1,0.3-2.8,1s-1,1.7-1,3.1v6.4C141.2,75.3,137.9,75.3,137.9,75.3z"/>
	<path class="st4" d="M146.9,64.6v-2.5h8.9v2.5H146.9z M153.7,75.5c-1.5,0-2.6-0.4-3.4-1.1c-0.8-0.8-1.2-1.9-1.2-3.3v-12h3.1V71
		c0,0.6,0.2,1.1,0.5,1.5c0.3,0.3,0.8,0.5,1.4,0.5c0.7,0,1.3-0.2,1.7-0.5l0.9,2.2c-0.4,0.3-0.8,0.5-1.3,0.7
		C154.8,75.4,154.3,75.5,153.7,75.5z"/>
	<path class="st4" d="M166.8,61.9c1.1,0,2,0.2,2.9,0.6c0.8,0.4,1.5,1,2,1.9s0.7,2,0.7,3.3v7.6h-3.1v-7.2c0-1.2-0.3-2.1-0.8-2.6
		c-0.6-0.6-1.3-0.9-2.3-0.9c-0.7,0-1.4,0.1-1.9,0.4c-0.6,0.3-1,0.7-1.3,1.3c-0.3,0.6-0.5,1.3-0.5,2.2v6.7h-3.1V62h3v3.6l-0.5-1.1
		c0.5-0.8,1.1-1.5,2-2C164.6,62.1,165.6,61.9,166.8,61.9z"/>
	<path class="st4" d="M182.6,75.5c-1.5,0-2.8-0.3-3.9-0.9s-2-1.4-2.6-2.4s-0.9-2.2-0.9-3.5s0.3-2.5,0.9-3.5s1.4-1.8,2.4-2.4
		c1-0.6,2.2-0.9,3.5-0.9s2.4,0.3,3.5,0.8c1,0.6,1.8,1.4,2.4,2.4s0.9,2.2,0.9,3.6c0,0.1,0,0.3,0,0.4c0,0.2,0,0.3,0,0.5h-11.1v-2.1
		h9.4l-1.2,0.6c0-0.8-0.1-1.4-0.5-2c-0.3-0.6-0.8-1-1.4-1.4c-0.6-0.3-1.2-0.5-2-0.5s-1.4,0.2-2,0.5s-1,0.8-1.3,1.4s-0.5,1.3-0.5,2.1
		v0.5c0,0.8,0.2,1.5,0.5,2.1c0.4,0.6,0.9,1.1,1.5,1.4s1.4,0.5,2.3,0.5c0.7,0,1.4-0.1,2-0.3c0.6-0.2,1.1-0.6,1.6-1.1l1.7,1.9
		c-0.6,0.7-1.3,1.2-2.3,1.6S183.7,75.5,182.6,75.5z"/>
	<path class="st4" d="M191.8,75.3V62h3v3.7l-0.3-1.1c0.4-0.9,1-1.6,1.9-2c0.9-0.5,1.9-0.7,3.2-0.7v3c-0.1,0-0.3-0.1-0.4-0.1
		s-0.2,0-0.3,0c-1.2,0-2.1,0.3-2.8,1s-1,1.7-1,3.1v6.4C195.1,75.3,191.8,75.3,191.8,75.3z"/>
</g>
</svg>
