<?xml version="1.0" encoding="utf-8"?>
<!-- Generator: Adobe Illustrator 26.5.0, SVG Export Plug-In . SVG Version: 6.00 Build 0)  -->
<svg version="1.1" id="Layer_1" width="150.94" height="150.94" xmlns="http://www.w3.org/2000/svg" xmlns:xlink="http://www.w3.org/1999/xlink" x="0px" y="0px"
	 viewBox="0 0 947.7 947.7" style="enable-background:new 0 0 947.7 947.7;" xml:space="preserve">
<style type="text/css">
	.st0{fill:#004B8F;}
	.st1{fill:#FFFFFF;}
</style>
<g>
	<g>
		<path class="st0" d="M473.9,905.1c-58.2,0-114.7-11.4-167.9-33.9c-51.4-21.7-97.5-52.8-137.1-92.4
			c-39.6-39.6-70.7-85.7-92.4-137.1C54,588.6,42.6,532.1,42.6,473.9c0-58.2,11.4-114.7,33.9-167.9c21.7-51.4,52.8-97.5,92.4-137.1
			c39.6-39.6,85.7-70.7,137.1-92.4C359.1,54,415.6,42.6,473.9,42.6c58.2,0,114.7,11.4,167.9,33.9c51.4,21.7,97.5,52.8,137.1,92.4
			c39.6,39.6,70.7,85.7,92.4,137.1c22.5,53.2,33.9,109.7,33.9,167.9c0,58.2-11.4,114.7-33.9,167.9c-21.7,51.4-52.8,97.5-92.4,137.1
			c-39.6,39.6-85.7,70.7-137.1,92.4C588.6,893.7,532.1,905.1,473.9,905.1z M473.9,50.6c-233.4,0-423.3,189.9-423.3,423.3
			c0,233.4,189.9,423.3,423.3,423.3c233.4,0,423.3-189.9,423.3-423.3C897.1,240.5,707.2,50.6,473.9,50.6z"/>
	</g>
</g>
<g>
	<g>
		<path class="st0" d="M473.9,924.7c-60.9,0-119.9-11.9-175.5-35.4c-53.7-22.7-101.9-55.2-143.3-96.6S81.2,703,58.4,649.3
			C34.9,593.8,23,534.7,23,473.9C23,413,34.9,354,58.4,298.4c22.7-53.7,55.2-101.9,96.6-143.3c41.4-41.4,89.6-73.9,143.3-96.6
			C354,34.9,413,23,473.9,23c60.9,0,119.9,11.9,175.5,35.4c53.7,22.7,101.9,55.2,143.3,96.6c41.4,41.4,73.9,89.6,96.6,143.3
			c23.5,55.6,35.4,114.6,35.4,175.5c0,60.9-11.9,119.9-35.4,175.5C866.5,703,834,751.2,792.6,792.6s-89.6,73.9-143.3,96.6
			C593.8,912.8,534.7,924.7,473.9,924.7z M473.9,31C229.7,31,31,229.7,31,473.9C31,718,229.7,916.7,473.9,916.7
			c244.2,0,442.8-198.7,442.8-442.8C916.7,229.7,718,31,473.9,31z"/>
	</g>
</g>
<path class="st0" d="M702.3,473.9c0,126.2-102.3,228.4-228.4,228.4S245.4,600,245.4,473.9c0-126.2,102.3-228.4,228.4-228.4
	S702.3,347.7,702.3,473.9z"/>
<g>
	<g>
		<g>
			<path class="st0" d="M473.9,720c-65.8,0-127.6-25.6-174.1-72.1c-46.5-46.5-72.1-108.3-72.1-174.1c0-65.8,25.6-127.6,72.1-174.1
				c46.5-46.5,108.3-72.1,174.1-72.1c65.8,0,127.6,25.6,174.1,72.1c46.5,46.5,72.1,108.3,72.1,174.1c0,65.8-25.6,127.6-72.1,174.1
				C601.4,694.4,539.6,720,473.9,720z M473.9,238.7c-129.7,0-235.2,105.5-235.2,235.2c0,129.7,105.5,235.2,235.2,235.2
				C603.5,709,709,603.5,709,473.9C709,344.2,603.5,238.7,473.9,238.7z"/>
		</g>
	</g>
</g>
<g>
	<g>
		<path class="st0" d="M210.8,181l69.9,78.3l-8.7,7.8l-69.9-78.3L210.8,181z"/>
		<path class="st0" d="M309.9,144.8l1.4,2.5l-9.7,5.4l-1.7-3c-4.6-8.2-10.5-11.3-17.8-7.2c-7.3,4.1-7.7,10.7-3.2,18.8
			c11.6,20.5,43.4,5.2,57.9,30.9c7.8,13.9,6.2,26.6-7.8,34.5c-14,7.9-25.6,2.5-33.4-11.3l-2.9-5.2l9.5-5.4l3.2,5.8
			c4.6,8.2,10.8,11.2,18.1,7c7.3-4.1,8-10.9,3.4-19.1c-11.5-20.4-43.2-5.1-57.7-30.9c-7.9-14.1-6.3-26.6,7.4-34.3
			C290.5,125.6,302.1,131,309.9,144.8z"/>
		<path class="st0" d="M360.5,124.9c-3.8-15.6,1.4-27.5,17-31.4c15.7-3.9,25.9,4.3,29.8,19.9l13,52.7c3.8,15.4-1.4,27.5-17.2,31.4
			c-15.6,3.8-25.8-4.5-29.6-19.9L360.5,124.9z M384.8,175.4c2.3,9.3,7.5,13.7,15.7,11.7c8.3-2,10.8-8.4,8.5-17.7l-13.2-53.9
			c-2.3-9.2-7.4-13.8-15.7-11.7c-8.2,2-10.7,8.5-8.5,17.7L384.8,175.4z"/>
		<path class="st0" d="M511.3,83.8l-44.4,103.8l-10.2-0.3l44.4-103.8L511.3,83.8z"/>
		<path class="st0" d="M577.7,96.5l-25.6,101.8l-11.3-2.9l25.6-101.8L577.7,96.5z"/>
		<path class="st0" d="M646.5,173.7l-4.7,9.4l-23-11.4l-16.6,33.4l28.2,14l-4.7,9.5L587,209.5l46.7-94l38.7,19.2l-4.7,9.5l-28.2-14
			l-16,32.1L646.5,173.7z"/>
		<path class="st0" d="M741.6,219.1l-6.3,7.1l-8.3-7.4l6.7-7.5c6.3-7.1,7.3-13.8,0.9-19.5c-6.3-5.6-13-3.9-19.3,3.2l-36.9,41.5
			c-6.3,7.1-7.1,13.9-0.9,19.5c6.4,5.7,13,3.9,19.3-3.2l9.1-10.2l8.3,7.4l-8.7,9.8c-10.6,11.9-23.1,14.8-35.3,4
			c-12-10.7-10.6-23.5-0.1-35.4l36.1-40.6c10.6-11.9,23.1-14.8,35.1-4.1C753.5,194.3,752.2,207.2,741.6,219.1z"/>
	</g>
</g>
<g>
	<g>
		<path class="st0" d="M243.6,672.3l-7.1,5.3l-6.2-8.3l7.5-5.6c7.1-5.3,9.3-11.2,4.5-17.6c-4.7-6.3-11.1-6-18.2-0.8l-41.6,30.9
			c-7.1,5.3-9.2,11.4-4.5,17.6c4.8,6.4,11.1,6,18.2,0.8l10.2-7.6l6.2,8.3l-9.8,7.3c-11.9,8.9-24,9.1-33-3.1
			c-8.9-12-5.2-23.5,6.7-32.3l40.7-30.2c11.9-8.9,24-9.1,32.9,2.9C259.2,652,255.5,663.4,243.6,672.3z"/>
		<path class="st0" d="M282.5,734.4l-6.2,7.6L257.7,727l-22,27.1l22.8,18.5l-6.3,7.7L221,754.9l61.7-76.1l31.3,25.4l-6.3,7.7
			L285,693.4l-21.1,26L282.5,734.4z"/>
		<path class="st0" d="M358.4,728.5c14,6.4,16.6,16.2,10.6,29.4l-3.3,7.3c-4.5,9.8-10.7,14.4-19.4,13.3c7.1,6.1,7.1,14.1,2.8,23.7
			l-6.3,13.9c-1.8,4-3.3,7.7-3.1,11.5l-10.1-4.6c0-3.1,0.5-5.6,3.3-11.6l6.4-14c4.6-10.1,1.3-15.4-7-19.2l-7-3.2l-17.3,38.1
			l-9.9-4.5l40.5-89.2L358.4,728.5z M336.7,769.4c7.9,3.6,13.8,3.2,18.2-6.5l3.9-8.5c3.6-8,2.6-13.6-4.8-16.9l-9.7-4.4l-15,33
			L336.7,769.4z"/>
		<path class="st0" d="M404.8,845.1l14.7-86.8l-17.8-3l1.7-9.8l46.4,7.9l-1.7,9.8l-17.8-3l-14.7,86.8L404.8,845.1z"/>
		<path class="st0" d="M488.9,753l3.3,97.9l-10.9,0.4l-3.3-97.9L488.9,753z"/>
		<path class="st0" d="M563.7,786.8l2.3,9.7l-21.9,5.2l9.7,41.3l-10.6,2.5l-22.5-95.4l37.9-8.9l2.3,9.7l-27.3,6.4l8.2,34.7
			L563.7,786.8z"/>
		<path class="st0" d="M595.7,725.6l41.1,89l-9.9,4.6l-41.1-89L595.7,725.6z"/>
		<path class="st0" d="M677.6,724.9l5.8,7.9L664.1,747l20.7,28.1l23.7-17.5l5.9,8l-32.4,23.9l-58.2-78.9l32.4-23.9l5.9,8l-23.7,17.5
			l19.9,26.9L677.6,724.9z"/>
		<path class="st0" d="M691.7,649.1c9.6-11.9,21.2-11.5,32.9-2l38.4,31.1c11.6,9.4,14.4,20.7,4.8,32.5l-14.5,17.8l-76.1-61.7
			L691.7,649.1z M760,704.6c4.9-6.1,3.5-12.1-3.4-17.8l-39.1-31.7c-7-5.6-13.1-5.8-18.2,0.4l-7.4,9.1l60.7,49.2L760,704.6z"/>
	</g>
</g>
<g>
	<polygon class="st0" points="122.7,409.9 130.3,433.3 154.9,433.3 135,447.8 142.6,471.1 122.7,456.7 102.8,471.1 110.4,447.8 
		90.6,433.3 115.1,433.3 	"/>
	<polygon class="st0" points="141.7,296.6 149.3,319.9 173.9,319.9 154,334.4 161.6,357.8 141.7,343.3 121.8,357.8 129.4,334.4 
		109.6,319.9 134.1,319.9 	"/>
	<polygon class="st0" points="807.7,296.6 815.3,319.9 839.9,319.9 820,334.4 827.6,357.8 807.7,343.3 787.8,357.8 795.4,334.4 
		775.6,319.9 800.1,319.9 	"/>
	<polygon class="st0" points="158.7,542.9 166.3,566.3 190.9,566.3 171,580.8 178.6,604.1 158.7,589.7 138.8,604.1 146.4,580.8 
		126.6,566.3 151.1,566.3 	"/>
	<polygon class="st0" points="791.1,543.9 798.7,567.3 823.3,567.3 803.4,581.8 811,605.1 791.1,590.7 771.2,605.1 778.8,581.8 
		758.9,567.3 783.5,567.3 	"/>
	<polygon class="st0" points="819.2,415.9 826.8,439.3 851.3,439.3 831.5,453.8 839.1,477.1 819.2,462.7 799.3,477.1 806.9,453.8 
		787,439.3 811.6,439.3 	"/>
</g>
<g>
	<g>
		<path class="st1" d="M574.6,490.6c-11.3-0.4-22.1-2.7-32.4-7.2c-15.6-6.9-25.6-18.3-29.8-34.9c-3.9-15.3-3.4-30.7,1-45.7
			c4.3-14.8,13.7-25.7,28.3-31.6c22.2-9,44.4-9,66.5,0.5c16.8,7.2,26.3,20.2,29.5,38.1c2.1,11.8,2.4,23.5,0,35.4
			c-4.9,24.1-19.7,38-43.4,42.7C587.8,489.2,581.2,489.7,574.6,490.6z M554.3,425.3c0.3,5.7,0.3,11.1,0.9,16.5
			c1.5,12.9,6.4,17.5,18.8,18.3c10.4,0.7,19.1-4.1,19.8-12.6c1-12.8,1-25.8,0-38.6c-0.7-9.1-6.4-13.3-15.6-14
			c-3.9-0.3-8,0.5-11.8,1.3c-6,1.4-9.6,5.5-10.5,11.5C555.1,413.6,554.8,419.6,554.3,425.3z"/>
		<path class="st1" d="M419.5,479.2c-0.2,3.1-0.3,5.2-0.5,7.8c-8.6,0-17.1,0-26,0c0-14.5,0-28.9,0-43.8c7.6,0,15-0.1,22.3,0.1
			c0.8,0,1.9,0.8,2.5,1.5c9.4,13.7,23,17.8,38.6,17.1c2.7-0.1,5.6-0.5,8.1-1.4c1.8-0.6,3.2-2.4,4.7-3.7c-1.5-1.6-2.7-3.9-4.5-4.6
			c-6.9-2.5-14.1-4.4-21.1-6.8c-10.7-3.5-21.9-6-31.8-11.1c-23.7-12.1-24.3-35.9-14.6-51.9c6-9.9,16-14.4,26.9-16.2
			c17.1-2.9,33.8-1.7,49.3,7.5c0.8,0.4,1.6,0.7,2.9,1.3c0.3-2.4,0.5-4.5,0.7-6.7c8.4,0,16.5,0,25,0c0,13.5,0,27,0,41
			c-7.8,0-15.4,0.1-23.1-0.1c-1,0-2.1-1.1-2.8-2c-10.7-12.5-24.9-16-40.4-15.2c-2.5,0.1-6.2,2.6-6.9,4.8c-1.2,3.6,2.8,5.1,5.7,5.9
			c13.4,4,26.9,7.8,40.4,11.8c14.5,4.3,25.4,12.9,30,27.6c5.8,18.3-4.4,37.7-23,44.2c-19.5,6.8-38.5,4.5-57-4.3
			C423.4,481.1,421.8,480.3,419.5,479.2z"/>
		<path class="st1" d="M384.8,395.6c-5.8,0-11.3,0-17.2,0c-0.1,1.8-0.4,3.3-0.4,4.8c0,17.7,0.1,35.5-0.1,53.2c0,3.6,1,5.2,4.7,4.7
			c0.2,0,0.3,0,0.5,0c4.1,0.3,9.8-1,11.9,1.2c2.1,2.2,0.9,7.8,1,12c0.1,5.1,0,10.1,0,15.5c-25.8,0-51.1,0-76.8,0
			c0-9.4,0-18.6,0-28.5c5.5,0,11.1,0,17,0c0-21.3,0-41.9,0-63c-5.7,0-11.3,0-17.1,0c0-10,0-19.3,0-29.1c25.3,0,50.7,0,76.5,0
			C384.8,375.9,384.8,385.4,384.8,395.6z"/>
		<path class="st1" d="M584.6,502.3c-29.1,41.4-68.8,63-119.7,61.5c-47.3-1.5-83.9-23.5-111.2-62.2c3.5-1.6,5.1-0.3,7.1,2
			c7.5,8.4,15.2,16.5,22.9,24.7c2,2.2,4.1,2.3,6.5,0.7c3.4-2.2,7-4.2,10.8-6.4c-5.4-7.4-10.3-14.2-15.2-20.9
			c0.4-0.5,0.8-1.1,1.2-1.6c1.8,1.1,4,1.8,5.3,3.3c3.9,4.6,7.4,9.5,11,14.3c1.5,2,3,2.5,5.5,1.4c6.8-2.8,13.8-5.1,21.1-7.8
			c-1.5-3.6-2.9-6.7-4.3-10c4.1-1.9,5.6,0.7,6.5,3.3c1.6,4.8,4.3,5.5,9.1,4.5c7.1-1.4,14.3-1.9,21.6-2.5c3.2-0.3,5.4-1.2,4.6-5
			c4.5-2.1,4.7,0.7,4.7,4c8.3,1.1,16.5,2.1,24.7,3.2c0.8,0.1,1.6,0.1,2.3,0.4c4.2,1.7,6.7,0.2,8.1-3.9c0.9-2.7,2.1-5.4,6.4-3.9
			c-1.2,3.2-2.4,6.3-3.7,9.8c7.4,2.7,14.4,5.4,21.6,7.8c1,0.3,3-0.5,3.7-1.4c3.7-4.5,7.1-9.3,10.9-13.8c1.4-1.6,3.6-2.5,5.4-3.6
			c0.5,0.5,1,1,1.4,1.5c-4.8,6.6-9.5,13.3-14.8,20.6c4.5,2.5,8.9,5.2,13.6,7.4c0.9,0.4,2.9-0.7,3.9-1.7c7.6-8,15.1-16.2,22.7-24.3
			c1.4-1.5,3.6-2.4,5.4-3.5C584,501,584.3,501.7,584.6,502.3z M472.1,510.6c0,9.5-0.1,17.6,0.1,25.8c0.1,1.8,1.4,5.1,2.1,5.1
			c3.8-0.1,8.2,4,11.5-0.8c5.3-7.8,10.3-15.7,15.5-23.6c0.4-0.6,0.3-1.4,0.6-3.1C491.9,512.8,482.4,511.7,472.1,510.6z M438,513.8
			c-0.2,0.7-0.5,1.4-0.7,2c4.5,6.9,8.8,14,13.6,20.8c5,7.1,5.4,7.2,13.6,5c1.2-0.3,2.7-2.1,2.7-3.3c0.2-8,0.2-16,0-24
			c0-1.1-1.6-3-2.3-3C455.9,512,447,513,438,513.8z M449.7,544.2c-5.4-8.8-10.8-17.6-16.3-26.3c-0.5-0.8-1.8-1.7-2.4-1.6
			c-6.9,2.2-13.8,4.6-21.5,7.2c1.8,2.1,2.5,3.3,3.5,4.1c7.2,5.6,14.5,11,21.6,16.6C439.6,548.1,444.5,548.8,449.7,544.2z
			 M489.6,544.4c4.5,3.2,8.5,4.2,13.1,0.6c6.4-5,13.1-9.6,19.7-14.4c2.4-1.8,4.8-3.6,7.3-5.5c-0.3-0.8-0.7-1.5-1-2.3
			c-6.5-2-13-4.2-19.6-6c-0.8-0.2-2.4,0.5-2.9,1.3C500.6,526.7,495.2,535.4,489.6,544.4z M440.9,555.3c8,5.6,49.7,5.6,57.7,0
			C486.8,543.2,452.2,543.2,440.9,555.3z M503.2,551c0,0.5,0,1,0,1.5c2.1,0.2,4.3,1.1,6.2,0.6c12.7-3.4,24.3-9.4,35.2-16.6
			c1.1-0.7,1.8-1.9,3.2-3.2c-3.5-2-6.6-3.6-9.5-5.5c-2.8-1.8-4.7-1.3-7.3,0.8c-8.6,7.1-17.6,13.9-26.3,20.8
			C504.1,549.9,503.7,550.5,503.2,551z M391.8,533.4c0.6,1.2,0.7,1.5,0.9,1.7c11.7,8.7,24.8,14.8,38.8,18.6c1.4,0.4,3.2-1,4.9-1.6
			c-0.7-1.3-0.7-1.6-0.9-1.8c-9.6-7.5-19.1-15-28.7-22.3c-1-0.7-3-1.1-4.1-0.6C399.1,529.1,395.6,531.3,391.8,533.4z"/>
		<path class="st1" d="M424.7,352.1c1.3-3.1,2.6-6.2,4.1-9.8c-7.5-2.8-14.8-5.5-22.2-7.9c-0.9-0.3-2.8,1-3.7,2.1
			c-3.6,4.4-6.9,9.1-10.7,13.4c-1.4,1.6-3.5,2.5-5.3,3.7c-0.5-0.5-0.9-1-1.4-1.5c4.9-6.8,9.7-13.7,14.7-20.8
			c-4.3-2.5-8.3-5.1-12.5-7.1c-1.1-0.5-3.6,0.4-4.6,1.4c-7.6,7.8-15,15.9-22.6,23.7c-1.6,1.7-4,2.7-6.5,3.2
			c27.5-40.8,65.8-62.6,114.9-62.6c48.9,0,86.9,21.7,115.4,61.5c-3.8,1.7-5.4,0-7.4-2.2c-7.4-8.2-15.2-16.1-22.8-24.1
			c-1.9-2-3.7-2-6.1-0.4c-3.3,2.2-6.8,4.1-10.6,6.3c5.1,7.1,10,13.9,14.9,20.8c-3.3,1.8-5,0.6-6.7-1.7c-3.7-5-7.5-9.8-11.5-14.5
			c-0.8-0.9-2.8-1.7-3.8-1.3c-7.1,2.4-14.1,5.1-21.6,7.9c1.3,3.4,2.5,6.6,3.7,9.8c-3.5,1.6-5.2,0-6.1-2.9c-1.6-4.7-4.1-6-9.3-4.8
			c-8.1,1.8-16.5,2.3-25.1,3.4c-0.1,0.8-0.1,1.9-0.6,2.7c-0.5,0.9-1.5,2-2.4,2c-0.8,0-2.4-1.2-2.4-1.8c0.1-3.5-2.1-3.4-4.5-3.6
			c-7.2-0.7-14.5-1-21.5-2.7c-5.5-1.3-8.2,0.1-10,5.2C429.4,352.9,429.1,352.8,424.7,352.1z M466.4,342.8c0-10.3,0-19.4,0-28.4
			c0-0.6-0.2-1.3-0.6-1.7c-2-2.1-11.5-1.8-13.2,0.6c-4.9,7.1-9.7,14.3-14.4,21.5c-0.7,1-0.9,2.4-1.7,4.7
			C446.8,340.6,456.3,341.7,466.4,342.8z M471.5,342c10.3,0.2,19.7-0.7,30-4c-5.8-8.5-11-16.2-16.4-23.9c-2-2.9-10.2-3.8-12.8-1.6
			c-0.5,0.4-0.8,1.3-0.8,2C471.5,323.6,471.5,332.6,471.5,342z M488.3,309.2c5.6,8.9,11.1,17.7,16.7,26.3c0.5,0.7,1.8,1.5,2.5,1.3
			c6.8-2.1,13.6-4.4,21.1-6.9c-1.6-1.9-2.2-3-3.1-3.7c-7.7-5.9-15.5-11.7-23.1-17.6C497.6,304.9,493.1,305.6,488.3,309.2z
			 M408.8,330.1c7,2.4,13.2,4.4,19.3,6.6c2.7,1,3.8,0.1,5.1-2.1c4.5-7.3,9.2-14.5,13.8-21.8c0.7-1.1,1.3-2.3,2.5-4.4
			c-3.7-0.8-7.4-2.8-9.6-1.7C428.6,312.2,418.8,320.2,408.8,330.1z M498.1,297.4c-20-4.2-39.1-4.5-58.8,0.2
			C451.1,310.4,486.1,310.4,498.1,297.4z M389.9,319.7c4.4,2.5,7.5,4,10.2,5.9c2.8,1.9,4.7,1.3,7.2-0.8c8.4-6.8,17-13.2,25.5-19.8
			c0.9-0.7,1.8-1.5,2.7-2.2c0-0.6-0.1-1.1-0.1-1.7c-2.4-0.2-5.2-1.3-7.3-0.5c-8.1,3-16,6.4-23.7,10.1
			C399.8,313,395.5,316.2,389.9,319.7z M501.6,301.5c0.9,1.4,1.1,1.8,1.4,2.1c9.5,7.4,18.9,14.7,28.5,22c0.9,0.7,2.7,1.2,3.6,0.7
			c3.8-1.9,7.4-4.1,11-6.2c-0.4-0.9-0.4-1.3-0.6-1.4c-11.6-8.4-24.2-14.7-38-18.5C505.9,299.7,503.9,300.9,501.6,301.5z"/>
	</g>
	<g>
		<path class="st1" d="M358.5,600.2c0,17.1-19.2,23.3-19.3,36.4v0.9h18.7v5.8h-24.9v-4.9c0-18.4,19.2-21.9,19.2-37.9
			c0-5.8-1.9-8.9-6.7-8.9c-4.6,0-6.7,3.3-6.7,8.4v5h-5.9v-4.6c0-8.7,4-14.5,12.8-14.5C354.5,585.8,358.5,591.5,358.5,600.2z"/>
		<path class="st1" d="M383.3,592.1H364v-5.7h25.7v5.5l-14.6,51.3h-6.3L383.3,592.1z"/>
		<path class="st1" d="M395.3,600.1c0-8.7,4.3-14.3,13-14.3c8.8,0,13.1,5.6,13.1,14.3v29.3c0,8.7-4.3,14.4-13.1,14.4
			c-8.7,0-13-5.7-13-14.4V600.1z M401.6,629.8c0,5.1,2.2,8.2,6.7,8.2c4.6,0,6.7-3.1,6.7-8.2v-30.1c0-5.2-2.1-8.3-6.7-8.3
			c-4.5,0-6.7,3.1-6.7,8.3V629.8z"/>
		<path class="st1" d="M426.9,600.1c0-8.7,4.3-14.3,13-14.3c8.8,0,13.1,5.6,13.1,14.3v29.3c0,8.7-4.3,14.4-13.1,14.4
			c-8.7,0-13-5.7-13-14.4V600.1z M433.2,629.8c0,5.1,2.2,8.2,6.7,8.2c4.6,0,6.7-3.1,6.7-8.2v-30.1c0-5.2-2.1-8.3-6.7-8.3
			c-4.5,0-6.7,3.1-6.7,8.3V629.8z"/>
		<path class="st1" d="M470.6,596.7c-2.1,1.3-4.9,2.3-7.9,2.4v-5.2c6.2-0.2,8.3-3.6,9.7-7.6h4.4v56.9h-6.3V596.7z"/>
		<path class="st1" d="M492.5,604.4v7.9h-6.1v-7.9H492.5z M492.5,635.4v7.9h-6.1v-7.9H492.5z"/>
		<path class="st1" d="M524.6,600.2c0,17.1-19.3,23.3-19.3,36.4v0.9H524v5.8H499v-4.9c0-18.4,19.2-21.9,19.2-37.9
			c0-5.8-1.9-8.9-6.7-8.9c-4.6,0-6.7,3.3-6.7,8.4v5H499v-4.6c0-8.7,4-14.5,12.8-14.5C520.6,585.8,524.6,591.5,524.6,600.2z"/>
		<path class="st1" d="M530,600.1c0-8.7,4.3-14.3,13-14.3c8.8,0,13.1,5.6,13.1,14.3v29.3c0,8.7-4.3,14.4-13.1,14.4
			c-8.7,0-13-5.7-13-14.4V600.1z M536.2,629.8c0,5.1,2.2,8.2,6.7,8.2c4.6,0,6.7-3.1,6.7-8.2v-30.1c0-5.2-2.1-8.3-6.7-8.3
			c-4.5,0-6.7,3.1-6.7,8.3V629.8z"/>
		<path class="st1" d="M573.7,596.7c-2.1,1.3-4.9,2.3-7.9,2.4v-5.2c6.2-0.2,8.3-3.6,9.7-7.6h4.4v56.9h-6.3V596.7z"/>
		<path class="st1" d="M614.8,600.1v1.5c0,5.8-2.4,10-6.9,11.7c4.8,1.8,6.9,6.1,6.9,11.8v4.4c0,8.7-4.1,14.4-12.8,14.4
			c-8.7,0-12.8-5.7-12.8-14.4v-3.9h5.9v4.3c0,5.1,2.1,8.2,6.7,8.2c4.6,0,6.7-3,6.7-8.8v-4.4c0-5.6-2.4-8.3-7.1-8.4h-3.4v-5.7h3.7
			c4.2-0.2,6.8-2.8,6.8-7.8v-2.6c0-5.8-2-8.9-6.7-8.9c-4.5,0-6.7,3.2-6.7,8.3v2.9h-5.9v-2.6c0-8.7,4.1-14.3,12.8-14.3
			C610.7,585.8,614.8,591.4,614.8,600.1z"/>
	</g>
</g>
</svg>
