<svg xmlns="http://www.w3.org/2000/svg" width="111.999" height="58.416" viewBox="0 0 111.999 58.416">
  <g id="Layer_2" data-name="Layer 2" transform="translate(0)">
    <g id="Layer_1" data-name="Layer 1" transform="translate(0 0)">
      <path id="Path_42750" data-name="Path 42750" d="M3117.64,607.55l1.01,4.509,1-4.469-.008-.04Z" transform="translate(-3024.424 -592.482)" fill="#609cfc"/>
      <path id="Path_42751" data-name="Path 42751" d="M3134.731,607.59l1,4.469,1.011-4.509h-2Z" transform="translate(-3039.292 -592.482)" fill="#609cfc"/>
      <path id="Path_42752" data-name="Path 42752" d="M3143.42,614.879h2.021l-1.011-4.509Z" transform="translate(-3046.852 -594.935)" fill="#609cfc"/>
      <path id="Path_42753" data-name="Path 42753" d="M3119.656,653.9l-1-4.469-1.01,4.509h2Z" transform="translate(-3024.424 -628.916)" fill="#609cfc"/>
      <path id="Path_42754" data-name="Path 42754" d="M3102.216,653.939l-1.011-4.509-1,4.469.009.04Z" transform="translate(-3009.252 -628.916)" fill="#609cfc"/>
      <path id="Path_42755" data-name="Path 42755" d="M3082.13,651.125l1.01-4.508h-1.01Z" transform="translate(-2993.532 -626.47)" fill="#609cfc"/>
      <path id="Path_42756" data-name="Path 42756" d="M3100.2,607.59l1,4.469,1.012-4.509h-2Z" transform="translate(-3009.252 -592.482)" fill="#609cfc"/>
      <path id="Path_42757" data-name="Path 42757" d="M3083.12,607.55l1.01,4.509,1-4.469-.01-.04Z" transform="translate(-2994.394 -592.482)" fill="#609cfc"/>
      <path id="Path_42758" data-name="Path 42758" d="M3082.13,614.879h1.01l-1.01-4.509Z" transform="translate(-2993.532 -594.935)" fill="#609cfc"/>
      <path id="Path_42759" data-name="Path 42759" d="M3136.735,653.939l-1.01-4.509-1,4.469.009.04Z" transform="translate(-3039.291 -628.916)" fill="#609cfc"/>
      <path id="Path_42760" data-name="Path 42760" d="M3109.9,651.125l1.01-4.508h-2.021Z" transform="translate(-3016.811 -626.47)" fill="#609cfc"/>
      <path id="Path_42761" data-name="Path 42761" d="M3103.819,739.211c-.252-1.91-1.364-2.211-1.481-2.231h-.75a3.07,3.07,0,0,1,1.206,2.731v15.3a12.876,12.876,0,0,1-2.024,6.022h.984a11.747,11.747,0,0,0,2.065-5.786Z" transform="translate(-3009.747 -705.079)" fill="#609cfc"/>
      <rect id="Rectangle_4130" data-name="Rectangle 4130" width="0.856" height="0.445" transform="translate(91.644 31.251)" fill="#609cfc"/>
      <path id="Path_42762" data-name="Path 42762" d="M3126.4,615.836h1.958l-.983-4.366Z" transform="translate(-3032.045 -595.893)" fill="#609cfc"/>
      <path id="Path_42763" data-name="Path 42763" d="M3127.374,650.984l.983-4.364H3126.4Z" transform="translate(-3032.045 -626.47)" fill="#609cfc"/>
      <path id="Path_42764" data-name="Path 42764" d="M3085.135,653.9l-1-4.469-1.01,4.509h2Z" transform="translate(-2994.394 -628.916)" fill="#609cfc"/>
      <path id="Path_42765" data-name="Path 42765" d="M3108.889,614.879h2.021l-1.01-4.509Z" transform="translate(-3016.811 -594.935)" fill="#609cfc"/>
      <path id="Path_42766" data-name="Path 42766" d="M3093.828,646.62h-1.958l.984,4.364Z" transform="translate(-3002.005 -626.47)" fill="#609cfc"/>
      <path id="Path_42767" data-name="Path 42767" d="M3091.87,615.836h1.958l-.978-4.366Z" transform="translate(-3002.005 -595.893)" fill="#609cfc"/>
      <rect id="Rectangle_4131" data-name="Rectangle 4131" width="0.65" height="1.574" transform="translate(91.13 35.151)" fill="#609cfc"/>
      <path id="Path_42768" data-name="Path 42768" d="M3090.259,735.382c-.065-2.262-1.317-2.669-1.33-2.672a.1.1,0,0,1-.072-.1V732h-2.263v26.477h1.54V756.8a.086.086,0,0,1,.008-.036v-.01l.008-.015a12.524,12.524,0,0,0,2.1-6.067Zm-.855,5.646a.1.1,0,0,1-.1.1h-1.712a.1.1,0,0,1-.1-.1v-6.772a.1.1,0,0,1,.1-.1h1.711a.1.1,0,0,1,.1.1Z" transform="translate(-2997.42 -700.746)" fill="#609cfc"/>
      <rect id="Rectangle_4132" data-name="Rectangle 4132" width="0.65" height="1.335" transform="translate(90.274 33.611)" fill="#609cfc"/>
      <rect id="Rectangle_4133" data-name="Rectangle 4133" width="0.65" height="1.335" transform="translate(91.13 33.611)" fill="#609cfc"/>
      <rect id="Rectangle_4134" data-name="Rectangle 4134" width="1.026" height="1.574" transform="translate(90.924 56.157)" fill="#609cfc"/>
      <rect id="Rectangle_4135" data-name="Rectangle 4135" width="0.65" height="1.471" transform="translate(91.13 38.709)" fill="#609cfc"/>
      <path id="Path_42769" data-name="Path 42769" d="M3110.031,732.465c.3.093,1.33.54,1.574,2.392a.033.033,0,0,1,0,.014v16.046a11.933,11.933,0,0,1-2.121,5.919v1.642h2.539V732h-1.99Z" transform="translate(-3017.325 -700.746)" fill="#609cfc"/>
      <rect id="Rectangle_4136" data-name="Rectangle 4136" width="0.65" height="1.471" transform="translate(90.274 38.709)" fill="#609cfc"/>
      <path id="Path_42770" data-name="Path 42770" d="M3130.54,731.99v26.479h5.371V731.99h-5.371Z" transform="translate(-3035.646 -700.738)" fill="#609cfc"/>
      <rect id="Rectangle_4137" data-name="Rectangle 4137" width="0.958" height="2.257" transform="translate(83.158 54.935)" fill="#609cfc"/>
      <path id="Path_42771" data-name="Path 42771" d="M3133.425,498.573h2.656l-1.658-2.124a1.76,1.76,0,0,0-.6-3.168v-.732h.2l.41.53h2.01l-.512-.7.512-.7h-2.01l-.41.53h-1.311l-.007-.53s-.6.464-.843.65c-.021.019-.04.032-.054.044l.054.044c.244.191.843.65.843.65l.007-.53h.532v.7a1.761,1.761,0,0,0-.81,3.2l-1.659,2.124Z" transform="translate(-3035.846 -491.681)" fill="#609cfc"/>
      <path id="Path_42772" data-name="Path 42772" d="M3045.922,752.351V737.8c-.047-.13-.574-1.417-3.261-1.7,2.725.578,2.782,2.236,2.782,2.236v13.005c-.161,4.7-4.292,7.888-4.777,8.246h.984C3041.919,759.43,3044.761,757.675,3045.922,752.351Z" transform="translate(-2957.464 -704.313)" fill="#609cfc"/>
      <path id="Path_42773" data-name="Path 42773" d="M3048.167,732h-.754v.275c.267,0,.521.009.754.025Z" transform="translate(-2963.327 -701.284)" fill="#609cfc"/>
      <path id="Path_42774" data-name="Path 42774" d="M3054.766,722.25h-7.356v1.057h7.356Z" transform="translate(-2963.326 -692.264)" fill="#609cfc"/>
      <path id="Path_42775" data-name="Path 42775" d="M3078.01,601.537h18.581v-.615h-.581a.27.27,0,0,0-.008-.052h-18.011l-.007.052h-.582v.615Z" transform="translate(-2989.418 -586.67)" fill="#609cfc"/>
      <rect id="Rectangle_4138" data-name="Rectangle 4138" width="0.65" height="1.574" transform="translate(90.274 36.93)" fill="#609cfc"/>
      <path id="Path_42776" data-name="Path 42776" d="M3049.958,732.311c3.132.266,3.6,1.812,3.621,1.884a.262.262,0,0,1,0,.028V748.8a.147.147,0,0,1,0,.021c-1.14,5.254-3.924,7.105-4.343,7.359v2.3h4.65V732h-3.934Z" transform="translate(-2964.92 -700.746)" fill="#609cfc"/>
      <rect id="Rectangle_4139" data-name="Rectangle 4139" width="0.65" height="1.574" transform="translate(91.13 36.93)" fill="#609cfc"/>
      <rect id="Rectangle_4140" data-name="Rectangle 4140" width="0.65" height="1.574" transform="translate(90.274 35.151)" fill="#609cfc"/>
      <rect id="Rectangle_4141" data-name="Rectangle 4141" width="3.343" height="3.9" transform="translate(91.279 25.229)" fill="#609cfc"/>
      <path id="Path_42777" data-name="Path 42777" d="M3169.26,607.59l1,4.469,1.01-4.509h-2Z" transform="translate(-3069.331 -592.482)" fill="#609cfc"/>
      <path id="Path_42778" data-name="Path 42778" d="M3152.17,607.55l1.01,4.509,1-4.469-.009-.04Z" transform="translate(-3054.464 -592.482)" fill="#609cfc"/>
      <path id="Path_42779" data-name="Path 42779" d="M3170.263,649.43l-1,4.469.01.04h2Z" transform="translate(-3069.33 -628.916)" fill="#609cfc"/>
      <path id="Path_42780" data-name="Path 42780" d="M3188.717,653.9l-1-4.469-1.011,4.509h2Z" transform="translate(-3084.502 -628.916)" fill="#609cfc"/>
      <path id="Path_42781" data-name="Path 42781" d="M3213.484,646.62h-1.011l1.011,4.508Z" transform="translate(-3106.921 -626.47)" fill="#609cfc"/>
      <path id="Path_42782" data-name="Path 42782" d="M3145.446,646.62h-2.021l1.01,4.508Z" transform="translate(-3046.852 -626.47)" fill="#609cfc"/>
      <path id="Path_42783" data-name="Path 42783" d="M3186.7,607.55l1.01,4.509,1-4.469-.009-.04Z" transform="translate(-3084.501 -592.482)" fill="#609cfc"/>
      <path id="Path_42784" data-name="Path 42784" d="M3205.8,607.55h-2l-.009.04,1,4.469Z" transform="translate(-3099.369 -592.482)" fill="#609cfc"/>
      <path id="Path_42785" data-name="Path 42785" d="M3213.484,610.37l-1.011,4.509h1.011Z" transform="translate(-3106.921 -594.935)" fill="#609cfc"/>
      <path id="Path_42786" data-name="Path 42786" d="M3154.187,653.9l-1-4.469-1.01,4.509h2Z" transform="translate(-3054.464 -628.916)" fill="#609cfc"/>
      <path id="Path_42787" data-name="Path 42787" d="M3178.962,651.125l1-4.505h-2.02Z" transform="translate(-3076.889 -626.47)" fill="#609cfc"/>
      <path id="Path_42788" data-name="Path 42788" d="M3179.133,755.027v-15.3a3.071,3.071,0,0,1,1.206-2.73h-.75c-.116.026-1.228.32-1.48,2.231v16.033a11.727,11.727,0,0,0,2.066,5.786h.983A13.044,13.044,0,0,1,3179.133,755.027Z" transform="translate(-3077.029 -705.096)" fill="#609cfc"/>
      <rect id="Rectangle_4142" data-name="Rectangle 4142" width="0.856" height="0.445" transform="translate(102.659 31.251)" fill="#609cfc"/>
      <path id="Path_42789" data-name="Path 42789" d="M3160.929,615.836h1.957l-.978-4.366Z" transform="translate(-3062.083 -595.893)" fill="#609cfc"/>
      <path id="Path_42790" data-name="Path 42790" d="M3162.887,646.62h-1.957l.979,4.364Z" transform="translate(-3062.083 -626.47)" fill="#609cfc"/>
      <path id="Path_42791" data-name="Path 42791" d="M3205.8,653.939l-1.011-4.509-1,4.469.008.04Z" transform="translate(-3099.37 -628.916)" fill="#609cfc"/>
      <path id="Path_42792" data-name="Path 42792" d="M3177.95,614.879h2.016l-1.009-4.509Z" transform="translate(-3076.891 -594.935)" fill="#609cfc"/>
      <path id="Path_42793" data-name="Path 42793" d="M3197.407,646.62h-1.957l.983,4.364Z" transform="translate(-3092.114 -626.47)" fill="#609cfc"/>
      <path id="Path_42794" data-name="Path 42794" d="M3195.45,615.836h1.957l-.979-4.366Z" transform="translate(-3092.114 -595.893)" fill="#609cfc"/>
      <rect id="Rectangle_4143" data-name="Rectangle 4143" width="0.65" height="1.574" transform="translate(103.379 35.151)" fill="#609cfc"/>
      <path id="Path_42795" data-name="Path 42795" d="M3189.026,732.614a.1.1,0,0,1-.073.1c-.014,0-1.265.415-1.331,2.673v15.288a12.5,12.5,0,0,0,2.1,6.067.042.042,0,0,1,.007.015l.007.01a.114.114,0,0,1,0,.036v1.672h1.54V732h-2.257Zm1.369,1.642v6.774a.1.1,0,0,1-.029.07.1.1,0,0,1-.069.029h-1.712a.1.1,0,0,1-.1-.1v-6.774a.1.1,0,0,1,.1-.1h1.71a.1.1,0,0,1,.1.1Z" transform="translate(-3085.302 -700.746)" fill="#609cfc"/>
      <rect id="Rectangle_4144" data-name="Rectangle 4144" width="0.65" height="1.335" transform="translate(104.233 33.611)" fill="#609cfc"/>
      <rect id="Rectangle_4145" data-name="Rectangle 4145" width="0.65" height="1.335" transform="translate(103.379 33.611)" fill="#609cfc"/>
      <rect id="Rectangle_4146" data-name="Rectangle 4146" width="1.026" height="1.574" transform="translate(103.207 56.157)" fill="#609cfc"/>
      <rect id="Rectangle_4147" data-name="Rectangle 4147" width="0.65" height="1.471" transform="translate(103.379 38.709)" fill="#609cfc"/>
      <path id="Path_42796" data-name="Path 42796" d="M3173.823,734.871v-.019c.244-1.852,1.268-2.3,1.574-2.392V732h-1.984v26.479h2.531V756.84a11.949,11.949,0,0,1-2.122-5.918Z" transform="translate(-3072.941 -700.746)" fill="#609cfc"/>
      <rect id="Rectangle_4148" data-name="Rectangle 4148" width="0.65" height="1.471" transform="translate(104.233 38.709)" fill="#609cfc"/>
      <rect id="Rectangle_4149" data-name="Rectangle 4149" width="0.958" height="2.257" transform="translate(111.041 55.473)" fill="#609cfc"/>
      <path id="Path_42797" data-name="Path 42797" d="M3221.792,751.3V738.3s.056-1.656,2.781-2.236c-2.687.286-3.212,1.574-3.261,1.7v14.557c1.157,5.32,4.008,7.082,4.27,7.23h.984C3226.081,759.188,3221.95,756,3221.792,751.3Z" transform="translate(-3114.611 -704.279)" fill="#609cfc"/>
      <path id="Path_42798" data-name="Path 42798" d="M3249.946,732.271V732h-.755v.3C3249.425,732.279,3249.671,732.271,3249.946,732.271Z" transform="translate(-3138.865 -700.746)" fill="#609cfc"/>
      <path id="Path_42799" data-name="Path 42799" d="M3100.131,553.153c-.207-1.127-1.321-5.648-6.055-6.893h-5.837c-4.733,1.246-5.853,5.767-6.056,6.893h17.947Z" transform="translate(-2993.576 -539.163)" fill="#609cfc"/>
      <path id="Path_42800" data-name="Path 42800" d="M3205.767,722.25h-7.355v1.06h7.355Z" transform="translate(-3094.689 -692.264)" fill="#609cfc"/>
      <path id="Path_42801" data-name="Path 42801" d="M3116.468,723.31h.959v-1.06H3105.55v1.06Z" transform="translate(-3013.906 -692.264)" fill="#609cfc"/>
      <rect id="Rectangle_4150" data-name="Rectangle 4150" width="0.65" height="1.574" transform="translate(104.233 36.93)" fill="#609cfc"/>
      <path id="Path_42802" data-name="Path 42802" d="M3217.654,748.82a.144.144,0,0,1,0-.021V734.221a.129.129,0,0,1,0-.027c.021-.072.492-1.617,3.621-1.884V732h-3.935v26.477h4.653v-2.3C3221.579,755.929,3218.786,754.072,3217.654,748.82Z" transform="translate(-3111.157 -700.746)" fill="#609cfc"/>
      <rect id="Rectangle_4151" data-name="Rectangle 4151" width="0.65" height="1.574" transform="translate(103.379 36.93)" fill="#609cfc"/>
      <rect id="Rectangle_4152" data-name="Rectangle 4152" width="0.65" height="1.574" transform="translate(104.233 35.151)" fill="#609cfc"/>
      <path id="Path_42803" data-name="Path 42803" d="M3075.266,690.23l-.388-.351v-4.2h-6.119v3.9h3.094l-.712-.689h-.24v-2.677h3.442v3.568h-24.838v-3.568h3.443v2.677h-.24l-.712.689h3.095v-3.9h-6.12v4.2l-.388.351h26.683Z" transform="translate(-2964.337 -660.451)" fill="#609cfc"/>
      <rect id="Rectangle_4153" data-name="Rectangle 4153" width="3.343" height="3.9" transform="translate(100.534 25.229)" fill="#609cfc"/>
      <path id="Path_42804" data-name="Path 42804" d="M3137.44,689.58v-3.9h-4.833v3.9Z" transform="translate(-3037.448 -660.451)" fill="#609cfc"/>
      <path id="Path_42805" data-name="Path 42805" d="M86.484,713.025V702.51H84.812l.03.051v10.464Z" transform="translate(-73.781 -674.646)" fill="#609cfc"/>
      <path id="Path_42806" data-name="Path 42806" d="M74.64,802.34l.56.446h1.967l-.661-.446Z" transform="translate(-64.933 -761.492)" fill="#609cfc"/>
      <path id="Path_42807" data-name="Path 42807" d="M68.2,807.1H66.148l-1.908,1.475h2.518Z" transform="translate(-55.885 -765.633)" fill="#609cfc"/>
      <path id="Path_42808" data-name="Path 42808" d="M50.669,824.159V819.77H48.088v4.652a4.209,4.209,0,0,1-2.288,2.112h3.693A2.643,2.643,0,0,0,50.669,824.159Z" transform="translate(-39.843 -776.656)" fill="#609cfc"/>
      <path id="Path_42809" data-name="Path 42809" d="M77.752,784.65h-1.6l-1.271,1.271H76.7Z" transform="translate(-65.142 -746.103)" fill="#609cfc"/>
      <rect id="Rectangle_4154" data-name="Rectangle 4154" width="3.864" height="3.16" transform="translate(4.946 50.706)" fill="#609cfc"/>
      <path id="Path_42810" data-name="Path 42810" d="M76.45,826.536h14.6A2.831,2.831,0,0,1,90,824.144V819.77H77.5v4.375A2.843,2.843,0,0,1,76.45,826.536Zm2.393-6.05a.086.086,0,0,1,.026-.061.085.085,0,0,1,.062-.025h9.64a.085.085,0,0,1,.086.086v3.475a.086.086,0,0,1-.086.086h-9.64a.087.087,0,0,1-.088-.086Z" transform="translate(-66.507 -776.656)" fill="#609cfc"/>
      <path id="Path_42811" data-name="Path 42811" d="M47.727,873.6v-.481H43.84v.481Z" transform="translate(-38.139 -823.067)" fill="#609cfc"/>
      <rect id="Rectangle_4155" data-name="Rectangle 4155" width="1.826" height="0.687" transform="translate(9.687 39.989)" fill="#609cfc"/>
      <path id="Path_42812" data-name="Path 42812" d="M69.06,878.14v3.16H85.585v-3.16Z" transform="translate(-60.079 -827.435)" fill="#609cfc"/>
      <path id="Path_42813" data-name="Path 42813" d="M75.06,873.6H90.023v-.481H75.06Z" transform="translate(-65.299 -823.067)" fill="#609cfc"/>
      <path id="Path_42814" data-name="Path 42814" d="M96.7,802.786h4.7l.662-.446H91.34l.662.446Z" transform="translate(-79.461 -761.492)" fill="#609cfc"/>
      <path id="Path_42815" data-name="Path 42815" d="M91.588,808.575h6.128L96.28,807.1H86.9l-1.436,1.475Z" transform="translate(-74.346 -765.633)" fill="#609cfc"/>
      <path id="Path_42816" data-name="Path 42816" d="M99,702.51v10.515h8.736V702.51Z" transform="translate(-86.124 -674.646)" fill="#609cfc"/>
      <path id="Path_42817" data-name="Path 42817" d="M96.042,785.921H101.5l-1.049-1.271H91.63l-1.05,1.271Z" transform="translate(-78.8 -746.103)" fill="#609cfc"/>
      <path id="Path_42818" data-name="Path 42818" d="M89.84,796.426h11.115v-.689H89.84Z" transform="translate(-78.156 -755.751)" fill="#609cfc"/>
      <path id="Path_42819" data-name="Path 42819" d="M169.133,713.025V702.56l.031-.051h-1.672v10.516Z" transform="translate(-145.708 -674.646)" fill="#609cfc"/>
      <path id="Path_42820" data-name="Path 42820" d="M173.067,802.786l.558-.446h-1.864l-.662.446Z" transform="translate(-148.848 -761.492)" fill="#609cfc"/>
      <path id="Path_42821" data-name="Path 42821" d="M170.5,807.1l1.437,1.475h2.52l-1.908-1.475Z" transform="translate(-148.326 -765.633)" fill="#609cfc"/>
      <path id="Path_42822" data-name="Path 42822" d="M181.89,819.77v4.38a.024.024,0,0,1,0,.009,2.65,2.65,0,0,0,1.18,2.377h3.693a4.21,4.21,0,0,1-2.286-2.112V819.77Z" transform="translate(-158.23 -776.656)" fill="#609cfc"/>
      <path id="Path_42823" data-name="Path 42823" d="M168.23,784.65l1.05,1.271h1.82l-1.271-1.271Z" transform="translate(-146.351 -746.103)" fill="#609cfc"/>
      <rect id="Rectangle_4156" data-name="Rectangle 4156" width="3.864" height="3.16" transform="translate(25.675 50.706)" fill="#609cfc"/>
      <path id="Path_42824" data-name="Path 42824" d="M91.547,682.307v-.928H77.12v.928Z" transform="translate(-67.09 -656.264)" fill="#609cfc"/>
      <path id="Path_42825" data-name="Path 42825" d="M105.642,829.245v-3.3H96.17v3.3Z" transform="translate(-83.663 -782.023)" fill="#609cfc"/>
      <path id="Path_42826" data-name="Path 42826" d="M191.43,873.6h3.887v-.481H191.43Z" transform="translate(-166.534 -823.067)" fill="#609cfc"/>
      <rect id="Rectangle_4157" data-name="Rectangle 4157" width="1.826" height="0.687" transform="translate(22.974 39.989)" fill="#609cfc"/>
      <path id="Path_42827" data-name="Path 42827" d="M38.785,904.586v-.824H5.81v.824Z" transform="translate(-5.055 -849.723)" fill="#609cfc"/>
      <path id="Path_42828" data-name="Path 42828" d="M17.242,911.42H0V914.8H34.486V911.42Z" transform="translate(0 -856.387)" fill="#609cfc"/>
      <path id="Path_42829" data-name="Path 42829" d="M91.606,689.83H77.2l.885,1.475H90.719Z" transform="translate(-67.16 -663.614)" fill="#609cfc"/>
      <path id="Path_42830" data-name="Path 42830" d="M79.243,532.184l-.122.165.26.827.747.369-.185.632,1.977,1.267,1.43.186-.758,9.076,2.333.114-.109,2.2h-3v2.525h8.38v-2.525H88.223c-.084-.861-.239-2.471-.246-2.511a2.817,2.817,0,0,1,.56-.168l.885-.506-.744-6h.2l1.509-2.471.1-.58-2-2.459-1.492.017-.13-.13.153-.324.02-.4L86.991,531l-.714-.861-.511-.1-.408.13-.287.26-.077,1.315.2.823-.009.2-.52.124-1.082,1.058-1.211-.105-1.72-.885-.02-.3-.419-.937c-.13-.1-.212.107-.212.107l.033.7-.807-.831c-.225-.1-.177.1-.177.1Zm9.541,2.764-.4.475-.161-1.3Z" transform="translate(-68.758 -524.606)" fill="#609cfc"/>
      <path id="Path_42831" data-name="Path 42831" d="M2698.9,592.317h16.681V587.35H2682.22v4.967Zm15.107-4h.614v3.049h-.614Zm-.863,0h.617v3.049h-.617Zm-.86,0h.615v3.049h-.615Zm-.861,0h.615v3.049h-.615Zm-.861,0h.616v3.049h-.616Zm-.86,0h.614v3.049h-.614Zm-6.833,0h.615v3.049h-.618Zm-.863,0h.617v3.049h-.617Zm-.861,0h.617v3.049h-.617Zm-.86,0h.614v3.049h-.614Zm-.862,0h.616v3.049h-.616Zm-15.629,3.049h-.617v-3.049h.617Zm.86,0h-.615v-3.049h.621Zm.861,0h-.615v-3.049h.615Zm.861,0h-.616v-3.049h.616Zm.86,0h-.616v-3.049h.616Zm.862,0h-.617v-3.049h.617Zm6.832,0h-.616v-3.049h.616Zm.861,0h-.615v-3.049h.615Zm.861,0h-.615v-3.049h.615Zm.861,0h-.616v-3.049h.616Zm.861,0h-.615v-3.049h.615Zm.246-3.049h.553v3.049h-.553Z" transform="translate(-2639.811 -575.446)" fill="#609cfc"/>
      <path id="Path_42832" data-name="Path 42832" d="M2755.091,527.539h8.282v-1.994h-7.684l-.408-1.225v-4.315h1.445V518.77h-1.861v5.551l-.41,1.225H2746.8v1.994h8.287Z" transform="translate(-2695.992 -515.785)" fill="#609cfc"/>
      <path id="Path_42833" data-name="Path 42833" d="M2658.245,660.8V648.751h-2.3v-3.639h-1.4v-3.639H2653.2v-3.639h-1.311l-.033-.1v-3.541h-1.287l-.025-.072v-3.568H2649.5V626.67h-33.368v3.884h-1.042v3.572l-.025.072h-1.279v3.547l-.034.1h-1.309v3.639h-1.34v3.639h-1.4v3.639h-2.3v12.05h-1.152v6.576h30.492v-5.636h2.975v5.628h.818v-5.628h2.973v5.628h.816v-5.628h2.975v5.628h.818v-5.628h2.969v5.628h8.065V660.8Zm-47.166-14.734h.595v.542h-.595Zm0,.744h.595V648.7h-.595Zm-2.066,13.071h-.709v-2.459h.706Zm0-2.647h-.709v-.482h.706Zm0-.672h-.709v-3.771h.706Zm0-3.956h-.709v-.485h.706Zm0-.671h-.709v-2.187h.706Zm.885,7.946h-.674v-2.459h.674Zm0-2.647h-.674v-.482h.674Zm0-.672h-.674v-3.771h.674Zm0-3.956h-.674v-.485h.674Zm0-.671h-.674v-2.187h.674Zm.885,7.946h-.674v-2.459h.668Zm0-2.647h-.674v-.482h.668Zm0-.672h-.674v-3.771h.668Zm0-3.956h-.674v-.485h.668Zm0-.671h-.674v-2.187h.668Zm.1-3.238h-.5v-1.887h.5Zm0-2.08h-.5v-.548h.5Zm.819,13.265h-.711v-2.459h.711Zm0-2.647h-.711v-.482h.711Zm0-.672h-.711V652.8h.711Zm0-3.956h-.711v-.485h.711Zm0-.671h-.711v-2.187h.711Zm.688-3.238h-.521v-1.887h.521Zm0-2.08h-.521v-.548h.521Zm0-1.561h-.59v-1.885h.59Zm0-2.081h-.59v-.549h.59Zm39.414-4.19h.619v.552h-.619Zm0,.747h.619v1.885h-.619Zm0,2.895h.52v.549h-.52Zm0,.744h.52v1.887h-.52Zm0,2.895h.52v.544h-.52Zm0,.744h.52V648.7h-.52Zm-.7-1.752v-1.886h.505v1.888Zm.5,1.008v.544h-.5v-.548Zm-.5-3.091v-.549h.505v.549Zm0-1.561v-1.882h.505v1.885Zm0-2.08v-.552h.505v.552Zm-.611-4.194h.634v.556h-.634Zm-.089,3.639h.5v.551h-.5Zm0,.747h.5v1.885h-.5Zm0,2.895h.5v.549h-.5Zm0,.744h.5v1.887h-.5Zm0,2.895h.5v.548h-.5Zm0,.744h.5v1.887h-.5Zm-1.059-15.306h.437v.556h-.437Zm0,.75h.437v1.881h-.437Zm-.335,12.809V643.17h.5v1.888Zm.5,1.008v.542h-.5v-.548Zm-.5-3.09v-.549h.5v.549Zm0-1.561v-1.884h.5v1.885Zm0-2.08v-.552h.5v.552Zm.088-1.561V635.9h.5v1.882Zm0-2.08v-.556h.5v.556Zm-.448-4.194h.5v.556h-.5Zm0,.75h.5v1.881h-.5Zm-.585-4.786h.482v3.049h-.482Zm-.115,4.033h.506v.555h-.506Zm0,.75h.506v1.881h-.506Zm-.344,14.361v-.548h.5v.548Zm.5.2v1.887h-.5V646.81Zm-.5-1.752v-1.882h.5v1.888Zm0-2.081v-.549h.5v.549Zm0-1.561v-1.88h.5v1.885Zm0-2.08v-.552h.5v.552Zm.09-1.561V635.9h.5v1.882Zm0-2.08v-.556h.5v.556Zm-.343-8.23h.548v3.049h-.548Zm-.105,4.033h.5v.555h-.5Zm0,.75h.5v1.881h-.5Zm-.6-4.786h.547v3.049h-.548Zm-.1,4.033h.5v.556h-.5Zm0,.751h.5v1.881h-.5Zm-.341,14.371v-.548h.506v.548Zm.506.2v1.887h-.506v-1.882Zm-.506-1.752v-1.882h.506v1.888Zm0-2.081v-.549h.506v.549Zm0-1.561v-1.88h.506v1.885Zm0-2.08v-.552h.506v.552Zm.089-1.561V635.9h.5v1.882Zm0-2.08v-.556h.5v.556Zm-.295-8.23h.481v3.049H2646Zm-.152,4.033h.5v.555h-.5Zm0,.75h.5v1.881h-.5Zm-.341,14.367v-.548h.5v.548Zm.5.2v1.887h-.5v-1.882Zm-.5-1.752v-1.882h.5v1.888Zm0-2.081v-.549h.5v.549Zm0-1.561v-1.88h.5v1.885Zm0-2.08v-.552h.5v.552Zm.089-1.561V635.9h.5v1.882Zm0-2.08v-.556h.5v.556Zm-.448-4.194h.5v.555h-.5Zm0,.75h.5v1.881h-.5Zm-.341,12.8v-1.878h.5v1.888Zm.5,1.008v.552h-.5v-.548Zm-.5-3.09v-.549h.5v.549Zm0-1.561v-1.874h.5v1.885Zm0-2.08v-.552h.5v.552Zm.088-1.561V635.9h.5v1.882Zm0-2.081v-.555h.5v.555Zm-.4-8.23h.476v3.049h-.476Zm-.043,4.033h.5v.555h-.5Zm0,.75h.5v1.881h-.5Zm-.666-4.786h.547V630.5h-.547Zm-.034,4.033h.5v.555h-.5Zm0,.751h.5v1.881h-.5Zm-.676-4.786h.548V630.5h-.548Zm-.024,4.033h.5v.556h-.5Zm0,.75h.5v1.881h-.5Zm-.341,14.38v-.548h.5v.548Zm.5.2V648.7h-.5v-1.882Zm-.5-1.752v-1.882h.5v1.888Zm0-2.081v-.549h.5v.549Zm0-1.561v-1.88h.5v1.885Zm0-2.08v-.552h.5v.552Zm.089-1.561V635.9h.5v1.882Zm0-2.08v-.556h.5v.556Zm-.374-8.23h.492v3.049h-.492Zm-.073,4.033h.5v.555h-.5Zm0,.75h.5v1.881h-.5Zm-.341,12.8v-1.874h.5v1.888Zm.5,1.008v.556h-.5v-.548Zm-.5-3.09v-.549h.5v.549Zm0-1.561v-1.869h.5v1.885Zm0-2.08v-.552h.5v.552Zm.088-1.561V635.9h.5v1.882Zm0-2.081v-.555h.5v.555Zm-.448-4.194h.5v.555h-.5Zm0,.75h.5v1.881h-.5Zm-.34,14.372v-.548h.5v.548Zm.5.2V648.7h-.5v-1.882Zm-.5-1.752v-1.882h.5v1.888Zm0-2.081v-.549h.5v.549Zm0-1.561v-1.88h.5v1.885Zm0-2.08v-.552h.5v.552Zm-.359-5.2v-1.878h.5v1.881Zm0-2.08V631.5h.5v.555Zm-.029-4.591h.47v3.049h-.47Zm-.709,0h.547v3.049h-.547Zm-.3,18.6h.5v.554h-.506Zm-.36-11.931v-1.869h.5v1.881Zm.36,10.924v-1.877h.5v1.888Zm0-2.08v-.549h.5v.549Zm0-1.561v-1.874h.5v1.885Zm0-2.08v-.552h.5v.552Zm.089-1.561V635.9h.5v1.882Zm0-2.081v-.555h.5v.555Zm.251-1.56v-1.869h.5v1.881Zm0-2.08v-.556h.5v.556Zm-.2,0h-.5v-.556h.5Zm-.552-4.59h.548v3.049h-.548Zm-.992,19.157v-.548h.5v.548Zm.5.2V648.7h-.5v-1.882Zm-.5-1.752V643.18h.5v1.887Zm0-2.081v-.549h.5v.549Zm0-1.561v-1.88h.5v1.885Zm0-2.08v-.552h.5v.552Zm.089-1.561V635.9h.5v1.882Zm0-2.08v-.556h.5v.556Zm.251-1.561v-1.879h.5v1.881Zm0-2.08V631.5h.5v.555Zm0-4.591h.492v3.049h-.492Zm-.7,4.033h.5v.556h-.5Zm0,.751h.5v1.881h-.5Zm-2.439,13.811h.5v.558h-.5Zm-.357-11.916v-1.887h.5v1.881Zm.359,10.924V643.18h.5v1.888Zm0-2.081v-.549h.5v.549Zm0-1.561V639.54h.5v1.885Zm0-2.08v-.552h.5v.552Zm.089-1.561V635.9h.5v1.882Zm0-2.08v-.556h.5v.556Zm.252-1.561v-1.886h.5v1.881Zm.359,12.675h.5V648.7h-.5Zm0-.2v-.548h.5v.542Zm0-1.561v-1.882h.5v1.888Zm0-2.081v-.549h.5v.549Zm0-1.561v-1.88h.5v1.885Zm0-2.08v-.552h.5v.552Zm.089-1.561V635.9h.5v1.882Zm0-2.08v-.556h.5v.556Zm.251-1.561v-1.878h.5v1.881Zm.359,12.675h.5V648.7h-.5Zm0-.2v-.548h.5v.549Zm0-1.561v-1.876h.5v1.888Zm0-2.08v-.549h.5v.549Zm0-1.561v-1.869h.5v1.885Zm0-2.081v-.552h.5v.552Zm.09-1.561V635.9h.5v1.882Zm0-2.08v-.556h.5v.556Zm.25-1.561v-1.869h.5v1.881Zm0-2.08v-.555h.5v.555Zm-.1-4.59h.464v3.049h-.464Zm-.1,4.59h-.5v-.555h.5Zm-.615-4.59h.548v3.049h-.548Zm-.086,4.59h-.5v-.555h.5Zm-.624-4.59h.548v3.049h-.548Zm-.076,4.59h-.5v-.555h.5Zm-.59-4.59h.5v3.049h-.5Zm-.618,4.033h.5v.555h-.5Zm0,.75h.5v1.881h-.5Zm-1.682,14.376v-.548h.414v.548Zm.414.2V648.7h-.414v-1.882Zm-.414-1.752v-1.882h.414v1.888Zm0-2.081v-.549h.414v.549Zm0-1.561v-1.88h.414v1.885Zm0-2.08v-.552h.414v.552Zm0-1.561V635.9h.512v1.882Zm0-2.08v-.556h.512v.556Zm.082-3.639h-.472V631.5h.472Zm.2,2.08v-1.88h.5v1.881Zm.332,12.675h.512V648.7h-.512Zm0-.2v-.548h.512v.549Zm0-1.561v-1.876h.512v1.888Zm0-2.08v-.549h.512v.549Zm0-1.561v-1.869h.512v1.885Zm0-2.081v-.552h.512v.552Zm.1-1.561V635.9h.52v1.882Zm0-2.08v-.556h.52v.556Zm.27-1.561v-1.869h.5v1.881Zm0-2.08v-.555h.5v.555Zm-.08-4.591h.366v3.049h-.366Zm-.117,4.591h-.5v-.555h.5Zm-.535-4.591h.492v3.049h-.492Zm-.637,0h.476v3.049h-.476Zm-.329,19.158v-.548h.415v.548Zm.415.2V648.7h-.415v-1.882Zm-.415-1.752V643.18h.415v1.888Zm0-2.081v-.549h.415v.549Zm0-1.561v-1.88h.415v1.885Zm0-2.08v-.552h.415v.552Zm-.1-1.561V635.9h.52v1.882Zm0-2.08v-.556h.52v.556Zm-.225-8.23h.492v3.049h-.492Zm-.045,4.033h.5v.555h-.5Zm0,.75h.5v1.881h-.5Zm.076,3.639v1.882h-.52V635.9Zm-.52-.2v-.556h.52v.556Zm.107,11.115h.513V648.7h-.513Zm0-.2v-.548h.513v.553Zm0-1.561v-1.869h.513v1.888Zm0-2.081v-.549h.513v.549Zm0-1.56V639.54h.513v1.885Zm0-2.081v-.552h.513v.552Zm-.141-11.868h.365v3.049h-.365Zm-.218,4.033h.5v.556h-.5Zm0,.751h.5v1.881h-.5Zm-.341,12.8v-1.869h.5v1.888Zm.5,1.008v.564h-.5v-.548Zm-.5-3.09v-.549h.5v.549Zm0-1.561v-1.862h.5v1.885Zm0-2.081v-.552h.5v.552Zm.394-3.639h-.5v-.556h.5Zm-.756-4.194h.5v.556h-.5Zm0,.751h.5v1.881h-.5Zm.056,2.888v.556h-.5v-.556Zm-.669-7.672h.5V630.5h-.5Zm-.087,4.033h.492v.556h-.5Zm0,.75h.492v1.881h-.5Zm-.447,3.443v-.556h.5v.556Zm.5.2v1.882h-.5V635.9Zm-.679-8.425h.548V630.5h-.548Zm-.076,4.033h.5v.556h-.5Zm0,.75h.5v1.881h-.5Zm.056,3.639v1.882h-.5V635.9Zm-.5-.2v-.556h.5v.556Zm.089,11.115h.5v1.887h-.51Zm0-.2v-.548h.5v.572Zm0-1.561v-1.852h.5v1.888Zm0-2.08v-.549h.5v.549Zm0-1.561v-1.849h.5v1.885Zm0-2.081v-.552h.5v.552Zm-.275-11.868h.547v3.049h-.547Zm-.067,4.033h.5v.555h-.5Zm0,.75h.5v1.881h-.5Zm.056,3.639v1.882h-.5V635.9Zm-.5-.2v-.555h.5v.555Zm.089,11.115h.5v1.887h-.5Zm0-.2v-.548h.5v.58Zm0-1.561v-1.844h.5v1.888Zm0-2.081V642.4h.5v.549Zm0-1.561v-1.841h.5v1.885Zm0-2.08v-.552h.5v.552Zm-.2-11.868h.464v3.049h-.464Zm-.141,4.033h.5v.556h-.51Zm0,.751h.5V634.1h-.51Zm-.359,12.8v-1.839h.5v1.888Zm.5,1.008v.59h-.5v-.548Zm-.5-3.09v-.549h.5v.549Zm0-1.561v-1.835h.5v1.885Zm0-2.081v-.552h.5v.552Zm.415-3.639h-.5v-.556h.5Zm-.757-4.194h.5v.555h-.5Zm0,.75h.5V634.1h-.5Zm.056,3.639v1.882h-.5V635.9Zm-.5-.2v-.555h.5v.555Zm.09,11.115h.5v1.887h-.5Zm0-.2v-.548h.5v.59Zm0-1.561v-1.832h.5v1.888Zm0-2.08v-.549h.5v.549Zm0-1.561v-1.829h.5v1.885Zm0-2.081v-.551h.5v.551Zm-.328-11.868h.492v3.049h-.492Zm-.013,4.033h.5v.556h-.5Zm0,.75h.5v1.866h-.5Zm.055,2.889v.556h-.5V635.1Zm-.751-7.672h.548v3.049h-.548Zm0,4.033h.5v.556h-.5Zm0,.75h.5v1.866h-.5Zm-1.051,12.784v-1.824h.5v1.888Zm.5,1.008v.606h-.5v-.548Zm-.5-3.09v-.549h.5v.549Zm0-1.561v-1.82h.5v1.885Zm0-2.08v-.552h.5v.552Zm.416-3.639h-.5v-.555h.5Zm-.056-1.561v-1.815h.5v1.881Zm0-2.08v-.556h.5v.556Zm.251,3.836h.5v1.882h-.5Zm0-.2v-.555h.5v.555Zm-.26-8.23h.547v3.049h-.547Zm-.633,0h.471v3.049h-.471Zm-.061,4.033h.5v.556h-.5Zm0,.751h.5v1.881h-.5Zm-.363,14.43v-.548h.5v.548Zm.5.2V648.7h-.5v-1.882Zm-.5-1.752v-1.882h.5v1.888Zm0-2.081v-.549h.5v.549Zm0-1.561v-1.88h.5v1.885Zm0-2.08v-.552h.5v.552Zm.416-3.639h-.5v-.556h.5Zm-.758-4.194h.5v.555h-.5Zm0,.75h.5v1.881h-.5Zm-1.759,12.8v-1.878h.5v1.888Zm.5,1.008v.552h-.5v-.548Zm-.5-3.09v-.549h.5v.549Zm0-1.561v-1.874h.5v1.885Zm0-2.08v-.552h.5v.552Zm-1.488-3.639v-.555h.5v.555Zm.5.2v1.882h-.5V635.9Zm-.056-1.759v-1.869h.5v1.881Zm.252,1.008h.5v.555h-.5Zm.448-1.008v-1.869h.5v1.881Zm.253,1.008h.5v.555h-.5Zm.448-1.008v-1.869h.5v1.881Zm.755,1.008v.555h-.5v-.555Zm-.5.751h.5v1.882h-.5Zm.089,10.918h.5V648.7h-.5Zm0-.2v-.548h.5v.557Zm0-1.561v-1.869h.5v1.888Zm0-2.08v-.549h.5v.549Zm0-1.561v-1.869h.5v1.885Zm0-2.08v-.552h.5v.552Zm.359-5.2v-1.871h.5v1.881Zm.252,1.758h.5v1.882h-.5Zm0-.2v-.555h.5v.555Zm.252-3.639h-.5v-.556h.5Zm-.562-4.591h.486v3.049h-.486Zm-.138,4.591h-.5v-.556h.5Zm-.572-4.591h.548v3.049h-.548Zm-.13,4.591h-.5v-.556h.5Zm-.581-4.591h.548v3.049h-.547Zm-.119,4.591h-.5v-.556h.5Zm-.52-4.591h.477v3.049h-.477Zm-.689,4.033h.5v.556h-.5Zm0,.751h.5v1.881h-.5Zm-1.758,12.8v-1.86h.5v1.888Zm.5,1.008v.569h-.5v-.548Zm-.5-3.09v-.549h.5v.549Zm0-1.561v-1.856h.5v1.885Zm0-2.08v-.552h.5v.552Zm-1.041-5.2v-1.864h.5v1.881Zm.056,1.008v.556h-.5v-.556Zm.7,0v.556h-.5v-.556Zm-.5.75h.5v1.882h-.5Zm.089,10.918h.5v1.887h-.5Zm0-.2v-.548h.5v.572Zm0-1.561v-1.852h.5v1.888Zm0-2.08v-.549h.5v.549Zm0-1.561V639.55h.5v1.885Zm0-2.081v-.552h.5v.552Zm.359-5.2v-1.858h.5v1.881Zm.252,1.008h.5v.556h-.5Zm.448-1.008v-1.858h.512v1.881Zm.757,1.008v.556h-.5v-.556Zm-.5.75h.5v1.882h-.5Zm.089,10.918h.5v1.887h-.5Zm0-.2v-.548h.5v.578Zm0-1.561v-1.845h.5v1.888Zm0-2.08v-.549h.5v.549Zm0-1.561V639.55h.5v1.885Zm0-2.081v-.552h.5v.552Zm.359-5.2v-1.852h.5v1.881Zm.755,1.008v.556h-.5v-.556Zm-.5.751h.5v1.882h-.5Zm.089,10.918h.512v1.887h-.5Zm0-.2v-.548h.512v.585Zm0-1.561v-1.839h.512v1.888Zm0-2.08V642.4h.512v.549Zm0-1.561v-1.836h.512v1.885Zm0-2.08v-.552h.512v.552Zm.163-7.279h-.5v-.556h.5Zm-.634-4.591h.481v3.049h-.481Zm-.067,4.591h-.5v-.556h.512Zm-.643-4.591h.548v3.049h-.546Zm-.057,4.591h-.5v-.556h.5Zm-.65-4.591h.548v3.049h-.548Zm-.048,4.591h-.5v-.556h.5Zm-.6-4.591h.482v3.049h-.482Zm-.607,4.033h.5v.556h-.5Zm0,.75h.5v1.856h-.5Zm-.448,3.443v-.555h.5v.555Zm.5.2v1.856h-.5V635.9Zm-.688-4.389h.437v.556h-.437Zm0,.751h.437v1.855h-.437Zm-.426,12.8V643.2h.5v1.888Zm.5,1.008v.6h-.5v-.548Zm-.5-3.091v-.549h.5v.549Zm0-1.56v-1.825h.5v1.885Zm0-2.081v-.552h.5v.552Zm-.09-4.194h.508v.556h-.5Zm0,.751h.508v1.858h-.5Zm-.611,9.165V643.2h.5v1.888Zm.5,1.008v.6h-.5v-.548Zm-.5-3.09v-.549h.5v.549Zm0-1.561V639.56h.5v1.885Zm0-2.081v-.551h.5v.551Zm-.217-4.194h.633v.556h-.633Zm0,.751h.633v1.86h-.633Zm-1.925,6.534h.52v.549h-.52Zm0,.744h.52v1.861h-.52Zm0,2.895h.52v.606h-.52Zm0,.744h.52v1.862h-.52Zm1.053,13.071h-.781v-2.4h.781Zm0-2.647h-.781v-.419h.781Zm0-.673h-.781v-3.771h.781Zm0-3.956h-.781v-.485h.781Zm0-.671h-.781v-2.123h.781Zm.2-3.238h-.52v-1.824h.52Zm0-2.08h-.52v-.548h.52Zm0-1.561h-.52V643.2h.52Zm0-2.081h-.52v-.549h.52Zm0-1.561h-.618v-1.818h.618Zm0-2.08h-.618v-.552h.618Zm.688,20.549h-.675v-2.4h.675Zm0-2.647h-.675v-.419h.675Zm0-.673h-.675v-3.771h.675Zm0-3.956h-.675v-.485h.675Zm0-.671h-.675v-2.123h.675Zm.01-3.238h-.508v-1.824h.5Zm0-2.08h-.508v-.548h.5Zm0-1.561h-.508V643.2h.5Zm0-2.081h-.508v-.549h.5Zm0-1.561h-.508v-1.818h.5Zm0-2.08h-.508v-.552h.5Zm.2,7.476h.5v1.864h-.5Zm.678,13.071h-.674v-2.393h.674Zm0-2.647h-.674v-.415h.674Zm0-.673h-.674v-3.8h.674Zm0-3.956h-.674v-.485h.674Zm0-.671h-.674v-2.119h.674Zm.021-5.126h.5v1.864h-.5Zm.823,13.071h-.633v-2.393h.633Zm0-2.647h-.633v-.415h.633Zm0-.673h-.633v-3.8h.633Zm0-3.956h-.633v-.485h.633Zm0-.671h-.633v-2.119h.633Zm.38-3.238h-.5v-1.82h.5Zm0-2.08h-.5v-.548h.5Zm0-1.561h-.5V643.2h.5Zm0-2.08h-.5v-.549h.5Zm0-1.561h-.5V639.56h.5Zm0-2.08h-.5v-.552h.5Zm.108-3.443h.5v1.882h-.5Zm.59,12.8h-.5v-1.816h.5Zm0-2.081h-.5v-.548h.5Zm0-1.561h-.5V643.2h.5Zm0-2.08h-.5v-.549h.5Zm0-1.561h-.5v-1.81h.5Zm0-2.08h-.5v-.552h.5Zm.78,20.548h-.7v-2.389h.714Zm0-2.647h-.7v-.411h.714Zm0-.673h-.7v-3.771h.714Zm0-3.956h-.7v-.485h.714Zm0-.671h-.7v-2.115h.714Zm.021-16.042h.5v1.882h-.5Zm.088,10.918h.5v1.887h-.5Zm.774,13.071h-.675V657.45H2619Zm0-2.647h-.675v-.411H2619Zm0-.673h-.675v-3.771H2619Zm0-3.956h-.675v-.485H2619Zm0-.671h-.675v-2.115H2619Zm.885,7.946h-.673v-2.389h.673Zm0-2.647h-.673v-.411h.673Zm0-.672h-.673v-3.771h.673Zm0-3.956h-.673v-.485h.673Zm0-.671h-.673v-2.115h.673Zm.911,7.946h-.705v-2.389h.705Zm0-2.647h-.705v-.411h.705Zm0-.672h-.705v-3.771h.705Zm0-3.956h-.705v-.485h.705Zm0-.671h-.705v-2.115h.705Zm.029-3.238h-.5v-1.816h.5Zm0-2.08h-.5v-.548h.5Zm0-1.561h-.5V643.2h.5Zm0-2.08h-.5v-.549h.5Zm0-1.561h-.5v-1.81h.5Zm0-2.08h-.5v-.552h.5Zm.108-3.443h.51v1.882h-.5Zm.59,12.8h-.5v-1.812h.5Zm0-2.08h-.5v-.548h.5Zm0-1.561h-.5V643.2h.5Zm0-2.08h-.5v-.549h.5Zm0-1.561h-.5v-1.807h.5Zm0-2.08h-.5v-.552h.5Zm.107-3.443h.5v1.882h-.5Zm.089,10.918h.5v1.887h-.5Zm.926,13.071h-.688v-2.381h.7Zm0-2.647h-.688v-.4h.7Zm0-.672h-.688v-3.771h.7Zm0-3.956h-.688v-.485h.7Zm0-.671h-.688v-2.107h.7Zm.885,7.946h-.658v-2.381h.673Zm0-2.647h-.658v-.4h.673Zm0-.672h-.658v-3.771h.673Zm0-3.956h-.658v-.485h.673Zm0-.671h-.658v-2.107h.673Zm.1-3.238h-.492v-1.808h.5Zm0-2.08h-.492v-.548h.5Zm0-1.561h-.492v-1.8h.5Zm0-2.081h-.492v-.549h.5Zm0-1.561h-.492v-1.8h.5Zm0-2.08h-.492v-.552h.5Zm.106-3.443h.5v1.882h-.5Zm.684,23.989h-.673v-2.377h.673Zm0-2.647h-.673v-.4h.673Zm0-.673h-.673v-3.771h.673Zm0-3.956h-.673v-.485h.673Zm0-.671h-.673v-2.1h.673Zm.017-16.042h.5v1.882h-.5Zm.088,10.918h.5v1.887h-.5Zm.824,13.071h-.719v-2.377h.719Zm0-2.647h-.719v-.4h.719Zm0-.672h-.719v-3.771h.719Zm0-3.956h-.719v-.485h.719Zm0-.671h-.719v-2.1h.719Zm.38-3.238h-.5v-1.8h.514Zm0-2.08h-.5v-.548h.514Zm0-1.561h-.5v-1.8h.514Zm0-2.081h-.5v-.549h.514Zm0-1.561h-.5v-1.8h.514Zm0-2.08h-.5V638.7h.514Zm.107-3.443h.5v1.882h-.5Zm.59,12.8h-.5v-1.8h.5Zm0-2.08h-.5v-.548h.5Zm0-1.561h-.5v-1.8h.5Zm0-2.08h-.5v-.589h.5Zm0-1.561h-.5v-1.8h.5Zm0-2.08h-.5V638.7h.5Zm.8,20.549h-.706v-2.373h.722Zm0-2.647h-.706v-.393h.722Zm0-.672h-.706v-3.81h.722Zm0-3.956h-.706v-.485h.722Zm0-.671h-.706v-2.1h.722Zm.011-16.042h.5v1.882h-.5Zm.089,10.918h.5v1.887h-.5Zm.78,13.071h-.672v-2.373h.672Zm0-2.647h-.672V656.8h.672Zm0-.672h-.672v-3.812h.672Zm0-3.956h-.672v-.485h.672Zm0-.671h-.672v-2.1h.672Zm.886,7.946h-.674v-2.373h.674Zm0-2.647h-.674V656.8h.674Zm0-.672h-.674v-3.812h.674Zm0-3.956h-.674v-.485h.674Zm0-.671h-.674v-2.1h.674Zm.91,7.946h-.7v-2.373h.7Zm0-2.647h-.7V656.8h.7Zm0-.672h-.7v-3.812h.7Zm0-3.956h-.7v-.485h.7Zm0-.671h-.7v-2.1h.7Zm.029-3.238h-.5v-1.8h.5Zm0-2.08h-.5v-.548h.5Zm0-1.561h-.5v-1.8h.5Zm0-2.08h-.5v-.593h.5Zm0-1.561h-.5v-1.8h.5Zm0-2.081h-.5v-.59h.5Zm.108-3.443h.516v1.882h-.5Zm.612,12.8h-.52v-1.8h.52Zm0-2.08h-.52v-.592h.52Zm0-1.561h-.52v-1.793h.52Zm0-2.08h-.52v-.59h.52Zm0-1.561h-.52v-1.791h.52Zm0-2.08h-.52v-.552h.52Zm.087-3.443h.5v1.882h-.5Zm.107,10.918h.5v1.887h-.5Zm.974,13.071h-.763v-2.366h.763Zm0-2.647h-.763V656.8h.763Zm0-.673h-.763v-3.771h.763Zm0-3.956h-.763v-.485h.763Zm0-.671h-.763V649.8h.763Zm.885,7.947h-.674v-2.366h.674Zm0-2.647h-.674V656.8h.674Zm0-.673h-.674v-3.771h.674Zm0-3.956h-.674v-.485h.674Zm0-.671h-.674V649.8h.674Zm.119-17.8h-.235v-1.827h.472v1.881h-.237Zm.766,25.75h-.674v-2.37h.674Zm0-2.647h-.674v-.394h.674Zm0-.673h-.674v-3.771h.674Zm0-3.956h-.674v-.485h.674Zm0-.671h-.674v-2.1h.674Zm1,7.946h-.787v-2.37h.787Zm0-2.647h-.787v-.393h.787Zm0-.673h-.787v-3.771h.787Zm0-3.956h-.787v-.485h.787Zm0-.671h-.787v-2.1h.787Zm.209-3.238h-.5v-1.8h.5Zm0-2.08h-.5v-.59h.5Zm0-1.561h-.5v-1.794h.5Zm0-2.08h-.5v-.588h.5Zm0-1.561h-.5v-1.791h.5Zm0-2.081h-.5v-.552h.5Zm.107-1.561h-.5V635.9h.5Zm0-2.08h-.5v-.556h.5Zm.612,13h-.519v-1.79h.52Zm0-2.08h-.519v-.583h.52Zm0-1.561h-.519v-1.787h.52Zm0-2.08h-.519v-.549h.52Zm0-1.561h-.519v-1.784h.52Zm0-2.081h-.519v-.552h.52Zm.088-1.561h-.5V635.9h.5Zm0-2.08h-.5v-.556h.5Zm.106,11.115h.5v1.887h-.5Zm.736,13.071h-.689v-2.361h.705Zm0-2.647h-.689V656.8h.705Zm0-.673h-.689v-3.771h.705Zm0-3.956h-.689v-.485h.705Zm0-.671h-.689v-2.082h.705Zm.885,7.946h-.665v-2.361h.674Zm0-2.647h-.665V656.8h.674Zm0-.673h-.665v-3.771h.674Zm0-3.956h-.665v-.485h.674Zm0-.671h-.665v-2.082h.674Zm.885,7.946h-.672V657.46h.688Zm0-2.646h-.672V656.8h.688Zm0-.673h-.672v-3.771h.688Zm0-3.956h-.672v-.485h.688Zm0-.671h-.672v-2.082h.688Zm.1-3.238h-.5v-1.783h.5Zm0-2.08h-.5v-.548h.5Zm0-1.561h-.5v-1.78h.5Zm0-2.08h-.5v-.549h.5Zm0-1.561h-.5v-1.778h.5Zm0-2.08h-.5v-.552h.5Zm.089-1.561h-.5v-1.77h.5Zm0-2.08h-.5v-.556h.5Zm.734,24.183h-.713v-2.35h.713Zm0-2.646h-.713V656.8h.713Zm0-.673h-.713v-3.771h.713Zm0-3.956h-.713v-.485h.713Zm0-.671h-.713v-2.076h.713Zm.577-3.238h-.5v-1.776h.5Zm0-2.08h-.5V646h.5Zm0-1.561h-.5V643.22h.5Zm0-2.08h-.5v-.549h.5Zm0-1.561h-.5v-1.77h.5Zm0-2.08h-.5v-.552h.5Zm.088-1.561h-.5v-1.771h.5Zm0-2.08h-.5v-.556h.5Zm.108,11.115h.5v1.888h-.492Zm1.108,13.071h-.728V657.47h.728Zm0-2.647h-.728V656.8h.728Zm0-.672h-.728v-3.819h.728Zm0-3.956h-.728v-.485h.728Zm0-.671h-.728V649.8h.728Zm.1-3.238h-.5v-1.77h.5Zm0-2.08h-.5V646h.5Zm0-1.561h-.5v-1.771h.5Zm0-2.08h-.5v-.549h.5Zm0-1.561h-.5v-1.766h.5Zm0-2.081h-.5v-.552h.5Zm.088-1.561h-.5V635.9h.52Zm0-2.08h-.5v-.556h.52Zm.7,24.183h-.673v-2.337h.673Zm0-2.647h-.673V656.8h.673Zm0-.672h-.673v-3.823h.673Zm0-3.956h-.673v-.485h.673Zm0-.671h-.673V649.8h.673Zm0-14.164h-.5v-1.8h.5Zm0-2.08h-.5v-.556h.5Zm.108,11.115h.509v1.887h-.5Zm.78,13.071h-.662v-2.333h.674Zm0-2.646h-.662V656.8h.674Zm0-.673h-.662v-3.819h.674Zm0-3.956h-.662v-.485h.674Zm0-.671h-.662V649.8h.674Zm.9,7.947H2643v-2.333h.688Zm0-2.647H2643V656.8h.688Zm0-.673H2643v-3.819h.688Zm0-3.956H2643v-.485h.688Zm0-.671H2643V649.8h.688Zm.226-3.238h-.5v-1.76h.5Zm0-2.08h-.5v-.548h.5Zm0-1.561h-.5v-1.758h.5Zm0-2.081h-.5v-.549h.5Zm0-1.561h-.5v-1.755h.5Zm0-2.08h-.5V638.7h.5Zm.091-1.561h-.5v-1.8h.5Zm0-2.08h-.5v-.556h.5Zm.61,13h-.5V646.86h.5Zm0-2.08h-.5v-.548h.5Zm0-1.561h-.5v-1.751h.5Zm0-2.08h-.5v-.549h.5Zm0-1.561h-.5v-1.748h.5Zm0-2.081h-.5V638.7h.5Zm.09-1.561h-.492V635.9h.5Zm0-2.08h-.492v-.556h.5Zm.106,11.115h.5v1.888h-.5Zm.726,13.071h-.695v-2.32h.695Zm0-2.647h-.695v-.342h.695Zm0-.672h-.695V652.7h.695Zm0-3.956h-.695v-.485h.695Zm0-.671h-.695V649.8h.695Zm.885,7.946h-.674v-2.32h.674Zm0-2.647h-.674v-.342h.674Zm0-.672h-.674V652.7h.674Zm0-3.956h-.674v-.485h.674Zm0-.671h-.674V649.8h.674Zm.885,7.946h-.673v-2.32h.673Zm0-2.647h-.673v-.342h.673Zm0-.672h-.673v-3.771h.673Zm0-3.956h-.673v-.485h.673Zm0-.671h-.673V649.8h.673Zm.11-3.238h-.5v-1.747h.5Zm0-2.08h-.5v-.548h.5Zm0-1.561h-.5v-1.745h.5Zm0-2.081h-.5v-.549h.5Zm0-1.561h-.5v-1.742h.5Zm0-2.08h-.5V638.7h.5Zm.089-1.561h-.5V635.9h.5Zm0-2.08h-.5v-.556h.5Zm.736,24.33h-.722v-2.459h.722Zm0-2.647h-.722v-.482h.722Zm0-.672h-.722v-3.771h.722Zm0-3.956h-.722v-.485h.722Zm0-.671h-.722V649.8h.722Zm.576-3.238h-.519v-1.887h.5Zm0-2.08h-.519v-.548h.5Zm0-1.561h-.519v-1.885h.5Zm0-2.081h-.519v-.549h.5Zm0-1.561h-.519v-1.882h.5Zm0-2.08h-.519v-.552h.5Zm.089-1.561h-.5v-1.879h.5Zm0-2.08h-.5v-.555h.5Zm.108,11.115h.5v1.887h-.492Zm1.1,13.071h-.718v-2.454h.718Zm0-2.647h-.718v-.476h.718Zm0-.673h-.718v-3.771h.718Zm0-3.956h-.718v-.485h.718Zm0-.671h-.718v-2.18h.718Zm.1-3.238h-.5v-1.881h.5Zm0-2.08h-.5v-.548h.5Zm0-1.561h-.5v-1.878h.5Zm0-2.08h-.5v-.549h.5Zm0-1.561h-.5V639.59h.5Zm0-2.08h-.5v-.552h.5Zm.088-1.561h-.5v-1.869h.5Zm0-2.08h-.5v-.556h.5Zm.688,24.183h-.675V657.48H2651Zm0-2.647h-.675v-.469H2651Zm0-.673h-.675v-3.771H2651Zm0-3.956h-.675v-.485H2651Zm0-.671h-.675v-2.173H2651Zm-.492-14.164v-1.869h.634v1.882Zm.611,9.034h.51v1.887h-.5Zm.767,13.071h-.673v-2.447h.677Zm0-2.647h-.673v-.469h.677Zm0-.673h-.673v-3.771h.677Zm0-3.956h-.673v-.485h.677Zm0-.671h-.673V649.8h.677Zm.91,7.947h-.7v-2.447h.7Zm0-2.647h-.7v-.469h.7Zm0-.673h-.7v-3.771h.7Zm0-3.956h-.7v-.485h.7Zm0-.671h-.7V649.8h.7Zm.27-3.238h-.52v-1.874h.52Zm0-2.08h-.52v-.548h.52Zm0-1.561h-.52v-1.869h.52Zm0-2.081h-.52v-.549h.52Zm1.7,3.091h.5v.557h-.5Zm-.787,0h.59v.557h-.59Zm0,.744h.59v1.887h-.59Zm-.2,1.887h-.52v-1.869h.52Zm0-2.081h-.52v-.547h.52Zm.073-1.561h-.59v-1.869h.59Zm0-2.08h-.59v-.549h.59Zm.78,16.906h-.684v-2.446h.684Zm0-2.647h-.684V656.8h.684Zm0-.673h-.684v-3.771h.684Zm0-3.956h-.684v-.485h.684Zm0-.671h-.684V649.8h.684Zm.13-5.126h.5v1.887h-.5Zm.75,13.071h-.674v-2.446h.674Zm0-2.647h-.674V656.8h.674Zm0-.673h-.674v-3.771h.674Zm0-3.956h-.674v-.485h.674Zm0-.671h-.674V649.8h.674Zm.885,7.946h-.672v-2.446h.672Zm0-2.647h-.672V656.8h.672Zm0-.673h-.672v-3.771h.672Zm0-3.956h-.672v-.485h.672Zm0-.671h-.672V649.8h.672Zm.944,7.946h-.734V657.47h.743Zm0-2.647h-.734V656.8h.743Zm0-.673h-.734v-3.771h.743Zm0-3.956h-.734v-.485h.743Zm0-.671h-.734V649.8h.743Z" transform="translate(-2573.731 -609.652)" fill="#609cfc"/>
    </g>
  </g>
</svg>
