<svg id="Group_1473" data-name="Group 1473" xmlns="http://www.w3.org/2000/svg" width="78.94" height="58.549" viewBox="0 0 78.94 58.549">
  <rect id="Rectangle_176" data-name="Rectangle 176" width="19.912" height="18.336" transform="translate(57.917 39.3)" fill="#609cfc"/>
  <rect id="Rectangle_177" data-name="Rectangle 177" width="19.387" height="18.336" transform="translate(1.104 39.3)" fill="#609cfc"/>
  <rect id="Rectangle_178" data-name="Rectangle 178" width="77.83" height="3.232" transform="translate(0.552 39.3)" fill="#609cfc"/>
  <rect id="Rectangle_179" data-name="Rectangle 179" width="78.94" height="0.828" transform="translate(0 40.502)" fill="#fff"/>
  <rect id="Rectangle_180" data-name="Rectangle 180" width="0.907" height="1.406" transform="translate(18.185 43.274)" fill="#fff"/>
  <rect id="Rectangle_181" data-name="Rectangle 181" width="0.907" height="1.853" transform="translate(18.185 50.632)" fill="#fff"/>
  <path id="Path_41934" data-name="Path 41934" d="M66.257,208.591H65.35v-2.661a.4.4,0,0,1,.4-.4h.105a.4.4,0,0,1,.4.4Z" transform="translate(-47.165 -159.26)" fill="#fff"/>
  <rect id="Rectangle_182" data-name="Rectangle 182" width="0.907" height="1.406" transform="translate(14.946 43.274)" fill="#fff"/>
  <rect id="Rectangle_183" data-name="Rectangle 183" width="0.907" height="1.853" transform="translate(14.946 50.632)" fill="#fff"/>
  <path id="Path_41935" data-name="Path 41935" d="M61.337,208.591H60.43v-2.661a.4.4,0,0,1,.4-.4h.105a.4.4,0,0,1,.4.4Z" transform="translate(-45.478 -159.26)" fill="#fff"/>
  <rect id="Rectangle_184" data-name="Rectangle 184" width="0.907" height="1.406" transform="translate(11.004 43.274)" fill="#fff"/>
  <rect id="Rectangle_185" data-name="Rectangle 185" width="0.907" height="1.853" transform="translate(11.004 50.632)" fill="#fff"/>
  <path id="Path_41936" data-name="Path 41936" d="M55.337,208.591H54.43v-2.661a.4.4,0,0,1,.4-.4h.105a.4.4,0,0,1,.4.4Z" transform="translate(-43.419 -159.26)" fill="#fff"/>
  <rect id="Rectangle_186" data-name="Rectangle 186" width="0.907" height="1.406" transform="translate(7.194 43.274)" fill="#fff"/>
  <rect id="Rectangle_187" data-name="Rectangle 187" width="0.907" height="1.853" transform="translate(7.194 50.632)" fill="#fff"/>
  <path id="Path_41937" data-name="Path 41937" d="M49.537,208.591H48.63v-2.661a.4.4,0,0,1,.4-.4h.105a.4.4,0,0,1,.4.4Z" transform="translate(-41.43 -159.26)" fill="#fff"/>
  <rect id="Rectangle_188" data-name="Rectangle 188" width="0.907" height="1.406" transform="translate(4.04 43.274)" fill="#fff"/>
  <rect id="Rectangle_189" data-name="Rectangle 189" width="0.907" height="1.853" transform="translate(4.04 50.632)" fill="#fff"/>
  <path id="Path_41938" data-name="Path 41938" d="M44.737,208.591H43.83v-2.661a.4.4,0,0,1,.4-.4h.105a.4.4,0,0,1,.4.4Z" transform="translate(-39.783 -159.26)" fill="#fff"/>
  <rect id="Rectangle_190" data-name="Rectangle 190" width="0.907" height="1.406" transform="translate(74.164 43.274)" fill="#fff"/>
  <rect id="Rectangle_191" data-name="Rectangle 191" width="0.907" height="1.853" transform="translate(74.164 50.632)" fill="#fff"/>
  <path id="Path_41939" data-name="Path 41939" d="M151.467,208.591h-.907v-2.661a.4.4,0,0,1,.4-.4h.105a.4.4,0,0,1,.4.4Z" transform="translate(-76.396 -159.26)" fill="#fff"/>
  <rect id="Rectangle_192" data-name="Rectangle 192" width="0.907" height="1.406" transform="translate(70.925 43.274)" fill="#fff"/>
  <rect id="Rectangle_193" data-name="Rectangle 193" width="0.907" height="1.853" transform="translate(70.925 50.632)" fill="#fff"/>
  <path id="Path_41940" data-name="Path 41940" d="M146.547,208.591h-.907v-2.661a.4.4,0,0,1,.4-.4h.105a.4.4,0,0,1,.4.4Z" transform="translate(-74.708 -159.26)" fill="#fff"/>
  <rect id="Rectangle_194" data-name="Rectangle 194" width="0.907" height="1.406" transform="translate(66.983 43.274)" fill="#fff"/>
  <rect id="Rectangle_195" data-name="Rectangle 195" width="0.907" height="1.853" transform="translate(66.983 50.632)" fill="#fff"/>
  <path id="Path_41941" data-name="Path 41941" d="M140.547,208.591h-.907v-2.661a.4.4,0,0,1,.4-.4h.105a.4.4,0,0,1,.4.4Z" transform="translate(-72.65 -159.26)" fill="#fff"/>
  <rect id="Rectangle_196" data-name="Rectangle 196" width="0.907" height="1.406" transform="translate(63.173 43.274)" fill="#fff"/>
  <rect id="Rectangle_197" data-name="Rectangle 197" width="0.907" height="1.853" transform="translate(63.173 50.632)" fill="#fff"/>
  <path id="Path_41942" data-name="Path 41942" d="M134.747,208.591h-.907v-2.661a.4.4,0,0,1,.4-.4h.105a.4.4,0,0,1,.4.4Z" transform="translate(-70.66 -159.26)" fill="#fff"/>
  <rect id="Rectangle_198" data-name="Rectangle 198" width="0.907" height="1.406" transform="translate(60.02 43.274)" fill="#fff"/>
  <rect id="Rectangle_199" data-name="Rectangle 199" width="0.907" height="1.853" transform="translate(60.02 50.632)" fill="#fff"/>
  <path id="Path_41943" data-name="Path 41943" d="M129.947,208.591h-.907v-2.661a.4.4,0,0,1,.4-.4h.105a.4.4,0,0,1,.4.4Z" transform="translate(-69.014 -159.26)" fill="#fff"/>
  <rect id="Rectangle_200" data-name="Rectangle 200" width="8.422" height="14.493" transform="translate(50.849 38.564)" fill="#568ce3"/>
  <rect id="Rectangle_201" data-name="Rectangle 201" width="8.383" height="14.493" transform="translate(19.663 38.564)" fill="#568ce3"/>
  <rect id="Rectangle_202" data-name="Rectangle 202" width="8.889" height="1.386" transform="translate(50.849 37.178)" fill="#609cfc"/>
  <rect id="Rectangle_203" data-name="Rectangle 203" width="8.843" height="1.386" transform="translate(19.203 37.178)" fill="#609cfc"/>
  <rect id="Rectangle_204" data-name="Rectangle 204" width="39.608" height="5.492" transform="translate(19.663 53.056)" fill="#609cfc"/>
  <rect id="Rectangle_205" data-name="Rectangle 205" width="24.242" height="15.189" transform="translate(27.349 37.867)" fill="#609cfc"/>
  <rect id="Rectangle_206" data-name="Rectangle 206" width="21.745" height="8.199" transform="translate(28.597 40.187)" fill="#3f75cb"/>
  <rect id="Rectangle_207" data-name="Rectangle 207" width="0.723" height="6.997" transform="translate(49.002 40.187)" fill="#f5f5f5"/>
  <rect id="Rectangle_208" data-name="Rectangle 208" width="0.723" height="6.997" transform="translate(40.85 40.187)" fill="#f5f5f5"/>
  <rect id="Rectangle_209" data-name="Rectangle 209" width="0.723" height="6.997" transform="translate(37.427 40.187)" fill="#f5f5f5"/>
  <rect id="Rectangle_210" data-name="Rectangle 210" width="0.723" height="6.997" transform="translate(29.254 40.187)" fill="#f5f5f5"/>
  <rect id="Rectangle_211" data-name="Rectangle 211" width="0.723" height="6.997" transform="translate(45.553 40.187)" fill="#f5f5f5"/>
  <rect id="Rectangle_212" data-name="Rectangle 212" width="28.84" height="2.496" transform="translate(25.05 34.681)" fill="#568ce3"/>
  <rect id="Rectangle_213" data-name="Rectangle 213" width="0.723" height="6.997" transform="translate(44.279 40.187)" fill="#f5f5f5"/>
  <rect id="Rectangle_214" data-name="Rectangle 214" width="0.723" height="6.997" transform="translate(33.965 40.187)" fill="#f5f5f5"/>
  <rect id="Rectangle_215" data-name="Rectangle 215" width="0.723" height="6.997" transform="translate(32.684 40.187)" fill="#f5f5f5"/>
  <rect id="Rectangle_216" data-name="Rectangle 216" width="25.293" height="1.544" transform="translate(26.824 36.324)" fill="#609cfc"/>
  <rect id="Rectangle_217" data-name="Rectangle 217" width="3.528" height="1.202" transform="translate(26.824 47.183)" fill="#568ce3"/>
  <rect id="Rectangle_218" data-name="Rectangle 218" width="3.528" height="1.202" transform="translate(48.582 47.183)" fill="#568ce3"/>
  <rect id="Rectangle_219" data-name="Rectangle 219" width="2.969" height="1.202" transform="translate(32.204 47.183)" fill="#568ce3"/>
  <rect id="Rectangle_220" data-name="Rectangle 220" width="2.969" height="1.202" transform="translate(43.813 47.183)" fill="#568ce3"/>
  <rect id="Rectangle_221" data-name="Rectangle 221" width="1.839" height="1.202" transform="translate(36.882 47.183)" fill="#568ce3"/>
  <rect id="Rectangle_222" data-name="Rectangle 222" width="1.839" height="1.202" transform="translate(40.291 47.183)" fill="#568ce3"/>
  <rect id="Rectangle_223" data-name="Rectangle 223" width="26.081" height="8.146" transform="translate(26.429 26.535)" fill="#c3c5c8"/>
  <rect id="Rectangle_224" data-name="Rectangle 224" width="26.081" height="8.146" transform="translate(26.429 26.535)" fill="#609cfc"/>
  <rect id="Rectangle_225" data-name="Rectangle 225" width="21.745" height="5.781" transform="translate(28.597 19.637)" fill="#568ce3"/>
  <path id="Path_41944" data-name="Path 41944" d="M103.2,164.109H80.36v-.026c0-.907,1.314-1.642,2.943-1.642h16.963c1.623,0,2.943.736,2.943,1.642v.026Z" transform="translate(-52.314 -144.479)" fill="#609cfc"/>
  <path id="Path_41945" data-name="Path 41945" d="M94.215,150.57H92.284a7.657,7.657,0,0,0-7.654,7.654v.145h17.239v-.145A7.657,7.657,0,0,0,94.215,150.57Z" transform="translate(-53.779 -140.407)" fill="#609cfc"/>
  <path id="Path_41946" data-name="Path 41946" d="M104.327,174.907H76.8v-.447a.673.673,0,0,1,.67-.67h26.193a.673.673,0,0,1,.67.67v.447Z" transform="translate(-51.093 -148.372)" fill="#609cfc"/>
  <rect id="Rectangle_226" data-name="Rectangle 226" width="4.434" height="2.68" transform="translate(63.889 36.626)" fill="#609cfc"/>
  <rect id="Rectangle_227" data-name="Rectangle 227" width="4.434" height="2.68" transform="translate(10.708 36.626)" fill="#609cfc"/>
  <rect id="Rectangle_228" data-name="Rectangle 228" width="1.018" height="1.577" transform="translate(30.831 41.185)" fill="#fff"/>
  <path id="Path_41947" data-name="Path 41947" d="M85.618,206.326H84.6v-2.983a.454.454,0,0,1,.453-.453h.118a.454.454,0,0,1,.453.453v2.983Z" transform="translate(-53.769 -158.354)" fill="#fff"/>
  <rect id="Rectangle_229" data-name="Rectangle 229" width="1.018" height="1.577" transform="translate(35.528 41.185)" fill="#fff"/>
  <path id="Path_41948" data-name="Path 41948" d="M92.768,206.326H91.75v-2.983a.454.454,0,0,1,.453-.453h.118a.454.454,0,0,1,.453.453v2.983Z" transform="translate(-56.222 -158.354)" fill="#fff"/>
  <rect id="Rectangle_230" data-name="Rectangle 230" width="1.018" height="1.577" transform="translate(38.958 41.185)" fill="#fff"/>
  <path id="Path_41949" data-name="Path 41949" d="M97.988,206.326H96.97v-2.983a.454.454,0,0,1,.453-.453h.118a.454.454,0,0,1,.453.453v2.983Z" transform="translate(-58.012 -158.354)" fill="#fff"/>
  <rect id="Rectangle_231" data-name="Rectangle 231" width="1.018" height="1.577" transform="translate(42.426 41.185)" fill="#fff"/>
  <path id="Path_41950" data-name="Path 41950" d="M103.268,206.326H102.25v-2.983a.454.454,0,0,1,.453-.453h.118a.454.454,0,0,1,.453.453v2.983Z" transform="translate(-59.824 -158.354)" fill="#fff"/>
  <rect id="Rectangle_232" data-name="Rectangle 232" width="1.018" height="1.577" transform="translate(47.156 41.185)" fill="#fff"/>
  <path id="Path_41951" data-name="Path 41951" d="M110.468,206.326H109.45v-2.983a.454.454,0,0,1,.453-.453h.118a.454.454,0,0,1,.453.453v2.983Z" transform="translate(-62.294 -158.354)" fill="#fff"/>
  <rect id="Rectangle_233" data-name="Rectangle 233" width="1.018" height="1.577" transform="translate(54.876 41.599)" fill="#fff"/>
  <rect id="Rectangle_234" data-name="Rectangle 234" width="1.248" height="2.457" transform="translate(54.757 49.831)" fill="#fff"/>
  <rect id="Rectangle_235" data-name="Rectangle 235" width="1.248" height="2.457" transform="translate(47.005 49.831)" fill="#fff"/>
  <rect id="Rectangle_236" data-name="Rectangle 236" width="1.248" height="2.457" transform="translate(42.275 49.831)" fill="#fff"/>
  <rect id="Rectangle_237" data-name="Rectangle 237" width="1.248" height="2.457" transform="translate(38.728 49.831)" fill="#fff"/>
  <rect id="Rectangle_238" data-name="Rectangle 238" width="1.248" height="2.457" transform="translate(35.377 49.831)" fill="#fff"/>
  <rect id="Rectangle_239" data-name="Rectangle 239" width="1.248" height="2.457" transform="translate(30.778 49.831)" fill="#fff"/>
  <rect id="Rectangle_240" data-name="Rectangle 240" width="1.248" height="2.457" transform="translate(22.829 49.831)" fill="#fff"/>
  <path id="Path_41952" data-name="Path 41952" d="M78.662,221.23H76.52V219a.953.953,0,0,1,.953-.953h.237a.953.953,0,0,1,.953.953Z" transform="translate(-50.997 -163.555)" fill="#fff"/>
  <path id="Path_41953" data-name="Path 41953" d="M85.192,221.23H83.05V219A.953.953,0,0,1,84,218.05h.237a.953.953,0,0,1,.953.953Z" transform="translate(-53.237 -163.555)" fill="#fff"/>
  <path id="Path_41954" data-name="Path 41954" d="M91.732,221.23H89.59V219a.953.953,0,0,1,.953-.953h.237a.953.953,0,0,1,.953.953v2.227Z" transform="translate(-55.481 -163.555)" fill="#fff"/>
  <path id="Path_41955" data-name="Path 41955" d="M98.262,221.23H96.12V219a.953.953,0,0,1,.953-.953h.237a.953.953,0,0,1,.953.953Z" transform="translate(-57.721 -163.555)" fill="#fff"/>
  <path id="Path_41956" data-name="Path 41956" d="M104.792,221.23H102.65V219a.953.953,0,0,1,.953-.953h.237a.953.953,0,0,1,.953.953Z" transform="translate(-59.961 -163.555)" fill="#fff"/>
  <path id="Path_41957" data-name="Path 41957" d="M111.332,221.23H109.19V219a.953.953,0,0,1,.953-.953h.236a.953.953,0,0,1,.953.953Z" transform="translate(-62.204 -163.555)" fill="#fff"/>
  <path id="Path_41958" data-name="Path 41958" d="M117.862,221.23H115.72V219a.953.953,0,0,1,.953-.953h.236a.953.953,0,0,1,.953.953Z" transform="translate(-64.444 -163.555)" fill="#fff"/>
  <rect id="Rectangle_241" data-name="Rectangle 241" width="36.928" height="1.537" transform="translate(20.99 52.327)" fill="#609cfc"/>
  <path id="Path_41959" data-name="Path 41959" d="M122.218,206.956H121.2v-2.983a.454.454,0,0,1,.453-.453h.118a.454.454,0,0,1,.453.453v2.983Z" transform="translate(-66.324 -158.571)" fill="#fff"/>
  <rect id="Rectangle_242" data-name="Rectangle 242" width="1.018" height="1.577" transform="translate(22.974 41.599)" fill="#fff"/>
  <path id="Path_41960" data-name="Path 41960" d="M73.658,206.956H72.64v-2.983a.454.454,0,0,1,.453-.453h.118a.454.454,0,0,1,.453.453v2.983Z" transform="translate(-49.666 -158.571)" fill="#fff"/>
  <rect id="Rectangle_243" data-name="Rectangle 243" width="2.207" height="6.432" transform="translate(38.406 27.264)" fill="#fff"/>
  <path id="Path_41961" data-name="Path 41961" d="M98.123,170.986H96.77v-2.358a.617.617,0,0,1,.618-.618H97.5a.617.617,0,0,1,.618.618v2.358Z" transform="translate(-57.944 -146.389)" fill="#fff"/>
  <path id="Path_41962" data-name="Path 41962" d="M95.1,170.986H93.85v-2.358a.6.6,0,0,1,.572-.618h.1a.6.6,0,0,1,.572.618v2.358Z" transform="translate(-56.942 -146.389)" fill="#fff"/>
  <path id="Path_41963" data-name="Path 41963" d="M92.293,170.986H91.15v-2.358a.578.578,0,0,1,.526-.618h.092a.578.578,0,0,1,.526.618v2.358Z" transform="translate(-56.016 -146.389)" fill="#fff"/>
  <path id="Path_41964" data-name="Path 41964" d="M89.608,170.986H88.57v-2.358a.563.563,0,0,1,.48-.618h.085a.563.563,0,0,1,.48.618v2.358Z" transform="translate(-55.131 -146.389)" fill="#fff"/>
  <path id="Path_41965" data-name="Path 41965" d="M87.1,170.986H86.17v-2.358c0-.342.191-.618.427-.618h.072c.236,0,.427.276.427.618v2.358Z" transform="translate(-54.308 -146.389)" fill="#fff"/>
  <path id="Path_41966" data-name="Path 41966" d="M84.838,170.986H84.01v-2.358c0-.342.171-.618.381-.618h.066c.21,0,.381.276.381.618Z" transform="translate(-53.567 -146.389)" fill="#fff"/>
  <path id="Path_41967" data-name="Path 41967" d="M82.749,170.986H82.02v-2.358c0-.342.151-.618.335-.618h.059c.184,0,.335.276.335.618Z" transform="translate(-52.884 -146.389)" fill="#fff"/>
  <path id="Path_41968" data-name="Path 41968" d="M99.88,170.986h1.248v-2.358a.6.6,0,0,0-.572-.618h-.1a.6.6,0,0,0-.572.618v2.358Z" transform="translate(-59.011 -146.389)" fill="#fff"/>
  <path id="Path_41969" data-name="Path 41969" d="M102.74,170.986h1.143v-2.358a.578.578,0,0,0-.526-.618h-.092a.578.578,0,0,0-.526.618Z" transform="translate(-59.992 -146.389)" fill="#fff"/>
  <path id="Path_41970" data-name="Path 41970" d="M105.477,170.986h1.038v-2.358a.563.563,0,0,0-.48-.618h-.085a.563.563,0,0,0-.48.618v2.358Z" transform="translate(-60.928 -146.389)" fill="#fff"/>
  <path id="Path_41971" data-name="Path 41971" d="M108.04,170.986h.933v-2.358c0-.342-.191-.618-.427-.618h-.072c-.237,0-.427.276-.427.618v2.358Z" transform="translate(-61.81 -146.389)" fill="#fff"/>
  <path id="Path_41972" data-name="Path 41972" d="M110.36,170.986h.828v-2.358c0-.342-.171-.618-.381-.618h-.066c-.21,0-.381.276-.381.618Z" transform="translate(-62.606 -146.389)" fill="#fff"/>
  <path id="Path_41973" data-name="Path 41973" d="M112.5,170.986h.729v-2.358c0-.342-.151-.618-.335-.618h-.059c-.184,0-.335.276-.335.618Z" transform="translate(-63.34 -146.389)" fill="#fff"/>
  <rect id="Rectangle_244" data-name="Rectangle 244" width="1.78" height="6.432" transform="translate(35.837 27.264)" fill="#fff"/>
  <rect id="Rectangle_245" data-name="Rectangle 245" width="1.603" height="6.432" transform="translate(33.492 27.264)" fill="#fff"/>
  <rect id="Rectangle_246" data-name="Rectangle 246" width="1.261" height="6.432" transform="translate(31.501 27.264)" fill="#fff"/>
  <rect id="Rectangle_247" data-name="Rectangle 247" width="0.979" height="6.432" transform="translate(29.813 27.264)" fill="#fff"/>
  <rect id="Rectangle_248" data-name="Rectangle 248" width="0.801" height="6.432" transform="translate(28.302 27.264)" fill="#fff"/>
  <rect id="Rectangle_249" data-name="Rectangle 249" width="0.604" height="6.432" transform="translate(27.04 27.264)" fill="#fff"/>
  <rect id="Rectangle_250" data-name="Rectangle 250" width="1.78" height="6.432" transform="translate(41.342 27.264)" fill="#fff"/>
  <rect id="Rectangle_251" data-name="Rectangle 251" width="1.603" height="6.432" transform="translate(43.865 27.264)" fill="#fff"/>
  <rect id="Rectangle_252" data-name="Rectangle 252" width="1.261" height="6.432" transform="translate(46.191 27.264)" fill="#fff"/>
  <rect id="Rectangle_253" data-name="Rectangle 253" width="0.979" height="6.432" transform="translate(48.168 27.264)" fill="#fff"/>
  <rect id="Rectangle_254" data-name="Rectangle 254" width="0.801" height="6.432" transform="translate(49.85 27.264)" fill="#fff"/>
  <rect id="Rectangle_255" data-name="Rectangle 255" width="0.604" height="6.432" transform="translate(51.308 27.264)" fill="#fff"/>
  <path id="Path_41974" data-name="Path 41974" d="M98.136,160.954H96.71l.007-1.314h1.406Z" transform="translate(-57.923 -143.518)" fill="#fff"/>
  <path id="Path_41975" data-name="Path 41975" d="M95.33,160.954H94.18l.039-1.314h1.13Z" transform="translate(-57.055 -143.518)" fill="#fff"/>
  <path id="Path_41976" data-name="Path 41976" d="M92.908,160.954H91.87l.066-1.314h1.018Z" transform="translate(-56.263 -143.518)" fill="#fff"/>
  <path id="Path_41977" data-name="Path 41977" d="M90.735,160.954H89.92l.085-1.314h.8Z" transform="translate(-55.594 -143.518)" fill="#fff"/>
  <path id="Path_41978" data-name="Path 41978" d="M88.881,160.954H88.25l.105-1.314h.624Z" transform="translate(-55.021 -143.518)" fill="#fff"/>
  <path id="Path_41979" data-name="Path 41979" d="M87.289,160.954H86.77l.118-1.314H87.4Z" transform="translate(-54.513 -143.518)" fill="#fff"/>
  <path id="Path_41980" data-name="Path 41980" d="M85.924,160.954H85.53l.131-1.314h.388Z" transform="translate(-54.088 -143.518)" fill="#fff"/>
  <path id="Path_41981" data-name="Path 41981" d="M99.59,160.954h1.15l-.039-1.314H99.57Z" transform="translate(-58.904 -143.518)" fill="#fff"/>
  <path id="Path_41982" data-name="Path 41982" d="M102.056,160.954h1.038l-.066-1.314H102.01Z" transform="translate(-59.741 -143.518)" fill="#fff"/>
  <path id="Path_41983" data-name="Path 41983" d="M104.332,160.954h.815l-.085-1.314h-.8Z" transform="translate(-60.513 -143.518)" fill="#fff"/>
  <path id="Path_41984" data-name="Path 41984" d="M106.262,160.954h.637l-.105-1.314h-.624Z" transform="translate(-61.168 -143.518)" fill="#fff"/>
  <path id="Path_41985" data-name="Path 41985" d="M107.912,160.954h.519l-.118-1.314H107.8Z" transform="translate(-61.728 -143.518)" fill="#fff"/>
  <path id="Path_41986" data-name="Path 41986" d="M109.335,160.954h.394l-.131-1.314h-.388Z" transform="translate(-62.211 -143.518)" fill="#fff"/>
  <path id="Path_41987" data-name="Path 41987" d="M103.495,165.69H79.45v-.282c0-.237.263-.427.585-.427H102.91c.322,0,.585.191.585.427Z" transform="translate(-52.002 -145.35)" fill="#609cfc"/>
  <rect id="Rectangle_256" data-name="Rectangle 256" width="6.767" height="1.025" transform="translate(36.087 9.533)" fill="#568ce3"/>
  <rect id="Rectangle_257" data-name="Rectangle 257" width="3.83" height="3.922" transform="translate(37.552 5.604)" fill="#c3c5c8"/>
  <rect id="Rectangle_258" data-name="Rectangle 258" width="3.83" height="3.922" transform="translate(37.552 5.604)" fill="#3f75cb"/>
  <rect id="Rectangle_259" data-name="Rectangle 259" width="0.591" height="3.725" transform="translate(39.174 0)" fill="#3f75cb"/>
  <path id="Path_41988" data-name="Path 41988" d="M98.9,143.218H94.1v-.48a.308.308,0,0,1,.309-.309h4.178a.308.308,0,0,1,.309.309Z" transform="translate(-57.028 -137.614)" fill="#568ce3"/>
  <path id="Path_41989" data-name="Path 41989" d="M96.914,140.76h-.42a2.7,2.7,0,0,0-1.794,1.1h4.007A2.722,2.722,0,0,0,96.914,140.76Z" transform="translate(-57.234 -137.042)" fill="#3f75cb"/>
  <rect id="Rectangle_260" data-name="Rectangle 260" width="0.591" height="3.015" transform="translate(39.188 6.136)" fill="#fff"/>
  <rect id="Rectangle_261" data-name="Rectangle 261" width="0.48" height="3.015" transform="translate(38.498 6.136)" fill="#fff"/>
  <rect id="Rectangle_262" data-name="Rectangle 262" width="0.434" height="3.015" transform="translate(37.867 6.136)" fill="#fff"/>
  <rect id="Rectangle_263" data-name="Rectangle 263" width="0.48" height="3.015" transform="translate(39.982 6.136)" fill="#fff"/>
  <rect id="Rectangle_264" data-name="Rectangle 264" width="0.434" height="3.015" transform="translate(40.659 6.136)" fill="#fff"/>
  <path id="Path_41990" data-name="Path 41990" d="M98.033,139.421a.591.591,0,1,1-.591-.591A.589.589,0,0,1,98.033,139.421Z" transform="translate(-57.971 -136.38)" fill="#3f75cb"/>
</svg>
